<?xml version="1.0" standalone="no"?>
<!DOCTYPE svg PUBLIC "-//W3C//DTD SVG 1.1//EN" "http://www.w3.org/Graphics/SVG/1.1/DTD/svg11.dtd" >
<svg xmlns="http://www.w3.org/2000/svg" xmlns:xlink="http://www.w3.org/1999/xlink" version="1.1">
<metadata>
Created by FontForge 20201107 at Thu Jan 16 22:49:45 2025
 By 
Copyright (c) 2016 by Eurotypo. All rights reserved.
</metadata>
<defs>
<font id="RRollie" horiz-adv-x="1069" >
  <font-face 
    font-family="RRollie"
    font-weight="400"
    font-stretch="normal"
    units-per-em="2048"
    panose-1="0 0 0 0 0 0 0 0 0 0"
    ascent="1536"
    descent="-512"
    x-height="752"
    cap-height="1069"
    bbox="-49 -506 1933 1491"
    underline-thickness="102"
    underline-position="-307"
    unicode-range="U+000D-FB06"
  />
<missing-glyph horiz-adv-x="942" 
d="M113 0v1069h727v-1069h-727zM475 590l258 407h-514zM510 535l266 -420v837zM176 115l262 420l-262 419v-839zM219 72h514l-258 407z" />
    <glyph glyph-name="f_f" unicode="ff" horiz-adv-x="987" 
d="M664 170v510h-363v-510q0 -21 2 -59q0 -8 1 -17l2 -18t1 -13l2.5 -17.5t1.5 -14.5t4 -22q0 -2 0.5 -4t0.5 -3l1 -2h-147q18 62 18 170v510h-120l-5 47q125 2 125 82q0 51 15 101q17 55 48 100q34 49 98 79q62 29 155 29q121 0 237 -76q72 76 203 76q68 0 191 -39l-37 -88
q-82 66 -168 66q-154 0 -154 -223v-82h223l-8 -72h-215v-510q0 -111 19 -170h-150q19 65 19 170zM301 823v-71h229q82 0 107 11q27 12 27 46q0 89 24 152q-100 96 -207 96q-90 0 -135 -63t-45 -171z" />
    <glyph glyph-name="fi" unicode="fi" horiz-adv-x="915" 
d="M623 997l4 27q-47 33 -146 33q-180 0 -180 -240v-65h221l-8 -72h-213v-510q0 -22 2 -58l2.5 -27.5t1.5 -19.5q1 -7 2.5 -19t1.5 -15q0 -4 4 -22q0 -2 0.5 -4t0.5 -3l1 -2h-147q18 62 18 170v510h-120l-5 45q64 1 96 27q29 23 29 57q0 122 74 216q74 93 246 93q27 0 58 -4
q49 -6 87 -14q54 -11 89 -37q36 -27 36 -66q0 -31 -22 -53t-56 -22q-35 0 -56 22t-21 53zM657 170v401q0 121 -39 168l152 41v-610q0 -78 18 -170h-147q16 81 16 170z" />
    <glyph glyph-name="fl" unicode="fl" horiz-adv-x="915" 
d="M664 170v809q-86 78 -183 78q-180 0 -180 -240v-65h221l-8 -72h-213v-510q0 -22 2 -58l2.5 -27.5t1.5 -19.5q1 -7 2.5 -19t1.5 -15q0 -4 4 -22q0 -2 0.5 -4t0.5 -3l1 -2h-147q18 62 18 170v510h-120l-5 45q64 1 96 27q29 23 29 57q0 122 74 216q74 93 246 93
q123 0 217 -55q44 22 51 29v-922q0 -111 19 -170h-150q19 65 19 170z" />
    <glyph glyph-name="f_f_i" unicode="ffi" horiz-adv-x="1386" 
d="M776 817v-65h223l-8 -72h-215v-510q0 -111 19 -170h-150q19 65 19 170v510h-363v-510q0 -21 2 -59q0 -8 1 -17l2 -18t1 -13l2.5 -17.5t1.5 -14.5t4 -22q0 -2 0.5 -4t0.5 -3l1 -2h-147q18 62 18 170v510h-120l-5 47q125 2 125 82q0 51 15 101q17 55 48 100q34 49 98 79
q62 29 155 29q63 0 132 -25q66 -24 114 -57q82 82 233 82q27 0 58 -4q49 -6 87 -14q55 -11 90 -37t35 -66q0 -31 -22 -53t-55 -22q-36 0 -57 22t-21 53l4 27q-47 33 -146 33q-180 0 -180 -240zM301 823v-71h248q70 0 92 13q23 14 23 44q0 85 30 152q-96 96 -213 96
q-90 0 -135 -63t-45 -171zM1133 170v401q0 121 -39 168l151 41v-610q0 -73 19 -170h-148q17 87 17 170z" />
    <glyph glyph-name="f_f_l" unicode="ffl" horiz-adv-x="1388" 
d="M1139 170v809q-85 78 -183 78q-180 0 -180 -240v-65h221l-8 -72h-213v-510q0 -22 2 -58q1 -10 2.5 -27t1.5 -20q1 -7 2.5 -19t1.5 -15q1 -6 3 -14l2 -8q0 -2 0.5 -4t0.5 -3l1 -2h-148q19 65 19 170v510h-363v-510q0 -22 2 -58l2.5 -27.5t1.5 -19.5q1 -7 2.5 -19t1.5 -15
q0 -4 4 -22q0 -2 0.5 -4t0.5 -3l1 -2h-147q18 62 18 170v510h-120l-5 47q125 2 125 82q0 55 15 105q17 55 47 99q34 49 98 77q65 28 158 28q58 0 127 -23q72 -24 119 -59q82 82 231 82q121 0 219 -55q43 23 49 29v-922q0 -111 19 -170h-148q17 63 17 170zM301 752h231
q76 0 103 13q29 14 29 44q0 80 28 145q-103 103 -213 103q-178 0 -178 -240v-65z" />
    <glyph glyph-name="T_h" unicode="Th" horiz-adv-x="1589" 
d="M977 598v-428q0 -21 2 -59q0 -8 1 -17l2 -18t1 -13l2.5 -17.5t1.5 -14.5t4 -22q0 -2 0.5 -4t0.5 -3l1 -2h-147q18 62 18 170v745q0 56 -61 74q-65 19 -240 19q-90 0 -98 -23v-815q0 -21 2 -59q0 -8 1 -17l2 -18t1 -13l2.5 -17.5t1.5 -14.5t4 -22q0 -2 0.5 -4t0.5 -3l1 -2
h-153q18 62 18 170v813q-16 25 -100 25q-152 0 -246 -21q4 16 8.5 37.5t7 32.5t4.5 18q44 -6 297 -6h242q223 0 296 5q63 4 122 36v-440q140 106 237 106q132 0 190 -88t58 -225v-293q0 -111 19 -170h-150q19 65 19 170v236q0 157 -41 221q-41 63 -125 63q-44 0 -110 -30
q-69 -31 -97 -62z" />
    <glyph glyph-name="f_b" unicode="fb" horiz-adv-x="1400" 
d="M664 182v797q-86 78 -183 78q-180 0 -180 -240v-65h221l-8 -72h-213v-510q0 -22 2 -58l2.5 -27.5t1.5 -19.5q1 -7 2.5 -19t1.5 -15q0 -4 4 -22q0 -2 0.5 -4t0.5 -3l1 -2h-147q18 62 18 170v510h-120l-5 45q64 1 96 27q29 23 29 57q0 73 25 140q24 65 100 117t195 52
t217 -55l51 29v-396q106 84 228 84q165 0 246 -111t81 -261q0 -196 -105 -305t-263 -109q-65 0 -141 14q-81 15 -124 15q-35 0 -55 -5q21 77 21 164zM776 618v-493q75 -70 201 -70q98 0 170 85q72 86 72 222q0 156 -60 245t-176 89q-50 0 -114 -26t-93 -52z" />
    <glyph glyph-name="f_h" unicode="fh" horiz-adv-x="1390" 
d="M664 170v809q-86 78 -183 78q-180 0 -180 -240v-65h221l-8 -72h-213v-510q0 -22 2 -58l2.5 -27.5t1.5 -19.5q1 -7 2.5 -19t1.5 -15q0 -4 4 -22q0 -2 0.5 -4t0.5 -3l1 -2h-147q18 62 18 170v510h-120l-5 45q64 1 96 27q29 23 29 57q0 73 25 140q24 65 100 117t195 52
q123 0 217 -55q44 22 51 29v-414q135 102 238 102q130 0 189 -89t59 -226v-295q0 -114 18 -170h-147q16 60 16 170v240q0 161 -40 223q-41 63 -122 63q-42 0 -108 -31q-68 -32 -103 -65v-430q0 -111 19 -170h-150q19 65 19 170z" />
    <glyph glyph-name="f_j" unicode="fj" horiz-adv-x="905" 
d="M301 817v-65h221l-8 -72h-213v-510q0 -22 2 -58l2.5 -27.5t1.5 -19.5q1 -7 2.5 -19t1.5 -15q0 -4 4 -22q0 -2 0.5 -4t0.5 -3l1 -2h-147q18 62 18 170v510h-120l-5 45q64 1 96 27q29 23 29 57q0 122 74 216q74 93 246 93q27 0 58 -4q49 -6 87 -14q54 -11 89 -37
q36 -27 36 -66q0 -31 -22 -53t-56 -22q-35 0 -56 22t-21 53l4 27q-47 33 -146 33q-180 0 -180 -240zM770 219q0 -106 -28 -204q-27 -95 -72 -158q-46 -65 -80 -100q-33 -35 -68 -60q-6 6 -10 9t-14 11t-13 11q93 111 133 221q39 108 39 297v325q0 125 -39 168l152 41v-561z
" />
    <glyph glyph-name="f_y" unicode="fy" horiz-adv-x="1255" 
d="M588 590q-23 60 -41 90h-246v-510q0 -21 2 -59q0 -8 1 -17l2 -18t1 -13l2.5 -17.5t1.5 -14.5t4 -22q0 -2 0.5 -4t0.5 -3l1 -2h-147q18 62 18 170v510h-120l-5 47q125 2 125 82q0 27 6 75q5 38 22 81q18 45 46 76q29 32 82 55q51 22 125 22q71 0 188 -39l-36 -88
q-78 66 -166 66q-154 0 -154 -223v-82h375q5 -53 14 -90q11 -45 55 -170t134 -349h8q144 387 169 461q31 94 36 148h133q-37 -49 -82 -162q-38 -92 -56 -137q-16 -41 -79 -204q-43 -112 -77 -204q-52 -142 -76 -217q-32 -101 -48 -166h-129q16 22 39 69q20 42 37 82
q4 11 10 26t15 38.5t16 40.5q7 19 15 39.5t12.5 32t6.5 16.5l-18 17q-15 34 -223 567z" />
    <glyph glyph-name="t_t" unicode="tt" horiz-adv-x="1050" 
d="M686 195v485h-373v-453q0 -149 144 -178l-13 -55q-120 1 -182 57q-61 55 -61 144v485h-123l-4 47q174 4 198 197h41v-172h230q57 0 95 8q36 8 72 48t46 116h41v-172h223l-8 -72h-215v-453q0 -150 145 -178l-14 -55q-122 2 -182 57t-60 144z" />
    <glyph glyph-name="t_y" unicode="ty" horiz-adv-x="1296" 
d="M629 590q-23 60 -41 90h-275v-453q0 -149 144 -178l-13 -55q-120 1 -182 57q-61 55 -61 144v485h-123l-4 47q174 4 198 197h41v-172h404q5 -53 13 -90q9 -42 54 -170q42 -120 136 -349h8q146 390 168 461q29 92 34 148h134l-11 -19q-5 -7 -35 -62q-22 -40 -42 -98
l-58 -143q-38 -96 -79 -203q-9 -23 -73 -196q-47 -127 -74 -210t-44 -159h-131q34 46 153 344l-18 17q-57 129 -223 567z" />
    <glyph glyph-name="t_v" unicode="tv" horiz-adv-x="1300" 
d="M864 0q-35 84 -233 590q-23 60 -41 90h-277v-453q0 -149 144 -178l-13 -55q-120 1 -182 57q-61 55 -61 144v485h-123l-4 47q174 4 198 197h41v-172h406q5 -53 14 -90q11 -45 55 -170t134 -349h8q155 419 172 469q32 93 33 140h133l-13 -19q-7 -11 -35 -63
q-23 -42 -42 -99l-224 -571h-90z" />
    <glyph glyph-name="t_w" unicode="tw" horiz-adv-x="1794" 
d="M1370 0q-10 20 -215 557q-23 -57 -88 -243q-59 -167 -117 -314h-90q-28 62 -55 134q-11 30 -39.5 104.5t-42.5 111.5q-27 72 -92 240q-23 60 -41 90h-277v-453q0 -149 144 -178l-13 -55q-120 1 -182 57q-61 55 -61 144v485h-123l-4 47q174 4 198 197h41v-172h406
q6 -70 40 -179t159 -430h8q107 304 155 451q34 104 35 158h115q12 -136 199 -609h8q118 329 154 448q31 105 36 161h133q1 0 0 -2t-4 -6.5t-8 -10.5q-16 -19 -39 -64q-24 -47 -39 -102q-34 -86 -96 -262q-61 -174 -113 -305h-92z" />
    <glyph glyph-name="f_k" unicode="fk" horiz-adv-x="1331" 
d="M776 442v-272q0 -111 19 -170h-150q19 65 19 170v809q-86 78 -183 78q-180 0 -180 -240v-65h221l-8 -72h-213v-510q0 -22 2 -58l2.5 -27.5t1.5 -19.5q1 -7 2.5 -19t1.5 -15q0 -4 4 -22q0 -2 0.5 -4t0.5 -3l1 -2h-147q18 62 18 170v510h-120l-5 45q64 1 96 27q29 23 29 57
q0 73 25 140q24 65 100 117t195 52q123 0 217 -55q44 22 51 29v-586h8q170 158 246 207q88 54 174 65l19 -110q-10 2 -25 2q-165 0 -324 -183q99 -153 237 -305q133 -147 196 -182h-166q-140 126 -355 442h-10z" />
    <glyph glyph-name=".notdef" horiz-adv-x="942" 
d="M113 0v1069h727v-1069h-727zM475 590l258 407h-514zM510 535l266 -420v837zM176 115l262 420l-262 419v-839zM219 72h514l-258 407z" />
    <glyph glyph-name=".null" horiz-adv-x="0" 
 />
    <glyph glyph-name=".null" horiz-adv-x="0" 
 />
    <glyph glyph-name="nonmarkingreturn" horiz-adv-x="681" 
 />
    <glyph glyph-name="CR" unicode="&#xd;" horiz-adv-x="362" 
 />
    <glyph glyph-name="space" unicode=" " horiz-adv-x="512" 
 />
    <glyph glyph-name="exclam" unicode="!" horiz-adv-x="360" 
d="M123 700v369h119v-369l-37 -440h-53zM115 59q0 27 20 47q21 21 47 21t47 -21t21 -47t-20 -46q-19 -19 -48 -19t-48 19t-19 46z" />
    <glyph glyph-name="quotedbl" unicode="&#x22;" horiz-adv-x="462" 
d="M344 1200q-114 -293 -115 -297l-39 10l54 287h100zM182 1200l-112 -297l-39 10q22 110 51 287h100z" />
    <glyph glyph-name="numbersign" unicode="#" horiz-adv-x="950" 
d="M141 616l13 64h163l50 233h77l-51 -233h240l51 233h78l-51 -233h157q-7 -38 -14 -64h-158q-45 -193 -47 -204h160l-12 -64h-164q-40 -140 -62 -260h-75l59 260h-240l-59 -260h-76l56 260h-154q5 29 14 64h158q27 119 45 204h-158zM381 616q-2 -8 -8.5 -34.5t-17.5 -73
t-23 -96.5h239q45 193 47 204h-237z" />
    <glyph glyph-name="dollar" unicode="$" horiz-adv-x="837" 
d="M362 -135v178h-12q-62 0 -128 20t-107 50q4 9 10 50t10 50q23 -44 91 -79q66 -34 136 -36v402q-47 24 -87 47q-30 17 -71 52q-42 36 -59 77q-18 44 -18 96q0 96 62 162q63 68 173 84v100h68v-96l45 -6q87 -12 154 -47l-19 -78q-83 67 -180 74v-379q63 -33 90 -48t71 -50
q45 -36 62 -74q19 -43 19 -95q0 -104 -64 -177q-63 -72 -178 -93v-184h-68zM567 276q0 109 -137 187v-357q61 12 100 58q37 44 37 112zM225 813q0 -112 137 -195v345q-64 -10 -101 -53q-36 -42 -36 -97z" />
    <glyph glyph-name="percent" unicode="%" horiz-adv-x="1515" 
d="M1049 1092l-535 -1151l-45 22l535 1149q1 -1 45 -20zM389 1079q109 0 170 -96q62 -97 62 -221q0 -117 -62 -217q-61 -99 -170 -99q-111 0 -171 95t-60 221q0 120 61 218q61 99 170 99zM377 1040q-70 -2 -103 -74q-32 -70 -32 -178q0 -120 42 -210q42 -91 117 -91
q65 0 100 71q34 69 34 177q0 126 -40 215q-41 90 -118 90zM1120 625q108 0 169 -97q61 -98 61 -219q0 -116 -61 -217q-59 -98 -169 -98q-111 0 -171 94q-60 95 -60 221q0 119 61 217q61 99 170 99zM1108 586q-69 -1 -102 -73q-33 -71 -33 -177q0 -119 41 -212
q40 -91 116 -91q68 0 102 70q34 69 34 178q0 126 -40 215q-40 90 -118 90z" />
    <glyph glyph-name="ampersand" unicode="&#x26;" horiz-adv-x="1236" 
d="M317 858q0 97 59 154q58 57 146 57q82 0 134 -43q53 -44 53 -121q0 -53 -36 -103q-37 -51 -74 -79q-33 -25 -110 -78q128 -243 353 -446q51 91 51 190q0 116 -43 223h123q0 -5 -1 -13t-1 -17q0 -3 0.5 -8.5t1 -16t0.5 -18.5q2 -44 2 -60q0 -177 -96 -311
q163 -133 292 -133q22 0 37 4q0 -5 1 -8t1 -6q-76 -31 -155 -31q-101 0 -242 102q-121 -102 -311 -102q-165 0 -270 84t-105 223q0 107 66 179q72 78 186 153q-62 129 -62 225zM240 342q0 -123 91 -207t218 -84q134 0 225 74q-226 189 -371 461q-163 -114 -163 -244z
M631 889q0 53 -28 92q-27 37 -83 37q-53 0 -83 -32q-29 -30 -29 -87q0 -84 59 -211q164 107 164 201z" />
    <glyph glyph-name="quotesingle" unicode="'" horiz-adv-x="122" 
d="M182 1200l-112 -297l-39 10q22 110 51 287h100z" />
    <glyph glyph-name="parenleft" unicode="(" horiz-adv-x="534" 
d="M82 401q0 215 106 406q106 192 306 340l14 -14q-147 -118 -221 -312q-74 -193 -74 -420q0 -226 74 -419q74 -194 221 -312l-14 -14q-200 148 -306 340q-106 191 -106 405z" />
    <glyph glyph-name="parenright" unicode=")" horiz-adv-x="569" 
d="M471 401q0 -213 -105 -405q-105 -191 -305 -340l-14 14q148 119 220 312q73 195 73 419q0 225 -73 420q-72 193 -220 312l14 14q200 -149 305 -340q105 -192 105 -406z" />
    <glyph glyph-name="asterisk" unicode="*" horiz-adv-x="540" 
d="M270 883l-120 -133q-2 2 -6.5 5.5t-6.5 4.5q-10 8 -14 11t-10 9l86 156l-156 74q1 6 8 23q6 16 8 24q66 -21 168 -45l21 155h51l18 -155q107 28 166 45q6 -10 10 -25l4.5 -13.5t2.5 -8.5l-84 -42q-14 -7 -31.5 -15.5t-27.5 -13.5t-15 -7q18 -32 90 -152q-10 -6 -39 -30z
" />
    <glyph glyph-name="plus" unicode="+" horiz-adv-x="987" 
d="M532 778v-336h324v-75h-324v-336h-79v336h-322v75h322v336h79z" />
    <glyph glyph-name="comma" unicode="," horiz-adv-x="307" 
d="M88 -2q-47 11 -47 61q0 27 19 47q20 21 46 21q30 0 49 -19t19 -49q0 -121 -180 -266l-12 17q47 46 74 99q28 55 32 89z" />
    <glyph glyph-name="hyphen" unicode="-" horiz-adv-x="665" 
d="M537 494v-80h-412v80h412z" />
    <glyph glyph-name="period" unicode="." horiz-adv-x="264" 
d="M41 59q0 27 19 47q20 21 46 21q30 0 49 -21q19 -20 19 -47t-19 -46t-49 -19q-27 0 -46 19t-19 46z" />
    <glyph glyph-name="slash" unicode="/" horiz-adv-x="561" 
d="M504 1118l-385 -1245h-84l102 334q51 169 117 382q59 191 97 315q64 212 65 214h88z" />
    <glyph glyph-name="zero" unicode="0" horiz-adv-x="903" 
d="M455 1079q175 0 266 -161q92 -163 92 -383q0 -133 -36 -252t-120 -204t-202 -85q-120 0 -206 80q-84 78 -122 198q-37 117 -37 263q0 134 37 252q38 121 123 206q86 86 205 86zM436 1020q-110 -6 -163 -129q-52 -122 -52 -309q0 -209 67 -369q66 -158 183 -158
q106 0 159 122q52 120 52 306q0 111 -14 198q-16 96 -43 170q-28 76 -77 123q-47 46 -112 46z" />
    <glyph glyph-name="one" unicode="1" horiz-adv-x="647" 
d="M414 1079v-909q0 -114 18 -170h-156q19 65 19 170v678q-5 92 -68 92q-18 0 -121 -16l-10 41q155 51 318 114z" />
    <glyph glyph-name="two" unicode="2" horiz-adv-x="872" 
d="M705 807q0 -129 -92 -278q-91 -148 -375 -420h321q138 0 197 49l-29 -162q-99 4 -229 4h-449l-6 20q87 78 166 155q68 66 167 179q98 112 153 224q55 113 55 206q0 112 -52 173t-147 61q-135 0 -242 -98l-32 88q149 71 276 71q154 0 235 -74q83 -75 83 -198z" />
    <glyph glyph-name="three" unicode="3" horiz-adv-x="768" 
d="M633 850q0 -88 -62 -152q-63 -64 -131 -94q0 -3 1 -4t1 -4q90 -12 163 -79t73 -173q0 -94 -57 -185q-56 -90 -148 -159t-189 -116q-95 -46 -192 -70q-1 2 -2.5 6t-2.5 6t-2.5 6t-2.5 6q194 68 330 206q137 139 137 292q0 113 -62 163t-153 50h-62l-5 25q-3 15 -3 22
q115 23 186 85q72 63 72 159q0 79 -53 129q-52 49 -143 49q-135 0 -242 -98l-35 88q155 71 279 71q148 0 224 -64q76 -65 81 -165z" />
    <glyph glyph-name="four" unicode="4" horiz-adv-x="933" 
d="M59 285l617 786h10v-737q139 4 178 12v-100q-99 12 -178 12v-88q0 -111 19 -170h-154q18 62 18 170v88h-510v27zM186 334h383v495z" />
    <glyph glyph-name="five" unicode="5" horiz-adv-x="770" 
d="M551 336q0 139 -124 218q-123 78 -316 83l92 432h192q66 0 101 1q16 0 46 0.5t43 1.5q24 1 40 1l28 -164q-56 49 -194 49h-205q-4 -17 -10 -46t-16 -79.5t-19 -91.5q211 -21 338 -121q131 -102 131 -276q0 -96 -57 -188q-57 -91 -148 -158q-93 -68 -187 -113
q-100 -48 -192 -71q-5 10 -10 28q193 69 330 205q137 135 137 289z" />
    <glyph glyph-name="six" unicode="6" horiz-adv-x="897" 
d="M799 1278l16 -35q-229 -96 -379 -255q-149 -158 -188 -363q128 75 274 75q125 0 226 -89q100 -88 100 -251q0 -149 -95 -258q-95 -108 -268 -108q-168 0 -280 112q-113 113 -113 328q0 282 197 502q197 219 510 342zM233 473q0 -229 72 -322q73 -94 203 -94q90 0 155 73
q64 71 64 200t-80 207q-78 77 -182 77q-134 0 -227 -65q-5 -58 -5 -76z" />
    <glyph glyph-name="seven" unicode="7" horiz-adv-x="790" 
d="M737 1069l11 -18l-484 -1051h-137q249 406 502 958h-314q-137 0 -196 -49l31 164q99 -4 227 -4h360z" />
    <glyph glyph-name="eight" unicode="8" horiz-adv-x="888" 
d="M721 860q0 -130 -193 -258q124 -86 184 -152q64 -70 64 -159q0 -123 -91 -210t-241 -87q-165 0 -251 80q-87 81 -87 194q0 182 252 312q-92 69 -140 128q-48 58 -48 128q0 124 84 184q83 59 190 59q119 0 197 -59q80 -60 80 -160zM653 252q0 75 -61 137q-67 69 -184 150
q-193 -115 -193 -263q0 -98 66 -158q67 -61 165 -61q86 0 147 52q60 51 60 143zM289 868q0 -56 47 -109q45 -51 141 -118q154 92 154 209q0 82 -53 123t-117 41q-72 0 -122 -38t-50 -108z" />
    <glyph glyph-name="nine" unicode="9" horiz-adv-x="940" 
d="M133 -195l-12 33q221 80 368 245q148 166 191 357q-122 -69 -264 -69q-125 0 -226 89q-100 88 -100 251q0 150 100 259t275 109q166 0 275 -103q110 -104 110 -296q0 -298 -204 -533t-513 -342zM442 1014q-92 0 -161 -74q-70 -75 -70 -199q0 -128 81 -206t183 -78
q128 0 217 67q15 76 15 154q0 142 -61 240q-60 96 -204 96z" />
    <glyph glyph-name="colon" unicode=":" horiz-adv-x="264" 
d="M41 59q0 27 19 47q20 21 46 21q30 0 49 -21q19 -20 19 -47t-19 -46t-49 -19q-27 0 -46 19t-19 46zM41 684q0 27 19 47q20 21 46 21q29 0 49 -20q19 -19 19 -48t-19 -48q-20 -20 -49 -20q-26 0 -46 21q-19 20 -19 47z" />
    <glyph glyph-name="semicolon" unicode=";" horiz-adv-x="264" 
d="M88 -2q-47 11 -47 61q0 27 19 47q20 21 46 21q30 0 49 -19t19 -49q0 -121 -180 -266l-12 17q47 46 74 99q28 55 32 89zM45 684q0 28 20 48t46 20q28 0 48 -20q19 -19 19 -48t-19 -48q-20 -20 -48 -20q-26 0 -46 20t-20 48z" />
    <glyph glyph-name="less" unicode="&#x3c;" horiz-adv-x="952" 
d="M786 84l-655 346v53l653 351l37 -60l-590 -319l590 -316q0 -3 -14 -23q-14 -19 -21 -32z" />
    <glyph glyph-name="equal" unicode="=" horiz-adv-x="1024" 
d="M893 569h-762v78h762v-78zM893 295h-762v76h762v-76z" />
    <glyph glyph-name="greater" unicode="&#x3e;" horiz-adv-x="952" 
d="M164 834l657 -349v-53l-653 -348l-37 55l592 320l-592 315z" />
    <glyph glyph-name="question" unicode="?" horiz-adv-x="690" 
d="M600 874q-1 -77 -35 -138q-33 -60 -82 -103q-55 -49 -97 -89q-48 -47 -86 -119q-38 -73 -44 -165h-51q1 88 33 167q31 76 70 126q40 51 81 96q42 47 69 99t27 112q0 70 -50 114t-126 44q-111 0 -211 -94l-30 84q133 71 243 71q125 0 206 -59q83 -60 83 -146zM158 59
q0 30 19 49t46 19q26 0 47 -21t21 -47t-20 -46q-19 -19 -48 -19q-27 0 -46 19t-19 46z" />
    <glyph glyph-name="at" unicode="@" horiz-adv-x="1466" 
d="M1004 -80l18 -33q-134 -82 -311 -82q-278 0 -424 149t-146 365q0 120 46 237q47 120 130 213q85 96 213 154t283 58q240 0 363 -124q122 -123 122 -296q0 -169 -106 -296q-107 -128 -277 -128q-49 0 -80 34q-32 35 -32 93q0 41 10 74h-8q-123 -186 -227 -186
q-48 0 -81 33q-34 34 -34 112q0 64 27 133q26 67 78 133q51 65 133 105q84 41 184 41q16 0 43 -3q7 -1 23 -3l24 -3l18 -4q-98 -293 -98 -420q0 -86 57 -86q109 0 181 102q71 101 71 236q0 162 -107 275q-109 115 -323 115q-151 0 -273 -87q-119 -85 -178 -215t-59 -270
q0 -200 121 -334q121 -135 352 -135q154 0 267 43zM870 639q-24 12 -79 12q-89 0 -159 -103q-71 -104 -71 -239q0 -71 53 -71q21 0 46 16q28 18 62 55q35 38 76 124q38 79 72 206z" />
    <glyph glyph-name="A" unicode="A" horiz-adv-x="962" 
d="M948 0h-196q8 24 8 59q0 19 -8 53q-7 29 -20 60q-9 22 -34 93q-11 31 -41 114h-399q-8 -24 -32 -84q-7 -19 -17 -45t-12 -31q-8 -22 -22 -59q-8 -23 -15 -56q-4 -20 -4 -41q0 -33 6 -63h-156q55 89 103 209l352 881h49l338 -885q46 -130 100 -205zM457 893l-174 -449h350
l-168 449h-8z" />
    <glyph glyph-name="B" unicode="B" horiz-adv-x="970" 
d="M467 -6q-61 0 -105 3t-90 3h-77q18 62 18 170v727q0 117 -18 172h75q44 0 120 3t112 3q150 0 229 -67q80 -68 80 -172q0 -106 -65 -176q-65 -69 -148 -93v-8q124 -12 204 -80q79 -67 79 -170q0 -138 -98 -227q-97 -88 -316 -88zM330 516v-377q0 -55 40 -70
q43 -16 122 -16q102 0 183 60t81 178q0 229 -297 229zM330 981v-397q74 -2 90 -2q272 0 272 233q0 201 -223 201q-43 0 -89 -10q-49 -11 -50 -25z" />
    <glyph glyph-name="C" unicode="C" horiz-adv-x="1105" 
d="M684 -6q-168 0 -290 48q-123 48 -185 130q-65 85 -91 171q-28 92 -28 194q0 245 154 394q152 148 381 148q200 0 370 -59l-26 -90q-146 88 -322 88q-212 0 -323 -122t-111 -325q0 -217 119 -368q118 -150 364 -150q168 0 326 119q27 -63 35 -86q-202 -92 -373 -92z" />
    <glyph glyph-name="D" unicode="D" horiz-adv-x="1150" 
d="M455 -6q-49 0 -101 3t-80 3h-79q16 60 16 170v727q0 54 -4 90q-6 51 -8 62l-4 20h75q35 0 110 3t161 3q267 0 403 -126q137 -126 137 -374q0 -285 -165 -433q-164 -148 -461 -148zM330 983v-862q0 -38 38 -53t134 -15q225 0 341 142q115 140 115 358q0 221 -100 342
t-334 121q-64 0 -115 -8q-42 -7 -65 -17z" />
    <glyph glyph-name="E" unicode="E" horiz-adv-x="888" 
d="M330 532v-364q0 -73 20 -90q22 -19 107 -19q224 0 381 37l-19 -100q-165 4 -545 4h-79q18 62 18 170v727q0 99 -18 172q551 0 618 8q-11 -54 -20 -90q-105 21 -328 21q-36 0 -80 -6q-27 -4 -44 -10q-11 -4 -11 -9v-385q271 0 368 10l-20 -88q-124 12 -348 12z" />
    <glyph glyph-name="F" unicode="F" horiz-adv-x="823" 
d="M330 532v-362q0 -21 2 -59q1 -26 5 -48q5 -27 5 -32q0 -4 4 -22q0 -2 0.5 -4t1.5 -3v-2h-153q18 62 18 170v727q0 99 -18 172q551 0 618 8q-11 -54 -20 -90q-105 21 -328 21q-36 0 -80 -6q-27 -4 -44 -10q-11 -4 -11 -9v-385q271 0 368 10l-20 -88q-124 12 -348 12z" />
    <glyph glyph-name="G" unicode="G" horiz-adv-x="1130" 
d="M684 -6q-168 0 -290 48q-123 48 -185 130q-65 85 -91 171q-28 92 -28 194q0 245 154 394q152 148 381 148q200 0 370 -59l-26 -90q-146 88 -322 88q-211 0 -322 -122q-112 -123 -112 -325q0 -217 119 -368q118 -150 364 -150q80 0 132 30q53 30 53 91v115q0 111 -19 170
h156q-19 -59 -19 -170v-78q0 -124 13 -150q-35 -7 -89 -25t-114 -31q-51 -11 -125 -11z" />
    <glyph glyph-name="H" unicode="H" horiz-adv-x="1179" 
d="M330 897v-299h518v299q0 94 -19 172h156q-18 -63 -18 -172v-727q0 -114 18 -170h-156q19 65 19 170v367h-518v-367q0 -114 18 -170h-153q18 62 18 170v727q0 52 -4 88q-6 54 -8 64l-6 20h153q-18 -63 -18 -172z" />
    <glyph glyph-name="I" unicode="I" horiz-adv-x="542" 
d="M330 897v-727q0 -114 18 -170h-153q16 60 16 170v727q0 54 -4 90q-6 51 -8 62l-4 20h153q-18 -63 -18 -172z" />
    <glyph glyph-name="J" unicode="J" horiz-adv-x="516" 
d="M313 897v-594q0 -224 -55 -361q-56 -138 -201 -210l-18 26q104 72 130 198q26 128 26 402v539q0 94 -19 172h156q-19 -67 -19 -172z" />
    <glyph glyph-name="K" unicode="K" horiz-adv-x="1046" 
d="M330 897v-313h8q326 350 360 393q52 64 52 92h170q-56 -30 -127 -103q-74 -76 -344 -368q92 -127 282 -347q194 -224 260 -251h-200q-37 45 -144 177q-154 191 -191 235q-84 100 -126 139v-381q0 -114 18 -170h-153q18 62 18 170v727q0 52 -4 88q-6 54 -8 64l-6 20h153
q-18 -63 -18 -172z" />
    <glyph glyph-name="L" unicode="L" horiz-adv-x="888" 
d="M819 -6l-624 6q18 62 18 170v727q0 99 -18 172h153q-18 -63 -18 -172v-727q0 -75 20 -92q22 -19 107 -19q224 0 381 37z" />
    <glyph glyph-name="M" unicode="M" horiz-adv-x="1452" 
d="M346 1069l367 -872h8l362 872h91l116 -891q15 -127 39 -178h-160q11 39 11 72q0 4 -8 60q-2 15 -6.5 47.5t-12.5 91t-15 112.5q0 2 -24.5 179t-38.5 282h-8l-350 -844h-55l-353 844h-8q-86 -641 -86 -744q0 -57 8 -100h-139q15 22 33 92q20 91 55 319q27 178 53 384
q21 167 21 178q0 43 -27 96h127z" />
    <glyph glyph-name="N" unicode="N" horiz-adv-x="1193" 
d="M1004 -2h-17q-117 141 -230 275q-108 128 -334 400q-146 176 -151 189h-8v-575q0 -184 25 -287h-125q24 86 24 287v665q0 21 -4 40q-7 33 -8 36l-8 29l-4 12h90l668 -807h8v518q0 210 -27 289h125q-24 -113 -24 -289v-782z" />
    <glyph glyph-name="O" unicode="O" horiz-adv-x="1191" 
d="M90 537q0 238 148 391q147 151 358 151q135 0 238 -50q100 -49 157 -133q56 -84 83 -174q28 -95 28 -185q0 -237 -149 -391q-148 -152 -357 -152q-135 0 -238 50q-99 48 -158 133q-55 80 -83 173q-27 90 -27 187zM580 1018q-163 0 -265 -123t-102 -322q0 -87 18 -169
q17 -79 61 -165q43 -84 125 -135t197 -51q158 0 262 128q103 127 103 327q0 83 -18 166q-17 78 -61 163q-42 81 -125 131t-195 50z" />
    <glyph glyph-name="P" unicode="P" horiz-adv-x="903" 
d="M428 416l-98 12v-258q0 -114 18 -170h-153q18 62 18 170v727q0 99 -18 172h90q35 0 87 4t120 4q172 0 267 -80t95 -237q0 -160 -125 -252t-301 -92zM330 981v-498q43 -10 88 -10q126 0 213 67q86 66 86 216q0 128 -69 194t-181 66q-53 0 -93 -11q-44 -12 -44 -24z" />
    <glyph glyph-name="Q" unicode="Q" horiz-adv-x="1241" 
d="M90 537q0 238 148 391q147 151 358 151q135 0 238 -50q100 -49 157 -133q56 -84 83 -174q28 -95 28 -185q0 -164 -73 -292q-72 -126 -198 -194q74 -64 281 -141q204 -76 354 -82q-47 -29 -141 -29q-178 0 -343 56q-162 55 -261 151q-85 -12 -125 -12q-135 0 -238 50
q-99 48 -158 133q-55 80 -83 173q-27 90 -27 187zM580 1018q-163 0 -265 -123t-102 -322q0 -87 18 -169q17 -79 61 -165q43 -84 125 -135t197 -51q158 0 262 128q103 127 103 327q0 83 -18 166q-17 78 -61 163q-42 81 -125 131t-195 50z" />
    <glyph glyph-name="R" unicode="R" horiz-adv-x="1052" 
d="M612 492q46 -71 110 -159q60 -83 164 -193q105 -111 175 -132v-8h-193q-22 10 -51 36q-28 25 -61 64q-28 33 -60 74q-3 3 -62 85q-24 33 -54 78l-50 74q-32 49 -32 50q-38 -2 -74 -2h-94v-289q0 -114 18 -170h-153q16 60 16 170v727q0 54 -4 90q-6 51 -8 62l-4 20h75
q34 0 98 4t124 4q337 0 337 -297q0 -106 -59 -178q-59 -73 -158 -110zM330 981v-457q22 -6 84 -6q286 0 286 248q0 125 -61 187q-62 63 -172 63q-53 0 -93 -11q-44 -12 -44 -24z" />
    <glyph glyph-name="S" unicode="S" horiz-adv-x="817" 
d="M379 53q100 0 159 52q60 53 60 145q0 76 -51 131q-50 55 -124 93q-74 39 -145 77q-74 40 -124 103q-52 66 -52 153q0 115 91 194q90 78 241 78q117 0 228 -59q-5 -55 -9 -82q-35 28 -102 54q-69 26 -137 26q-95 0 -148 -50t-53 -120q0 -79 51 -136q49 -55 125 -92
q147 -72 149 -73q76 -38 126 -100q51 -63 51 -148q0 -134 -97 -220q-95 -85 -260 -85q-69 0 -144 22t-118 54q0 9 -1 19t-1 24q0 30 4 57q6 39 8 47l3 19q25 -87 102 -135q78 -48 168 -48z" />
    <glyph glyph-name="T" unicode="T" horiz-adv-x="811" 
d="M465 170q0 -114 18 -170h-155q18 62 18 170v817q-16 21 -98 21q-152 0 -246 -21l18 88q43 -6 316 -6h137q289 0 338 6q-1 -21 -10 -88q-95 21 -236 21q-92 0 -100 -23v-815z" />
    <glyph glyph-name="U" unicode="U" horiz-adv-x="1163" 
d="M309 897v-408q0 -235 78 -329t236 -94q165 0 237 106t72 332v276q0 130 -27 289h123q-24 -113 -24 -289v-295q0 -233 -96 -363q-95 -128 -314 -128q-404 0 -404 469v434q0 54 -4 90q-6 51 -8 62l-4 20h154q-19 -67 -19 -172z" />
    <glyph glyph-name="V" unicode="V" horiz-adv-x="954" 
d="M494 184h8q45 119 87 227q19 49 71 183q7 18 25 64t28 72q19 49 40 108l24 72q10 30 16 56q4 17 4 35q0 45 -6 68h155q-45 -67 -102 -213l-346 -862h-54l-329 868q-50 133 -101 207h197q-8 -30 -8 -68q0 -5 2 -21q0 -1 7 -31q4 -18 12 -40q2 -7 9.5 -26.5t11.5 -31.5
q2 -5 11.5 -33t15.5 -43q5 -14 18 -48.5t20 -52.5q16 -42 48 -128q9 -24 30.5 -80.5t31.5 -82.5q14 -38 40.5 -108.5t33.5 -90.5z" />
    <glyph glyph-name="W" unicode="W" horiz-adv-x="1576" 
d="M1137 184h8q70 201 107 302q21 58 48.5 133t33.5 92q17 46 49 138q22 64 31 99q7 28 7 53q0 45 -6 68h152q-39 -57 -105 -231l-319 -844h-53l-299 840l-320 -840h-53l-309 868q-59 154 -95 207h197q-8 -30 -8 -68q0 -34 33 -136q42 -129 137 -408q54 -150 94 -273h8
q107 300 137 381q77 209 98 272q26 76 33 115q-25 67 -57 117h205q-12 -24 -12 -72q0 -53 114 -389q11 -37 70 -205q20 -60 74 -219z" />
    <glyph glyph-name="X" unicode="X" horiz-adv-x="1026" 
d="M1001 0h-202q-15 74 -310 506q-19 -30 -90 -133q-39 -57 -103 -154q-38 -57 -75 -123q-37 -65 -43 -96h-158q137 153 424 567q-16 21 -120 177q-90 134 -145 208q-59 79 -101 117h205q17 -72 235 -391q248 347 258 391h148q-89 -65 -363 -459q4 -6 30.5 -44.5t49.5 -73.5
q93 -138 99 -147q14 -20 46 -65t47 -66q60 -85 96 -130q48 -60 72 -84z" />
    <glyph glyph-name="Y" unicode="Y" horiz-adv-x="972" 
d="M506 508q176 286 231 387q56 101 56 141q0 20 -5 33h158q-12 -12 -27 -36q-5 -8 -22 -33.5t-27 -41.5q-7 -11 -69 -110q-2 -3 -112 -177q-83 -132 -154 -245v-256q0 -114 18 -170h-156q19 65 19 170v254q-90 154 -149 258q-18 32 -41.5 73.5t-38 67t-23.5 41.5
q-27 49 -61 106q-33 55 -42 68q-14 21 -24 31h196q-4 -9 -4 -22q0 -40 49 -136q50 -99 220 -403h8z" />
    <glyph glyph-name="Z" unicode="Z" horiz-adv-x="987" 
d="M885 1069v-31l-621 -913q-24 -37 -24 -43q0 -23 137 -23q329 0 489 37l-18 -102q-441 6 -797 6v27l658 960q0 2 -41 7q-65 7 -102 10q-53 4 -107 4q-242 0 -350 -21l8 90q54 -8 768 -8z" />
    <glyph glyph-name="bracketleft" unicode="[" horiz-adv-x="499" 
d="M459 1116q-4 -30 -17 -72q-79 7 -206 7v-1282q139 0 208 6l15 -72q-57 10 -330 10q14 59 14 291v811q0 232 -14 291q256 0 330 10z" />
    <glyph glyph-name="backslash" unicode="\" horiz-adv-x="593" 
d="M453 -127l-385 1245h88l381 -1245h-84z" />
    <glyph glyph-name="bracketright" unicode="]" horiz-adv-x="460" 
d="M47 1042q-7 34 -16 72q59 -10 329 -10q-12 -68 -12 -291v-811q0 -224 12 -291q-270 0 -327 -10q7 45 14 72q69 -6 207 -6v1282q-127 0 -207 -7z" />
    <glyph glyph-name="asciicircum" unicode="^" horiz-adv-x="876" 
d="M813 281h-115l-264 585l-268 -585h-103l332 725h84z" />
    <glyph glyph-name="underscore" unicode="_" horiz-adv-x="993" 
d="M909 -27h-825v78h825v-78z" />
    <glyph glyph-name="grave" unicode="`" horiz-adv-x="342" 
d="M168 1118l121 -227l-41 -27l-228 254h148z" />
    <glyph glyph-name="a" unicode="a" horiz-adv-x="851" 
d="M735 0h-141l-4 137h-8q-83 -143 -271 -143q-106 0 -169 51q-62 50 -62 127q0 211 504 250v80q0 215 -170 215q-104 0 -211 -109q-14 22 -43 72q133 100 286 100q250 0 250 -286v-340q0 -42 12 -92q12 -51 27 -62zM201 174q0 -46 39 -80q40 -35 98 -35q95 0 171 73
q75 72 75 235q-383 -29 -383 -193z" />
    <glyph glyph-name="b" unicode="b" horiz-adv-x="915" 
d="M178 182v727q0 125 -39 168l152 41v-422q106 84 227 84q115 0 190 -59q76 -60 106 -139q30 -80 30 -174q0 -194 -106 -305q-105 -109 -263 -109q-65 0 -139 14q-80 15 -123 15q-37 0 -55 -5q20 73 20 164zM291 618v-493q75 -70 198 -70q98 0 170 85q72 86 72 222
q0 157 -58 245q-59 89 -175 89q-52 0 -116 -26q-66 -27 -91 -52z" />
    <glyph glyph-name="c" unicode="c" horiz-adv-x="835" 
d="M721 186l33 -30q-122 -162 -305 -162q-149 0 -251 118t-102 275q0 168 107 281q106 112 260 112q183 0 285 -125q-54 -42 -80 -59q-78 121 -215 121q-87 0 -163 -78q-77 -79 -77 -225q0 -168 85 -252q86 -84 198 -84t225 108z" />
    <glyph glyph-name="d" unicode="d" horiz-adv-x="933" 
d="M653 909q0 125 -39 168l152 41v-948q0 -88 18 -170h-125l-6 72q-95 -78 -204 -78q-149 0 -250 116t-101 277q0 167 106 281q105 112 259 112q101 0 190 -55v184zM496 78q78 0 157 61v482q-82 96 -200 96q-90 0 -166 -79t-76 -228q0 -170 87 -251t198 -81z" />
    <glyph glyph-name="e" unicode="e" horiz-adv-x="858" 
d="M721 186l33 -30q-122 -162 -305 -162q-148 0 -250 120q-103 121 -103 273q0 162 104 278q103 115 263 115q137 0 220 -86t83 -200q0 -80 -64 -80h-489q0 -163 82 -249q83 -87 194 -87q119 0 232 108zM453 717q-79 0 -149 -63q-71 -63 -87 -173h406q21 0 28 7q8 8 8 32
q0 83 -55 139q-56 58 -151 58z" />
    <glyph glyph-name="f" unicode="f" horiz-adv-x="514" 
d="M188 170v510h-120l-5 47q125 2 125 82q0 27 6 75q5 38 22 81q18 45 46 76q29 32 82 55q51 22 125 22q71 0 188 -39l-36 -88q-78 66 -166 66q-154 0 -154 -223v-82h221l-8 -72h-213v-510q0 -21 2 -59q0 -8 1 -17l2 -18t1 -13l2.5 -17.5t1.5 -14.5t4 -22q0 -2 0.5 -4
t0.5 -3l1 -2h-147q18 62 18 170z" />
    <glyph glyph-name="g" unicode="g" horiz-adv-x="897" 
d="M653 2q0 18 -1 32t-1 32q-101 -72 -202 -72q-149 0 -250 116t-101 277q0 167 106 281q105 112 259 112q104 0 194 -57l9 29h118q-18 -56 -18 -150v-622q0 -148 -100 -241t-250 -93q-197 0 -318 100l43 86q56 -58 138 -88q81 -29 137 -29q93 0 166 71q71 70 71 185v31z
M498 78q79 0 155 61v482q-78 96 -200 96q-90 0 -166 -79t-76 -228q0 -170 87 -251t200 -81z" />
    <glyph glyph-name="h" unicode="h" horiz-adv-x="905" 
d="M178 170v739q0 123 -39 170l152 39v-440q135 102 237 102q131 0 190 -89q58 -88 58 -226v-295q0 -111 19 -170h-150q19 65 19 170v240q0 161 -40 223q-41 63 -122 63q-45 0 -111 -31t-100 -65v-430q0 -88 18 -170h-147q16 81 16 170z" />
    <glyph glyph-name="i" unicode="i" horiz-adv-x="434" 
d="M178 170v401q0 121 -39 168l152 41v-610q0 -96 18 -170h-147q16 81 16 170zM154 1001q0 36 22 58t55 22q36 0 58 -22t22 -58q0 -33 -22 -55t-58 -22q-35 0 -56 21t-21 56z" />
    <glyph glyph-name="j" unicode="j" horiz-adv-x="434" 
d="M291 219v561q-49 -15 -152 -41q39 -43 39 -168v-325q0 -189 -39 -297q-40 -110 -133 -221l37 -31q35 25 68 60q30 31 79 100q46 65 73 158q28 98 28 204zM154 1001q0 36 22 58t55 22q36 0 58 -22t22 -58q0 -33 -22 -55t-58 -22q-35 0 -56 21t-21 56z" />
    <glyph glyph-name="k" unicode="k" horiz-adv-x="843" 
d="M178 170v739q0 123 -39 170l152 39v-612h8q165 155 236 201q94 60 184 71l18 -110q-10 2 -26 2q-161 0 -324 -183q105 -157 239 -305q135 -149 193 -182h-164q-131 113 -354 442h-10v-272q0 -88 18 -170h-147q16 81 16 170z" />
    <glyph glyph-name="l" unicode="l" horiz-adv-x="432" 
d="M178 170v739q0 123 -39 170l152 39v-948q0 -88 18 -170h-147q16 81 16 170z" />
    <glyph glyph-name="m" unicode="m" horiz-adv-x="1368" 
d="M178 170v401q0 125 -39 168l152 41v-102q135 102 237 102q141 0 207 -118q157 118 258 118q131 0 190 -89q58 -88 58 -226v-295q0 -111 19 -170h-148q16 60 16 170v240q0 162 -39 223q-41 63 -122 63q-42 0 -108 -30q-65 -30 -101 -64q18 -66 18 -137v-295
q0 -111 19 -170h-150q19 65 19 170v240q0 161 -40 223q-41 63 -122 63q-45 0 -111 -31t-100 -65v-430q0 -88 18 -170h-147q16 81 16 170z" />
    <glyph glyph-name="n" unicode="n" horiz-adv-x="905" 
d="M178 170v401q0 125 -39 168l152 41v-102q135 102 237 102q131 0 190 -89q58 -88 58 -226v-295q0 -111 19 -170h-150q19 65 19 170v240q0 161 -40 223q-41 63 -122 63q-45 0 -111 -31t-100 -65v-430q0 -88 18 -170h-147q16 81 16 170z" />
    <glyph glyph-name="o" unicode="o" horiz-adv-x="927" 
d="M98 387q0 171 107 283q106 110 258 110q97 0 171 -37q76 -38 116 -97q40 -60 60 -126q19 -64 19 -133q0 -175 -106 -284t-258 -109q-97 0 -171 37q-77 39 -116 96q-41 61 -60 125q-20 68 -20 135zM453 717q-103 0 -172 -86q-70 -87 -70 -221q0 -58 12 -115
q11 -53 40 -114q26 -56 83 -91q56 -35 129 -35q103 0 172 86q70 87 70 224q0 56 -12 113q-11 51 -40 113q-26 56 -83 91q-56 35 -129 35z" />
    <glyph glyph-name="p" unicode="p" horiz-adv-x="942" 
d="M178 -166v737q0 125 -39 168l152 41v-84q106 84 227 84q115 0 190 -59q76 -60 106 -139q30 -80 30 -174q0 -194 -106 -305q-105 -109 -263 -109q-89 0 -184 53v-213q0 -98 18 -172h-149q18 63 18 172zM291 618v-477q3 -4 23 -24q13 -13 68 -38q52 -24 107 -24
q98 0 170 85q72 86 72 222q0 157 -58 245q-59 89 -175 89q-52 0 -116 -26q-66 -27 -91 -52z" />
    <glyph glyph-name="q" unicode="q" horiz-adv-x="907" 
d="M653 725q0 2 7 24l8 21h116q-18 -52 -18 -145v-791q0 -98 18 -172h-149q18 63 18 172v238q-95 -78 -204 -78q-149 0 -250 116t-101 277q0 167 106 281q105 112 259 112q101 0 190 -55zM496 78q78 0 157 61v482q-82 96 -200 96q-90 0 -166 -79t-76 -228q0 -170 87 -251
t198 -81z" />
    <glyph glyph-name="r" unicode="r" horiz-adv-x="577" 
d="M178 170v401q0 125 -39 168l152 41v-102q135 102 237 102q36 0 66 -6q-3 -13 -10 -55q-5 -31 -11 -55q-38 26 -86 26q-42 0 -102 -28t-94 -62v-430q0 -88 18 -170h-147q16 81 16 170z" />
    <glyph glyph-name="s" unicode="s" horiz-adv-x="757" 
d="M383 55q59 0 112 38q52 37 52 97q0 52 -42 90q-41 37 -102 61l-117 48q-57 23 -101 69q-42 44 -42 107q0 95 73 156q71 59 190 59q153 0 249 -112l-69 -58q-72 107 -199 107q-53 0 -98 -33t-45 -80q0 -50 42 -84q42 -35 103 -57q65 -24 122 -48q59 -25 102 -71
q42 -45 42 -111q0 -119 -89 -179q-88 -60 -201 -60q-185 0 -279 145q9 7 38 30q8 6 20 15.5t16 12.5q45 -74 92 -107q50 -35 131 -35z" />
    <glyph glyph-name="t" unicode="t" horiz-adv-x="567" 
d="M203 195v485h-123l-4 47q174 4 198 197h41v-172h224l-9 -72h-215v-453q0 -149 144 -178l-13 -55q-120 1 -182 57q-61 55 -61 144z" />
    <glyph glyph-name="u" unicode="u" horiz-adv-x="933" 
d="M283 362q0 -161 40 -223q41 -63 121 -63q40 0 109 32t102 64v408q0 116 -39 159l152 41v-647q0 -112 43 -133h-149v94h-7q-133 -100 -237 -100q-131 0 -190 89q-58 88 -58 224v273q0 116 -39 159l152 41v-418z" />
    <glyph glyph-name="v" unicode="v" horiz-adv-x="784" 
d="M350 0q-51 115 -233 590q-40 105 -86 162h174q5 -53 14 -90q11 -45 55 -170t134 -349h8q155 419 172 469q32 93 33 140h133q-11 -5 -30 -43q-18 -37 -54 -125q-8 -20 -30.5 -74.5t-32.5 -80.5q-4 -11 -32.5 -83t-50.5 -128q-64 -165 -84 -218h-90z" />
    <glyph glyph-name="w" unicode="w" horiz-adv-x="1277" 
d="M856 0q-10 20 -215 557q-23 -57 -88 -243q-59 -167 -117 -314h-90q-27 64 -229 590q-40 105 -86 162h174q5 -53 14 -90q10 -42 54 -169q38 -110 133 -350h8q118 334 154 452q33 106 34 157h115q12 -140 198 -609h9q118 329 154 448q31 105 36 161h133q-18 -6 -56 -101
q-50 -126 -115 -307q-73 -203 -128 -344h-92z" />
    <glyph glyph-name="x" unicode="x" horiz-adv-x="870" 
d="M809 0h-176q-12 72 -211 336q-6 -7 -52 -69l-60 -80q-29 -38 -51 -71q-31 -46 -44 -69q-15 -25 -20 -47h-140q111 112 324 395q-3 4 -78 112q-55 79 -112 150q-50 62 -95 95h185q16 -58 170 -265q178 229 186 265h141q-62 -44 -282 -328q258 -362 315 -424z" />
    <glyph glyph-name="y" unicode="y" horiz-adv-x="784" 
d="M117 590q-33 95 -86 162h174q5 -53 14 -90q11 -45 55 -170t134 -349h8q144 387 169 461q31 94 36 148h133q-37 -49 -82 -162q-38 -92 -56 -137q-16 -41 -79 -204q-43 -112 -77 -204q-52 -142 -76 -217q-32 -101 -48 -166h-129q17 22 39 69q20 42 37 82q4 11 10 26
t15 38.5t16 40.5q7 19 15 39.5t12.5 32t6.5 16.5l-18 19q-52 121 -223 565z" />
    <glyph glyph-name="z" unicode="z" horiz-adv-x="724" 
d="M557 0h-502l-12 8l449 672h-234q-81 0 -178 -41l43 119q43 -6 104 -6h424q5 -12 8 -15l-440 -667h248q115 0 203 26q-3 -7 -19 -47q-4 -9 -9 -21.5t-8 -20.5t-5 -13q-24 6 -72 6z" />
    <glyph glyph-name="braceleft" unicode="{" horiz-adv-x="503" 
d="M199 246q0 60 -36 100q-37 42 -108 49v31q144 18 144 149q0 31 -16 157q-15 118 -15 167q0 209 231 217l1 -4q2 -4 3 -7t3 -6.5t2 -4.5q-43 0 -75 -8t-58 -46q-27 -39 -27 -112q0 -51 20 -162q21 -117 21 -172q0 -70 -36 -106t-99 -60l-41 -16q176 -53 176 -183
q0 -57 -21 -174q-20 -111 -20 -161q0 -57 13 -92q13 -34 41 -50q25 -14 49 -19q23 -5 57 -5l-7 -23q-233 4 -233 215q0 49 15 167q16 126 16 159z" />
    <glyph glyph-name="bar" unicode="|" horiz-adv-x="448" 
d="M174 -295v1413h100v-1413h-100z" />
    <glyph glyph-name="braceright" unicode="}" horiz-adv-x="487" 
d="M289 246q0 -40 15 -159t15 -167q0 -208 -233 -215q-1 3 -3.5 11t-4.5 12q33 0 56 5q24 5 49 19q28 15 42 50q15 36 15 92q0 44 -21 162q-20 113 -20 173q0 130 176 183q-176 47 -176 182q0 61 20 172q21 117 21 162q0 55 -15 91t-42 51q-28 16 -50 20q-20 4 -55 4
q2 4 4.5 11.5l3.5 10.5q233 -7 233 -217q0 -49 -15 -167q-15 -119 -15 -157q0 -131 143 -149v-31q-70 -7 -107 -49q-36 -40 -36 -100z" />
    <glyph glyph-name="asciitilde" unicode="~" horiz-adv-x="632" 
d="M393 455q-36 0 -92 40t-94 40q-39 0 -94 -72l-37 35q5 9 18 31q14 22 52 52q40 31 81 31q35 0 94 -42t97 -42q35 0 92 72l33 -35q-1 -2 -6 -11q-3 -5 -20 -27q-7 -9 -31 -33q-15 -15 -41 -27t-52 -12z" />
    <glyph glyph-name="exclamdown" unicode="&#xa1;" horiz-adv-x="356" 
d="M119 -297v367q3 42 15 188t20 252h51q2 -28 16 -220q7 -94 17 -220v-367h-119zM113 711q0 27 19 46t48 19q28 0 48 -18t20 -47q0 -28 -20 -48t-48 -20t-48 21q-19 20 -19 47z" />
    <glyph glyph-name="cent" unicode="&#xa2;" horiz-adv-x="800" 
d="M748 653l-82 -59q-63 101 -187 119v-631h25q114 0 221 98l25 -22q-105 -146 -271 -162v-234h-43v232q-145 7 -241 122q-97 115 -97 269q0 156 97 267q96 109 241 124v109h43v-109q173 -6 269 -123zM211 408q0 -136 64 -213q65 -78 161 -107v627q-88 -15 -156 -93
q-69 -80 -69 -214z" />
    <glyph glyph-name="sterling" unicode="&#xa3;" horiz-adv-x="1058" 
d="M272 516v59h113q-80 122 -80 220q0 95 69 160q70 65 199 65q111 0 207 -51l-24 -78q-84 78 -201 78q-85 0 -122 -43q-38 -44 -38 -99q0 -34 17 -76t51 -98q35 -57 45 -78h231l-12 -59h-197q15 -44 15 -80q0 -160 -228 -336q314 5 453 37q-1 -3 -4.5 -21.5t-6.5 -31.5
q-8 -33 -9 -49q-156 6 -504 6l14 61q184 190 184 314q0 49 -26 100h-146z" />
    <glyph glyph-name="currency" unicode="&#xa4;" horiz-adv-x="1087" 
d="M233 377q0 111 76 190l-112 105l26 26q19 19 29 27l104 -117q74 56 172 56h4q93 0 173 -52l102 121l55 -53l-110 -107q75 -84 75 -192q0 -117 -79 -193l114 -104q-6 -4 -29 -29q-14 -15 -26 -24l-105 116q-79 -55 -174 -55q-93 0 -172 49l-102 -116l-57 51l110 106
q-74 85 -74 195zM332 375q0 -104 56 -166q58 -64 140 -64q86 0 143 66q56 65 56 172q0 106 -55 165q-56 60 -144 60q-86 0 -141 -63q-55 -62 -55 -170z" />
    <glyph glyph-name="yen" unicode="&#xa5;" horiz-adv-x="1021" 
d="M131 518h236q-8 10 -25 41q-13 24 -29 49h-182v58h150q-9 15 -26 43.5t-21 35.5q-9 15 -21 37.5t-16 29.5q-10 17 -30 53q-5 9 -13.5 24t-11.5 20q-12 22 -19 34t-17 27q-8 12 -13 18q-3 3 -6.5 9t-4.5 7q-4 6 -10 10h178q-2 -14 -2 -19q0 -57 151 -329h193
q160 266 160 319q0 15 -2 29h139q-11 -11 -223 -348h137v-58h-174l-58 -90h232v-59h-268q-12 -18 -15 -21v-233q0 -101 17 -152h-140q17 57 17 152v231l-15 23h-268v59zM432 608l51 -90h15l57 90h-123z" />
    <glyph glyph-name="brokenbar" unicode="&#xa6;" horiz-adv-x="702" 
d="M307 322h99v-689h-99v689zM307 1292h99v-692h-99v692z" />
    <glyph glyph-name="section" unicode="&#xa7;" horiz-adv-x="784" 
d="M696 301q0 -86 -45 -158q45 -57 45 -133q0 -133 -96 -220t-260 -87q-61 0 -138 23q-74 22 -120 53l27 86q35 -38 106 -69q73 -32 145 -32q98 0 159 52t61 143q0 72 -51 129q-50 56 -121 90q-48 23 -144 73q-72 38 -122 101q-50 64 -50 150q0 81 47 155q-47 67 -47 138
q0 122 90 203t242 81q121 0 227 -59l-24 -86q-97 86 -221 86q-98 0 -150 -49q-53 -50 -53 -121q0 -77 51 -134q50 -56 123 -91q72 -35 144 -72q74 -39 124 -100q51 -63 51 -152zM571 221q21 21 21 45q0 70 -60 125q-61 57 -176 117q-114 60 -153 88q-17 -40 -17 -68
q0 -65 60 -116t174 -108q117 -58 151 -83z" />
    <glyph glyph-name="dieresis" unicode="&#xa8;" horiz-adv-x="569" 
d="M332 1014q0 27 19 47t46 20q29 0 48 -20q20 -22 20 -47t-20 -47q-19 -21 -48 -21q-27 0 -46 21q-19 20 -19 47zM125 1014q0 27 19 47t49 20q27 0 47 -20t20 -47t-20 -47q-21 -21 -50 -21q-26 0 -46 21q-19 20 -19 47z" />
    <glyph glyph-name="copyright" unicode="&#xa9;" horiz-adv-x="1030" 
d="M471 778q173 0 295 -116q123 -117 123 -289q0 -149 -115 -273q-114 -123 -303 -123q-151 0 -277 108t-126 288q0 174 125 290q124 115 278 115zM471 727q-122 0 -232 -95t-110 -259q0 -161 108 -252q109 -92 234 -92q139 0 246 91q108 91 108 253q0 165 -110 259
q-112 95 -244 95zM614 291q9 -3 18 -4q7 -1 17 -4l-4 -86q-101 -39 -162 -39q-113 0 -174 67t-61 152q0 99 71 164t181 65q62 0 137 -22v-99h-35q-24 82 -119 82q-67 0 -108 -53t-41 -123q0 -87 44 -139q44 -51 111 -51q87 0 125 90z" />
    <glyph glyph-name="ordfeminine" unicode="&#xaa;" horiz-adv-x="563" 
d="M436 690h-80v82q-50 -86 -151 -86q-57 0 -92 29t-35 71q0 118 272 142v37q0 112 -88 112q-60 0 -119 -59l-24 45q79 55 157 55q140 0 140 -157v-181q0 -57 20 -90zM147 786q0 -24 20 -42q18 -17 48 -17q52 0 92 40q42 42 43 122q-203 -18 -203 -103zM420 559v-57h-293v57
h293z" />
    <glyph glyph-name="guillemotleft" unicode="&#xab;" horiz-adv-x="747" 
d="M205 385q7 -16 186 -317l-41 -37q-260 344 -260 354q21 35 258 354l45 -34q-181 -305 -188 -320zM446 385q7 -13 189 -317l-43 -37q-258 343 -258 354q24 47 258 354q26 -22 45 -34q-189 -318 -191 -320z" />
    <glyph glyph-name="logicalnot" unicode="&#xac;" horiz-adv-x="1001" 
d="M823 100v310h-753v75h839v-385h-86z" />
    <glyph glyph-name="registered" unicode="&#xae;" horiz-adv-x="1032" 
d="M467 778q173 0 295 -116q123 -117 123 -289q0 -149 -115 -273q-114 -123 -303 -123q-150 0 -276 108q-125 107 -125 288q0 176 123 290q124 115 278 115zM467 727q-123 0 -233 -96q-109 -96 -109 -258q0 -161 107 -252q109 -92 235 -92q137 0 247 92q109 91 109 252
q0 162 -111 258t-245 96zM702 188q-3 -3 -8 -18q-77 1 -116 36q-41 36 -86 122q-11 20 -62 20v-92q0 -32 11 -43q12 -12 48 -16v-23h-192v23q38 5 46 15q9 12 9 44v252q0 37 -9 49t-44 18v21h176q77 0 117 -26q39 -26 39 -89q0 -74 -80 -104q77 -163 151 -189zM430 381
q67 0 93 22q28 23 28 74q0 45 -25 68q-23 22 -57 22q-24 0 -31 -7q-8 -8 -8 -34v-145z" />
    <glyph glyph-name="macron" unicode="&#xaf;" horiz-adv-x="710" 
d="M524 1069v-76h-323v76h323z" />
    <glyph glyph-name="degree" unicode="&#xb0;" horiz-adv-x="344" 
d="M25 977q0 57 42 99t105 42q60 0 104 -42q43 -42 43 -99q0 -60 -43 -103t-104 -43q-63 0 -105 43q-42 44 -42 103zM172 1075q-41 0 -67 -26q-27 -27 -27 -72q0 -51 26 -77q28 -28 68 -28q37 0 65 28q27 27 27 77q0 46 -26 72t-66 26z" />
    <glyph glyph-name="plusminus" unicode="&#xb1;" horiz-adv-x="1011" 
d="M868 61h-727v74h727v-74zM551 999v-337h319v-78h-319v-336h-84v336h-322v78h322v337h84z" />
    <glyph glyph-name="twosuperior" unicode="&#xb2;" horiz-adv-x="692" 
d="M520 1260q0 -76 -51 -160q-52 -86 -217 -242h197q75 0 108 27q-1 -10 -8 -49q-7 -38 -8 -50q-68 5 -127 5h-279q0 6 -2 14q316 286 316 444q0 131 -121 131q-73 0 -138 -55q-3 7 -20 53q97 41 160 41q85 0 138 -44q52 -43 52 -115z" />
    <glyph glyph-name="threesuperior" unicode="&#xb3;" horiz-adv-x="606" 
d="M444 1290q0 -50 -38 -85t-84 -52l2 -6q62 -5 105 -43q44 -39 44 -100q0 -103 -116 -186q-117 -84 -248 -113l-4 10q-3 7 -3 12q122 39 203 112q80 72 80 160q0 119 -129 119h-35l-4 39q156 30 156 127q0 46 -33 71q-32 25 -90 25q-71 0 -139 -55l-19 53q90 41 160 41
q93 0 140 -37q48 -37 52 -92z" />
    <glyph glyph-name="acute" unicode="&#xb4;" horiz-adv-x="294" 
d="M14 891l121 227h148l-222 -256z" />
    <glyph glyph-name="mu" unicode="&#xb5;" horiz-adv-x="983" 
d="M291 362q0 -161 40 -223q41 -63 122 -63q39 0 108 32q70 33 103 64v412q0 85 -52 131q48 13 80 26q39 16 62 29l22 10v-598q0 -164 43 -182h-149v94h-6q-133 -100 -238 -100q-93 0 -152 49v-117q0 -63 20 -89q19 -25 66 -25h46q-1 -3 -9 -20q-7 -13 -29 -30
q-24 -18 -57 -18q-51 0 -92 42q-41 43 -41 122v676q0 88 -51 131q48 13 80 26q37 15 63 29l21 10v-418z" />
    <glyph glyph-name="paragraph" unicode="&#xb6;" horiz-adv-x="1112" 
d="M811 868v-1323h-88v1440h-88v-1440h-90v715q-55 2 -107 12q-51 10 -116 38q-61 26 -110 72q-46 44 -78 120q-32 78 -32 172q0 103 33 176q34 75 82 116q48 40 126 65q74 23 145 31q64 7 159 7q83 0 143 3q71 4 109 7q50 5 76 6l-6 -49q-103 -12 -130 -41
q-28 -30 -28 -127z" />
    <glyph glyph-name="cedilla" unicode="&#xb8;" horiz-adv-x="563" 
d="M274 0h54q-36 -87 -39 -94q65 -7 101 -43q34 -34 34 -82q0 -53 -44 -94t-116 -41q-53 0 -119 20l21 47q50 -18 82 -18q44 0 67 22q25 23 25 54q0 34 -39 61t-108 27z" />
    <glyph glyph-name="onesuperior" unicode="&#xb9;" horiz-adv-x="612" 
d="M496 842v-56q-1 0 -10 0.5t-29 1t-43 0.5q-27 1 -62.5 2t-44.5 1t-44.5 -1t-63.5 -2q-15 0 -28.5 -0.5t-23 -0.5t-16.5 -0.5t-11 -0.5h-3v56h151v506q-10 0 -70 -3q-17 -1 -33.5 -2t-24.5 -1.5t-9 -0.5v60h213v-559h152z" />
    <glyph glyph-name="ordmasculine" unicode="&#xba;" horiz-adv-x="641" 
d="M78 903q0 95 57 155t137 60q100 0 147 -65q48 -66 48 -150q0 -91 -57 -151t-138 -60q-98 0 -146 65t-48 146zM268 1077q-53 0 -87 -46t-34 -120q0 -67 29 -122q28 -54 103 -54q51 0 85 45q33 43 33 115q0 70 -28 126t-101 56zM420 559v-57h-293v57h293z" />
    <glyph glyph-name="guillemotright" unicode="&#xbb;" horiz-adv-x="741" 
d="M377 68q53 92 99 168q14 23 26.5 44t23 37.5t13.5 21.5q6 10 15 26.5t11 19.5l-19 31q-18 32 -68.5 117t-102.5 172l45 34q234 -313 256 -354q0 -12 -258 -354zM135 68q183 307 187 317q-4 8 -189 320l45 34q237 -319 258 -354q0 -10 -260 -354z" />
    <glyph glyph-name="onequarter" unicode="&#xbc;" horiz-adv-x="1552" 
d="M1040 1090l-534 -1149l-45 22l534 1149zM569 547v-55q-1 0 -10 0.5t-29.5 1t-43.5 0.5q-20 0 -45 0.5t-38.5 1t-21.5 0.5l-108 -2q-24 0 -44.5 -0.5t-30 -1t-10.5 -0.5v55h154v506q-11 0 -71 -3t-68 -3v59h215v-559h151zM872 168l367 457h16v-422q76 0 103 6v-64
q-45 9 -103 9v-54q0 -78 11 -100h-99q11 36 11 100v54h-306v14zM956 203h222v278z" />
    <glyph glyph-name="onehalf" unicode="&#xbd;" horiz-adv-x="1591" 
d="M1350 465q0 -74 -52 -160t-217 -242h197q73 0 108 29q-1 -10 -8 -49q-7 -40 -8 -47q-82 2 -127 2h-278q0 6 -2 12q315 291 315 445q0 127 -121 127q-80 0 -137 -52q-13 32 -21 56q90 39 160 39q85 0 138 -44t53 -116zM569 547v-55q-3 0 -83 3q-79 3 -105 3q-27 0 -108 -3
t-85 -3v55h154v506q-90 0 -139 -6v59h215v-559h151zM1040 1090l-534 -1149l-45 22l534 1149z" />
    <glyph glyph-name="threequarters" unicode="&#xbe;" horiz-adv-x="1556" 
d="M524 950q0 -49 -40 -85q-40 -35 -85 -52l2 -6q63 -5 107 -43q45 -39 45 -100q0 -104 -117 -186q-118 -83 -248 -113l-8 22q124 39 205 112q80 72 80 160q0 119 -129 119h-35l-6 39q156 30 156 127q0 92 -121 92q-78 0 -140 -51q-17 46 -20 53q90 41 162 41q93 0 140 -37
q48 -37 52 -92zM1040 1090l-534 -1149l-45 22l534 1149zM858 168l381 457h16v-422q76 0 103 6v-64q-45 9 -103 9v-54q0 -78 11 -100h-99q11 36 11 100v54h-320v14zM952 203h226v278z" />
    <glyph glyph-name="questiondown" unicode="&#xbf;" horiz-adv-x="696" 
d="M68 -127q2 77 34 136q34 62 82 104q66 58 99 89q49 46 87 119t44 164h51q-1 -88 -33 -168q-29 -73 -72 -126q-40 -49 -81 -96q-45 -52 -69 -98q-28 -54 -28 -110q0 -69 50 -113t128 -44q109 0 209 94q1 -2 7 -18t10 -28q12 -35 14 -38q-129 -72 -242 -72q-122 0 -206 60
t-84 145zM512 686q0 -29 -19 -49q-19 -21 -49 -21q-28 0 -48 21q-19 20 -19 49q0 27 19 46q20 20 48 20t49 -19q19 -18 19 -47z" />
    <glyph glyph-name="Agrave" unicode="&#xc0;" horiz-adv-x="972" 
d="M418 1411q74 -143 102 -190q-40 -24 -47 -29l-188 219h133zM952 0h-194q6 22 6 59v19q-1 19 -11 51q-9 29 -20 58q-7 19 -33 89q-35 95 -38 103h-398q-4 -9 -13 -34t-14 -37q-5 -14 -14 -36.5t-12 -29.5q-3 -8 -20 -53q-10 -27 -16 -50q-5 -18 -9 -39q-4 -19 -4 -37
q0 -42 6 -63h-156q41 64 101 209l354 881h49l336 -885q44 -122 100 -205zM463 893l-174 -449h348l-166 449h-8z" />
    <glyph glyph-name="Aacute" unicode="&#xc1;" horiz-adv-x="972" 
d="M479 1219l103 192h131l-189 -219q-2 1 -9 5.5t-13 7.5t-13.5 8t-9.5 6zM952 0h-194q6 22 6 59v19q-1 19 -11 51q-9 29 -20 58q-7 19 -33 89q-35 95 -38 103h-398q-4 -9 -13 -34t-14 -37q-5 -14 -14 -36.5t-12 -29.5q-3 -8 -20 -53q-10 -27 -16 -50q-5 -18 -9 -39
q-4 -19 -4 -37q0 -42 6 -63h-156q41 64 101 209l354 881h49l336 -885q44 -122 100 -205zM463 893l-174 -449h348l-166 449h-8z" />
    <glyph glyph-name="Acircumflex" unicode="&#xc2;" horiz-adv-x="972" 
d="M367 1190q-4 4 -20 13q-14 7 -17 11q61 76 145 197h51q52 -87 140 -192l-37 -29l-131 113q-125 -106 -131 -113zM952 0h-194q6 22 6 59v19q-1 19 -11 51q-9 29 -20 58q-7 19 -33 89q-35 95 -38 103h-398q-4 -9 -13 -34t-14 -37q-5 -14 -14 -36.5t-12 -29.5q-3 -8 -20 -53
q-10 -27 -16 -50q-5 -18 -9 -39q-4 -19 -4 -37q0 -42 6 -63h-156q41 64 101 209l354 881h49l336 -885q44 -122 100 -205zM463 893l-174 -449h348l-166 449h-8z" />
    <glyph glyph-name="Atilde" unicode="&#xc3;" horiz-adv-x="972" 
d="M571 1227q-31 0 -81 36q-48 35 -84 35q-30 0 -82 -59l-31 31q5 11 19 29t48 48q33 29 68 29q34 0 83 -36q48 -35 83 -35q33 0 82 59l31 -31q-4 -7 -20 -29q-13 -18 -48 -48q-33 -29 -68 -29zM952 0h-194q6 22 6 59v19q-1 19 -11 51q-9 29 -20 58q-7 19 -33 89
q-35 95 -38 103h-398q-4 -9 -13 -34t-14 -37q-5 -14 -14 -36.5t-12 -29.5q-3 -8 -20 -53q-10 -27 -16 -50q-5 -18 -9 -39q-4 -19 -4 -37q0 -42 6 -63h-156q41 64 101 209l354 881h49l336 -885q44 -122 100 -205zM463 893l-174 -449h348l-166 449h-8z" />
    <glyph glyph-name="Adieresis" unicode="&#xc4;" horiz-adv-x="972" 
d="M535 1292q0 29 19 48q20 20 48 20t48 -21q20 -22 20 -47q0 -28 -20 -48q-19 -19 -48 -19t-48 19t-19 48zM330 1292q0 29 19 48q20 20 48 20q29 0 48 -21q20 -22 20 -47q0 -28 -20 -48q-19 -19 -48 -19t-48 19t-19 48zM952 0h-194q6 22 6 59v19q-1 19 -11 51q-9 29 -20 58
q-7 19 -33 89q-35 95 -38 103h-398q-4 -9 -13 -34t-14 -37q-5 -14 -14 -36.5t-12 -29.5q-3 -8 -20 -53q-10 -27 -16 -50q-5 -18 -9 -39q-4 -19 -4 -37q0 -42 6 -63h-156q41 64 101 209l354 881h49l336 -885q44 -122 100 -205zM463 893l-174 -449h348l-166 449h-8z" />
    <glyph glyph-name="Aring" unicode="&#xc5;" horiz-adv-x="972" 
d="M391 1303q0 41 30 71q31 31 75 31t75 -31t31 -71q0 -43 -31 -74t-75 -31t-75 31q-30 30 -30 74zM430 1303q0 -28 19 -49q18 -19 47 -19t47 19q18 20 18 49t-18 47t-47 18t-47 -18q-19 -19 -19 -47zM952 0h-194q6 22 6 59v19q-1 19 -11 51q-9 29 -20 58q-7 19 -33 89
q-35 95 -38 103h-398q-4 -9 -13 -34t-14 -37q-5 -14 -14 -36.5t-12 -29.5q-3 -8 -20 -53q-10 -27 -16 -50q-5 -18 -9 -39q-4 -19 -4 -37q0 -42 6 -63h-156q41 64 101 209l354 881h49l336 -885q44 -122 100 -205zM463 893l-174 -449h348l-166 449h-8z" />
    <glyph glyph-name="AE" unicode="&#xc6;" horiz-adv-x="1323" 
d="M766 532v-364q0 -73 20 -90q22 -19 107 -19q224 0 381 37l-19 -100q-168 4 -544 4h-80q18 62 18 170v209h-344q-8 -14 -36 -56l-36 -54q-18 -27 -30 -47l-15 -24t-13 -22q-16 -29 -22 -40q-13 -24 -21 -39q-5 -10 -13 -34q-6 -18 -9 -33q-4 -20 -4 -30h-155
q67 70 158 209l573 860q469 0 567 8q-2 -7 -4.5 -18.5t-7 -33t-8.5 -38.5q-105 21 -328 21q-36 0 -80 -6q-27 -4 -44 -10q-11 -4 -11 -9v-385q272 0 369 10l-21 -88q-124 12 -348 12zM641 895l-295 -451h303v451h-8z" />
    <glyph glyph-name="Ccedilla" unicode="&#xc7;" horiz-adv-x="1105" 
d="M694 -6l-37 -88q66 -7 102 -43q34 -34 34 -82q0 -53 -44 -94t-116 -41q-53 0 -119 20l21 47q49 -18 81 -18q45 0 68 22q25 23 25 54q0 34 -39 61t-109 27l78 137q-157 6 -268 55q-113 49 -171 129t-84 168q-26 90 -26 189q0 245 154 394q152 148 381 148q200 0 370 -59
l-26 -90q-146 88 -322 88q-212 0 -323 -122t-111 -325q0 -217 119 -368q118 -150 364 -150q168 0 326 119q27 -63 35 -86q-190 -87 -363 -92z" />
    <glyph glyph-name="Egrave" unicode="&#xc8;" horiz-adv-x="888" 
d="M496 1411l100 -190q-12 -6 -45 -27q-47 54 -91.5 105.5t-68 78t-29.5 33.5h134zM330 532v-364q0 -72 19 -90q21 -19 106 -19q222 0 383 37l-21 -100q-165 4 -545 4h-79q18 62 18 170v727q0 99 -18 172q550 0 620 8l-22 -90q-102 21 -328 21q-37 0 -79 -6q-26 -4 -43 -10
q-11 -4 -11 -9v-385q269 0 366 10l-20 -88q-123 12 -346 12z" />
    <glyph glyph-name="Eacute" unicode="&#xc9;" horiz-adv-x="888" 
d="M455 1219l102 192h133l-192 -221q-32 23 -43 29zM330 532v-364q0 -72 19 -90q21 -19 106 -19q222 0 383 37l-21 -100q-165 4 -545 4h-79q18 62 18 170v727q0 117 -18 172q550 0 620 8l-22 -90q-102 21 -328 21q-37 0 -79 -6q-26 -4 -43 -10q-11 -4 -11 -9v-385
q269 0 366 10l-20 -88q-123 12 -346 12z" />
    <glyph glyph-name="Ecircumflex" unicode="&#xca;" horiz-adv-x="888" 
d="M389 1190q-8 8 -20 14q-3 2 -6.5 3.5t-5.5 3t-4 2.5t-3 1q62 74 146 197h51q61 -101 141 -192l-39 -29q-103 88 -131 113zM330 532v-364q0 -72 19 -90q21 -19 106 -19q222 0 383 37l-21 -100q-165 4 -545 4h-79q18 62 18 170v727q0 99 -18 172q550 0 620 8l-22 -90
q-102 21 -328 21q-37 0 -79 -6q-26 -4 -43 -10q-11 -4 -11 -9v-385q269 0 366 10l-20 -88q-123 12 -346 12z" />
    <glyph glyph-name="Edieresis" unicode="&#xcb;" horiz-adv-x="888" 
d="M551 1292q0 29 19 48q20 20 48 20q30 0 49 -21q19 -20 19 -47q0 -29 -19 -48t-49 -19q-29 0 -48 19t-19 48zM346 1292q0 28 20 48t48 20t48 -21q19 -20 19 -47q0 -29 -19 -48t-48 -19t-48 19q-20 20 -20 48zM330 532v-364q0 -72 19 -90q21 -19 106 -19q222 0 383 37
l-21 -100q-165 4 -545 4h-79q18 62 18 170v727q0 99 -18 172q550 0 620 8l-22 -90q-102 21 -328 21q-44 0 -79 -5q-22 -3 -43 -11q-11 -4 -11 -9v-385q269 0 366 10l-20 -88q-123 12 -346 12z" />
    <glyph glyph-name="Igrave" unicode="&#xcc;" horiz-adv-x="608" 
d="M340 1219l-35 -25l-188 217h121zM330 893v-727q0 -130 18 -168h-153q18 60 18 168v727q0 117 -18 172h153q-18 -63 -18 -172z" />
    <glyph glyph-name="Iacute" unicode="&#xcd;" horiz-adv-x="608" 
d="M272 1194l-34 25l102 192h121zM330 893v-727q0 -130 18 -168h-153q18 60 18 168v727q0 117 -18 172h153q-18 -63 -18 -172z" />
    <glyph glyph-name="Icircumflex" unicode="&#xce;" horiz-adv-x="608" 
d="M154 1190q-7 7 -21 14q-4 2 -8 4.5t-6.5 4t-3.5 1.5q56 67 145 197h51q59 -97 142 -192l-39 -29q-8 6 -54 47q-50 45 -77 66zM330 897v-727q0 -114 18 -170h-153q18 62 18 170v727q0 99 -18 172h153q-18 -63 -18 -172z" />
    <glyph glyph-name="Idieresis" unicode="&#xcf;" horiz-adv-x="555" 
d="M307 1292q0 26 21 47t47 21q28 0 48 -20q19 -19 19 -48t-19 -48t-48 -19t-48 19q-20 20 -20 48zM102 1292q0 28 20 48t48 20q26 0 47 -21t21 -47q0 -28 -20 -48q-19 -19 -48 -19t-48 19q-20 20 -20 48zM330 897v-727q0 -114 18 -170h-153q18 62 18 170v727q0 99 -18 172
h153q-18 -63 -18 -172z" />
    <glyph glyph-name="Eth" unicode="&#xd0;" horiz-adv-x="1153" 
d="M455 -6q-49 0 -101 3t-80 3h-79q18 62 18 170v338h-133v82h133v307q0 99 -18 172h75q35 0 110 3t161 3q267 0 403 -126q137 -126 137 -374q0 -285 -165 -433q-164 -148 -461 -148zM494 590v-82h-164v-387q0 -38 38 -53t134 -15q225 0 341 142q115 140 115 358
q0 221 -100 342t-334 121q-64 0 -115 -8q-42 -7 -65 -17l-14 -8v-393h164z" />
    <glyph glyph-name="Ntilde" unicode="&#xd1;" horiz-adv-x="1191" 
d="M705 1227q-33 0 -82 36q-48 35 -84 35q-30 0 -82 -59l-31 31q4 8 18 29q10 15 48 48q33 29 67 29q35 0 84 -36q48 -35 82 -35q35 0 84 59l31 -31q-4 -7 -20 -29q-14 -18 -48 -48q-33 -29 -67 -29zM1001 -2h-16q-38 49 -229 276q-65 78 -176 211t-156 186
q-149 177 -154 191h-8v-575q0 -184 25 -287h-125q26 82 26 287v665q0 66 -26 117h90l668 -807h8v518q0 136 -25 289h125q-27 -113 -27 -289v-782z" />
    <glyph glyph-name="Ograve" unicode="&#xd2;" horiz-adv-x="1191" 
d="M596 1411l102 -192l-43 -27l-190 219h131zM90 537q0 238 148 391q147 151 358 151q135 0 238 -50q100 -49 157 -133q56 -84 83 -174q28 -95 28 -185q0 -237 -149 -391q-148 -152 -357 -152q-135 0 -238 50q-99 48 -158 133q-55 80 -83 173q-27 90 -27 187zM580 1018
q-162 0 -266 -123q-103 -122 -103 -322q0 -87 18 -169q18 -81 62 -165q45 -85 126 -135q82 -51 197 -51q158 0 262 128q103 127 103 327q0 83 -18 166q-17 78 -61 163q-42 81 -125 131t-195 50z" />
    <glyph glyph-name="Oacute" unicode="&#xd3;" horiz-adv-x="1191" 
d="M549 1219l102 192h129l-188 -219zM90 537q0 238 148 391q147 151 358 151q135 0 238 -50q100 -49 157 -133q56 -84 83 -174q28 -95 28 -185q0 -237 -149 -391q-148 -152 -357 -152q-135 0 -238 50q-99 48 -158 133q-55 80 -83 173q-27 90 -27 187zM580 1018
q-162 0 -266 -123q-103 -122 -103 -322q0 -87 18 -169q18 -81 62 -165q45 -85 126 -135q82 -51 197 -51q158 0 262 128q103 127 103 327q0 83 -18 166q-17 78 -61 163q-42 81 -125 131t-195 50z" />
    <glyph glyph-name="Ocircumflex" unicode="&#xd4;" horiz-adv-x="1191" 
d="M485 1190q-8 8 -20 14q-3 2 -6.5 3.5t-5.5 3t-4 2.5t-3 1q39 45 148 197h49q61 -101 141 -192l-39 -29q-121 105 -129 113q-124 -106 -131 -113zM90 537q0 238 148 391q147 151 358 151q135 0 238 -50q100 -49 157 -133q56 -84 83 -174q28 -95 28 -185q0 -237 -149 -391
q-148 -152 -357 -152q-135 0 -238 50q-99 48 -158 133q-55 80 -83 173q-27 90 -27 187zM580 1018q-162 0 -266 -123q-103 -122 -103 -322q0 -87 18 -169q18 -81 62 -165q45 -85 126 -135q82 -51 197 -51q158 0 262 128q103 127 103 327q0 83 -18 166q-17 78 -61 163
q-42 81 -125 131t-195 50z" />
    <glyph glyph-name="Otilde" unicode="&#xd5;" horiz-adv-x="1191" 
d="M709 1227q-33 0 -83 36q-48 35 -85 35q-30 0 -82 -59l-31 31q5 11 19 29q12 16 49 48q33 29 67 29q35 0 84 -36q48 -35 82 -35q29 0 84 59l29 -31q-1 -2 -19 -29q-11 -17 -47 -48q-33 -29 -67 -29zM90 537q0 238 148 391q147 151 358 151q135 0 238 -50q100 -49 157 -133
q56 -84 83 -174q28 -95 28 -185q0 -237 -149 -391q-148 -152 -357 -152q-135 0 -238 50q-99 48 -158 133q-55 80 -83 173q-27 90 -27 187zM580 1018q-162 0 -266 -123q-103 -122 -103 -322q0 -87 18 -169q18 -81 62 -165q45 -85 126 -135q82 -51 197 -51q158 0 262 128
q103 127 103 327q0 83 -18 166q-17 78 -61 163q-42 81 -125 131t-195 50z" />
    <glyph glyph-name="Odieresis" unicode="&#xd6;" horiz-adv-x="1191" 
d="M651 1290q0 28 18 49t44 21t44 -21q17 -20 17 -49q0 -30 -17 -48q-18 -19 -44 -19t-44 19q-18 20 -18 48zM432 1290q0 28 18 49t44 21q27 0 45 -21t18 -49t-18 -48q-18 -19 -45 -19q-26 0 -44 19q-18 20 -18 48zM90 532q0 239 148 392q147 151 358 151q135 0 238 -50
q100 -49 157 -133q56 -84 83 -174q28 -95 28 -186q0 -237 -149 -389q-148 -151 -357 -151q-135 0 -238 50q-100 49 -158 132q-55 80 -83 172q-27 90 -27 186zM580 1014q-162 0 -266 -123q-103 -122 -103 -322q0 -87 18 -169q18 -83 62 -166t126 -134t197 -51q158 0 262 128
q103 127 103 327q0 84 -18 166q-17 78 -61 163q-42 81 -125 131t-195 50z" />
    <glyph glyph-name="Oslash" unicode="&#xd8;" horiz-adv-x="1191" 
d="M90 537q0 238 148 391q147 151 358 151q148 0 276 -73l74 106q46 -34 51 -39l-73 -106q90 -78 134 -194q44 -117 44 -236q0 -237 -149 -391q-148 -152 -357 -152q-155 0 -283 74q-35 -52 -45 -67q-9 -13 -24 -34.5t-19 -27.5q-4 2 -14 8.5t-15 9.5q-21 13 -24 16l92 133
q-174 152 -174 431zM979 508q0 218 -109 375l-503 -742q96 -90 247 -90q161 0 263 128t102 329zM580 1020q-163 0 -265 -123t-102 -324q0 -229 109 -383l501 744q-101 86 -243 86z" />
    <glyph glyph-name="Ugrave" unicode="&#xd9;" horiz-adv-x="1163" 
d="M596 1411l102 -192q-2 -1 -9 -6t-13 -8t-13.5 -7.5t-9.5 -5.5l-188 219h131zM309 897v-408q0 -235 78 -329t236 -94q166 0 236 106q71 107 71 332v276q0 210 -27 289h123q-25 -117 -25 -289v-295q0 -235 -95 -363t-312 -128q-190 0 -297 108q-107 109 -107 361v434
q0 99 -18 172h154q-17 -65 -17 -172z" />
    <glyph glyph-name="Uacute" unicode="&#xda;" horiz-adv-x="1163" 
d="M565 1219l103 192h129l-189 -219zM309 897v-408q0 -235 78 -329t236 -94q166 0 236 106q71 107 71 332v276q0 210 -27 289h123q-25 -117 -25 -289v-295q0 -235 -95 -363t-312 -128q-190 0 -297 108q-107 109 -107 361v434q0 99 -18 172h154q-17 -65 -17 -172z" />
    <glyph glyph-name="Ucircumflex" unicode="&#xdb;" horiz-adv-x="1163" 
d="M502 1190q-4 4 -20 13q-14 7 -17 11q61 76 145 197h52q55 -91 139 -192l-37 -29l-131 113q-125 -106 -131 -113zM309 897v-408q0 -235 78 -329t236 -94q166 0 236 106q71 107 71 332v276q0 210 -27 289h123q-25 -117 -25 -289v-295q0 -235 -95 -363t-312 -128
q-190 0 -297 108q-107 109 -107 361v434q0 99 -18 172h154q-17 -65 -17 -172z" />
    <glyph glyph-name="Udieresis" unicode="&#xdc;" horiz-adv-x="1163" 
d="M684 1290q0 29 17 49q18 21 44 21q27 0 45 -21q17 -20 17 -49q0 -30 -17 -48q-18 -19 -45 -19q-26 0 -44 19q-17 18 -17 48zM465 1290q0 29 17 49q18 21 44 21q27 0 45 -21q19 -22 19 -49t-19 -48q-18 -19 -45 -19q-26 0 -44 19q-17 18 -17 48zM309 893v-408
q0 -235 78 -329q78 -95 236 -95q165 0 236 107t71 334v274q0 223 -27 289h123q-25 -117 -25 -289v-295q0 -234 -95 -362q-94 -127 -312 -127q-191 0 -297 107q-107 109 -107 360v434q0 117 -18 172h154q-17 -65 -17 -172z" />
    <glyph glyph-name="Yacute" unicode="&#xdd;" horiz-adv-x="972" 
d="M459 1219l102 192h129l-188 -219zM504 508q168 269 230 382q57 104 57 146q0 9 -3 33h156q-15 -15 -28 -36q-5 -8 -47 -74q-31 -49 -69 -111q-15 -24 -112 -177q-138 -216 -156 -245v-256q0 -111 19 -170h-154q17 63 17 170v254q-74 128 -111 194q-17 29 -46 81.5
t-40 71.5q-20 36 -62 110q-18 31 -47 81q-4 7 -31 50q-14 22 -25 37q-9 12 -17 20h196q-2 -14 -2 -22q0 -42 50 -142q51 -102 217 -397h8z" />
    <glyph glyph-name="Thorn" unicode="&#xde;" horiz-adv-x="987" 
d="M428 319l-98 13v-162q0 -114 18 -170h-153q18 62 18 170v727q0 99 -18 172h153q-16 -52 -18 -137q12 0 61 3q50 3 101 3q362 0 362 -295q0 -159 -123 -242q-122 -82 -303 -82zM330 844v-457q43 -10 88 -10q299 0 299 262q0 120 -68 179t-182 59q-27 0 -66 -7
q-35 -6 -52 -13q-19 -7 -19 -13z" />
    <glyph glyph-name="germandbls" unicode="&#xdf;" horiz-adv-x="976" 
d="M203 170v510h-121l-4 45q63 1 95 27q30 24 30 57q0 48 13 96q13 49 44 101q30 51 94 83q62 31 152 31q108 0 164 -55q57 -55 57 -133q0 -60 -42 -120q-41 -58 -83 -113q-41 -53 -41 -91q0 -58 48 -102t106 -68q56 -24 105 -80q48 -56 48 -135q0 -108 -76 -168
q-75 -59 -169 -59q-155 0 -234 145q54 48 60 56q40 -73 78 -106q40 -34 112 -34q50 0 90 34q41 35 41 93q0 49 -31 88q-30 38 -73 60q-35 18 -86 48q-44 26 -74 71q-31 46 -31 108q0 69 83 176t83 180q0 69 -45 106q-46 38 -121 38q-78 0 -119 -67t-41 -175v-647
q0 -21 2 -59q1 -11 3 -28t2 -20l2.5 -17.5t1.5 -14.5t4 -22q0 -2 0.5 -4t1.5 -3v-2h-148q19 65 19 170z" />
    <glyph glyph-name="agrave" unicode="&#xe0;" horiz-adv-x="851" 
d="M397 1120l121 -227l-47 -29l-223 256h149zM735 0h-143q0 38 -1 68t-1 69h-8q-83 -143 -273 -143q-107 0 -168 51t-61 127q0 211 502 250v80q0 215 -170 215q-104 0 -211 -109l-43 72q136 100 288 100q248 0 248 -286v-340q0 -42 12 -92q12 -51 29 -62zM201 174
q0 -46 39 -80q40 -35 96 -35q95 0 171 73q75 72 75 235q-381 -29 -381 -193z" />
    <glyph glyph-name="aacute" unicode="&#xe1;" horiz-adv-x="851" 
d="M381 893l121 227h149l-223 -256zM735 0h-143q0 38 -1 68t-1 69h-8q-83 -143 -273 -143q-107 0 -168 51t-61 127q0 211 502 250v80q0 215 -170 215q-104 0 -211 -109l-43 72q136 100 288 100q248 0 248 -286v-340q0 -42 12 -92q12 -51 29 -62zM201 174q0 -46 39 -80
q40 -35 96 -35q95 0 171 73q75 72 75 235q-381 -29 -381 -193z" />
    <glyph glyph-name="acircumflex" unicode="&#xe2;" horiz-adv-x="851" 
d="M428 1036q-152 -164 -162 -174l-37 33q81 119 140 225h116q59 -106 140 -225l-37 -33q-41 40 -100 106q-17 19 -32 36t-22 24zM735 0h-143q0 38 -1 68t-1 69h-8q-83 -143 -273 -143q-107 0 -168 51t-61 127q0 211 502 250v80q0 215 -170 215q-104 0 -211 -109l-43 72
q136 100 288 100q248 0 248 -286v-340q0 -42 12 -92q12 -51 29 -62zM201 174q0 -46 39 -80q40 -35 96 -35q95 0 171 73q75 72 75 235q-381 -29 -381 -193z" />
    <glyph glyph-name="atilde" unicode="&#xe3;" horiz-adv-x="851" 
d="M524 938q-38 0 -91 37t-91 37q-35 0 -92 -62l-35 33q6 10 22 31q15 20 52 50q40 32 73 32q41 0 94 -37t89 -37q43 0 92 63l35 -34q-6 -10 -22 -31q-15 -20 -52 -50q-40 -32 -74 -32zM735 0h-143q0 38 -1 68t-1 69h-8q-83 -143 -273 -143q-107 0 -168 51t-61 127
q0 211 502 250v80q0 215 -170 215q-104 0 -211 -109l-43 72q136 100 288 100q248 0 248 -286v-340q0 -42 12 -92q12 -51 29 -62zM201 174q0 -46 39 -80q40 -35 96 -35q95 0 171 73q75 72 75 235q-381 -29 -381 -193z" />
    <glyph glyph-name="adieresis" unicode="&#xe4;" horiz-adv-x="851" 
d="M481 1014q0 25 20 47q19 20 46 20t46 -20t19 -47t-19 -47q-19 -21 -46 -21t-46 21q-20 22 -20 47zM274 1014q0 25 20 47q19 20 48 20q27 0 46 -20q20 -22 20 -47t-20 -47q-20 -21 -48 -21q-26 0 -46 21q-20 22 -20 47zM735 0h-143q0 38 -1 68t-1 69h-8
q-83 -143 -273 -143q-107 0 -168 51t-61 127q0 211 502 250v80q0 215 -170 215q-104 0 -211 -109l-43 72q136 100 288 100q248 0 248 -286v-340q0 -42 12 -92q12 -51 29 -62zM201 174q0 -46 39 -80q40 -35 96 -35q95 0 171 73q75 72 75 235q-381 -29 -381 -193z" />
    <glyph glyph-name="aring" unicode="&#xe5;" horiz-adv-x="851" 
d="M379 993q0 -29 19 -47q20 -18 48 -18q30 0 49 19t19 46q0 29 -19 49q-19 21 -49 21q-28 0 -48 -21q-19 -20 -19 -49zM332 993q0 47 34 81t80 34q47 0 80 -34t33 -81q0 -45 -33 -78q-32 -32 -80 -32q-47 0 -80 32q-34 33 -34 78zM735 0h-143q0 38 -1 68t-1 69h-8
q-83 -143 -273 -143q-107 0 -168 51t-61 127q0 211 502 250v80q0 215 -170 215q-104 0 -211 -109l-43 72q136 100 288 100q248 0 248 -286v-340q0 -42 12 -92q12 -51 29 -62zM201 174q0 -46 39 -80q40 -35 96 -35q95 0 171 73q75 72 75 235q-381 -29 -381 -193z" />
    <glyph glyph-name="ae" unicode="&#xe6;" horiz-adv-x="1327" 
d="M1204 186l33 -30q-121 -162 -305 -162q-93 0 -172 50q-78 50 -125 134h-17q-112 -184 -307 -184q-108 0 -170 50q-61 49 -61 128q0 211 504 250v80q0 215 -172 215q-102 0 -209 -109l-45 72q136 100 288 100q157 0 224 -133q106 133 276 133q137 0 220 -86t83 -200
q0 -44 -15 -62t-56 -18h-484q0 -160 82 -248t197 -88q119 0 231 108zM201 174q0 -46 39 -80q40 -35 96 -35q95 0 171 73q75 72 75 235q-381 -29 -381 -193zM936 717q-78 0 -149 -63t-87 -173h406q22 0 29 7q8 8 8 32q0 81 -56 139t-151 58z" />
    <glyph glyph-name="ccedilla" unicode="&#xe7;" horiz-adv-x="798" 
d="M721 186l33 -30q-115 -153 -281 -160q-1 -2 -3.5 -9.5t-5.5 -16t-7 -17.5q-3 -7 -10 -24t-9 -23q66 -7 102 -43q33 -33 33 -82q0 -53 -44 -94t-115 -41q-53 0 -119 20l20 47q50 -18 82 -18q44 0 67 22t23 54q0 35 -38 61q-39 27 -107 27q15 29 78 137q-140 11 -232 125
q-92 115 -92 266q0 168 107 281q106 112 260 112q183 0 285 -125q-54 -42 -80 -59q-78 121 -215 121q-87 0 -163 -78q-77 -79 -77 -225q0 -168 85 -252q86 -84 198 -84t225 108z" />
    <glyph glyph-name="egrave" unicode="&#xe8;" horiz-adv-x="858" 
d="M397 1120l121 -227l-47 -29l-223 256h149zM719 186l35 -30q-123 -162 -305 -162q-149 0 -251 120t-102 273q0 162 104 278q103 115 263 115q135 0 218 -86t83 -200q0 -80 -62 -80h-491q0 -163 82 -249q83 -87 194 -87q119 0 232 108zM453 717q-79 0 -149 -63
q-71 -63 -87 -173h406q20 0 27 7t7 32q0 82 -54 139q-55 58 -150 58z" />
    <glyph glyph-name="eacute" unicode="&#xe9;" horiz-adv-x="858" 
d="M465 893l123 227h147l-221 -256zM719 186l35 -30q-123 -162 -305 -162q-149 0 -251 120t-102 273q0 162 104 278q103 115 263 115q135 0 218 -86t83 -200q0 -80 -62 -80h-491q0 -163 82 -249q83 -87 194 -87q119 0 232 108zM453 717q-79 0 -149 -63q-71 -63 -87 -173h406
q20 0 27 7t7 32q0 82 -54 139q-55 58 -150 58z" />
    <glyph glyph-name="ecircumflex" unicode="&#xea;" horiz-adv-x="858" 
d="M455 1036q-151 -164 -162 -174l-37 33q75 111 139 225h117q64 -114 139 -225l-37 -33q-34 33 -99 106q-17 19 -32 36t-21 24zM719 186l35 -30q-123 -162 -305 -162q-149 0 -251 120t-102 273q0 162 104 278q103 115 263 115q135 0 218 -86t83 -200q0 -80 -62 -80h-491
q0 -163 82 -249q83 -87 194 -87q119 0 232 108zM453 717q-79 0 -149 -63q-71 -63 -87 -173h406q20 0 27 7t7 32q0 82 -54 139q-55 58 -150 58z" />
    <glyph glyph-name="edieresis" unicode="&#xeb;" horiz-adv-x="858" 
d="M520 1014q0 25 20 47q19 20 46 20q29 0 48 -20t19 -47t-19 -47q-20 -21 -48 -21q-26 0 -46 21q-20 22 -20 47zM313 1014q0 25 20 47q19 20 48 20q27 0 46 -20t19 -47t-19 -47q-19 -21 -48 -21q-27 0 -46 21q-20 22 -20 47zM719 186l35 -30q-123 -162 -305 -162
q-149 0 -251 120t-102 273q0 162 104 278q103 115 263 115q135 0 218 -86t83 -200q0 -80 -62 -80h-491q0 -163 82 -249q83 -87 194 -87q119 0 232 108zM453 717q-79 0 -149 -63q-71 -63 -87 -173h406q20 0 27 7t7 32q0 82 -54 139q-55 58 -150 58z" />
    <glyph glyph-name="igrave" unicode="&#xec;" horiz-adv-x="440" 
d="M178 170v401q0 125 -39 168l152 41v-610q0 -88 18 -170h-147q16 81 16 170zM176 1120l121 -227l-47 -29l-223 256h149z" />
    <glyph glyph-name="iacute" unicode="&#xed;" horiz-adv-x="452" 
d="M203 893l121 227h149l-223 -256zM178 170v401q0 121 -39 168l152 41v-610q0 -88 18 -170h-147q16 81 16 170z" />
    <glyph glyph-name="icircumflex" unicode="&#xee;" horiz-adv-x="456" 
d="M184 170v401q0 121 -39 168l152 41v-610q0 -88 18 -170h-147q16 81 16 170zM252 1036q-152 -164 -162 -174l-37 33q81 119 140 225h116q59 -106 140 -225l-37 -33q-41 40 -100 106q-17 19 -32 36t-22 24z" />
    <glyph glyph-name="idieresis" unicode="&#xef;" horiz-adv-x="444" 
d="M178 170v401q0 121 -39 168l152 41v-610q0 -88 18 -170h-147q16 81 16 170zM270 1014q0 25 20 47q19 20 46 20t46 -20t19 -47t-19 -47q-20 -21 -46 -21t-46 21q-20 22 -20 47zM63 1014q0 25 20 47q19 20 48 20q27 0 46 -20q20 -22 20 -47t-20 -47q-19 -21 -48 -21
q-27 0 -46 21q-20 22 -20 47z" />
    <glyph glyph-name="eth" unicode="&#xf0;" horiz-adv-x="931" 
d="M98 387q0 171 107 283q106 110 258 110q90 0 201 -51q-27 79 -105 186q-79 107 -188 168q0 1 1.5 3t3.5 6t3 7q7 14 10 19q195 -66 318 -283q122 -216 122 -448q0 -175 -106 -284t-258 -109q-97 0 -171 37q-77 39 -116 96q-41 61 -60 125q-20 68 -20 135zM453 717
q-103 0 -172 -86q-70 -87 -70 -221q0 -58 12 -115q11 -53 40 -114q26 -56 83 -91q56 -35 129 -35q103 0 172 86q70 87 70 224q0 56 -12 113q-11 51 -40 113q-26 56 -83 91q-56 35 -129 35z" />
    <glyph glyph-name="ntilde" unicode="&#xf1;" horiz-adv-x="905" 
d="M575 938q-35 0 -90 37t-92 37q-30 0 -92 -62l-35 33q6 10 22 31t53 50q41 32 75 32q38 0 91 -37t89 -37q42 0 92 63l35 -34q-6 -10 -22 -31q-15 -20 -52 -50q-40 -32 -74 -32zM176 170v401q0 125 -39 168l152 41v-102q135 102 237 102q131 0 190 -89q58 -88 58 -226v-295
q0 -111 19 -170h-148q17 63 17 170v240q0 161 -40 223q-40 63 -122 63q-43 0 -109 -31t-102 -65v-430q0 -88 18 -170h-147q16 81 16 170z" />
    <glyph glyph-name="ograve" unicode="&#xf2;" horiz-adv-x="907" 
d="M397 1120l121 -227l-47 -29l-223 256h149zM98 387q0 171 107 283q106 110 258 110q97 0 171 -37q76 -38 116 -97q40 -60 60 -126q19 -64 19 -133q0 -176 -107 -284q-108 -109 -257 -109q-97 0 -171 37q-77 39 -116 96q-41 61 -60 125q-20 68 -20 135zM453 717
q-103 0 -172 -86q-70 -87 -70 -221q0 -58 12 -115q11 -53 40 -114q26 -56 83 -91q56 -35 129 -35q103 0 172 86q70 87 70 224q0 54 -14 113q-14 57 -40 113q-26 55 -82 91q-55 35 -128 35z" />
    <glyph glyph-name="oacute" unicode="&#xf3;" horiz-adv-x="907" 
d="M442 893l121 227h150l-224 -256zM98 387q0 171 107 283q106 110 258 110q97 0 171 -37q76 -38 116 -97q40 -60 60 -126q19 -64 19 -133q0 -176 -107 -284q-108 -109 -257 -109q-97 0 -171 37q-77 39 -116 96q-41 61 -60 125q-20 68 -20 135zM453 717q-103 0 -172 -86
q-70 -87 -70 -221q0 -58 12 -115q11 -53 40 -114q26 -56 83 -91q56 -35 129 -35q103 0 172 86q70 87 70 224q0 54 -14 113q-14 57 -40 113q-26 55 -82 91q-55 35 -128 35z" />
    <glyph glyph-name="ocircumflex" unicode="&#xf4;" horiz-adv-x="907" 
d="M465 1036q-151 -164 -162 -174l-37 33q81 119 140 225h116q59 -106 140 -225l-37 -33q-41 40 -100 106q-17 19 -32 36t-21 24zM98 387q0 171 107 283q106 110 258 110q97 0 171 -37q76 -38 116 -97q40 -60 60 -126q19 -64 19 -133q0 -176 -107 -284q-108 -109 -257 -109
q-97 0 -171 37q-77 39 -116 96q-41 61 -60 125q-20 68 -20 135zM453 717q-103 0 -172 -86q-70 -87 -70 -221q0 -58 12 -115q11 -53 40 -114q26 -56 83 -91q56 -35 129 -35q103 0 172 86q70 87 70 224q0 54 -14 113q-14 57 -40 113q-26 55 -82 91q-55 35 -128 35z" />
    <glyph glyph-name="otilde" unicode="&#xf5;" horiz-adv-x="907" 
d="M545 938q-36 0 -89 37t-91 37q-36 0 -93 -62l-34 33q11 18 21 31q15 20 52 50q40 32 74 32q38 0 91 -37t89 -37q39 0 94 63l35 -34q-11 -18 -22 -31q-16 -20 -54 -50q-40 -32 -73 -32zM98 387q0 171 107 283q106 110 258 110q97 0 171 -37q76 -38 116 -97q40 -60 60 -126
q19 -64 19 -133q0 -176 -107 -284q-108 -109 -257 -109q-97 0 -171 37q-77 39 -116 96q-41 61 -60 125q-20 68 -20 135zM453 717q-103 0 -172 -86q-70 -87 -70 -221q0 -58 12 -115q11 -53 40 -114q26 -56 83 -91q56 -35 129 -35q103 0 172 86q70 87 70 224q0 54 -14 113
q-14 57 -40 113q-26 55 -82 91q-55 35 -128 35z" />
    <glyph glyph-name="odieresis" unicode="&#xf6;" horiz-adv-x="907" 
d="M514 1014q0 25 20 47q19 20 46 20q29 0 48 -20t19 -47t-19 -47q-20 -21 -48 -21q-26 0 -46 21q-20 22 -20 47zM309 1014q0 25 20 47q19 20 46 20q29 0 48 -20t19 -47t-19 -47q-19 -21 -48 -21q-27 0 -46 21q-20 22 -20 47zM98 387q0 171 107 283q106 110 258 110
q97 0 171 -37q76 -38 116 -97q40 -60 60 -126q19 -64 19 -133q0 -176 -107 -284q-108 -109 -257 -109q-97 0 -171 37q-77 39 -116 96q-41 61 -60 125q-20 68 -20 135zM453 717q-103 0 -172 -86q-70 -87 -70 -221q0 -58 12 -115q11 -53 40 -114q26 -56 83 -91q56 -35 129 -35
q103 0 172 86q70 87 70 224q0 54 -14 113q-14 57 -40 113q-26 55 -82 91q-55 35 -128 35z" />
    <glyph glyph-name="divide" unicode="&#xf7;" horiz-adv-x="946" 
d="M815 367h-684v75h684v-75zM410 647q0 29 18 47q19 19 47 19t48 -20t20 -46t-20 -46q-19 -19 -48 -19t-47 18t-18 47zM410 166q0 28 18 48q18 19 47 19t48 -19q20 -20 20 -48q0 -27 -20 -45q-21 -19 -48 -19q-25 0 -46 19q-19 18 -19 45z" />
    <glyph glyph-name="oslash" unicode="&#xf8;" horiz-adv-x="907" 
d="M98 387q0 171 107 283q106 110 258 110q38 0 74 -10l30 88l54 -12l-31 -86q119 -40 180 -148q59 -105 59 -225q0 -176 -107 -284q-108 -109 -257 -109q-69 0 -127 16l-43 -127l-51 8q16 55 47 140q-101 50 -146 147q-47 100 -47 209zM717 365q0 97 -37 189
q-38 94 -115 134l-203 -606q45 -27 113 -27q103 0 172 86q70 87 70 224zM453 717q-103 0 -172 -86q-70 -87 -70 -221q0 -201 106 -295l199 592q-33 10 -63 10z" />
    <glyph glyph-name="ugrave" unicode="&#xf9;" horiz-adv-x="983" 
d="M410 1120l122 -227l-49 -29l-221 256h148zM309 362q0 -161 40 -223q41 -63 122 -63q42 0 111 32q68 32 100 64v408q0 120 -39 159l152 41v-647q0 -112 43 -133h-150v94h-6q-133 -100 -236 -100q-132 0 -191 89q-58 88 -58 224v273q0 120 -39 159l151 41v-418z" />
    <glyph glyph-name="uacute" unicode="&#xfa;" horiz-adv-x="983" 
d="M463 893l123 227h147l-221 -256zM309 362q0 -161 40 -223q41 -63 122 -63q42 0 111 32q68 32 100 64v408q0 120 -39 159l152 41v-647q0 -112 43 -133h-150v94h-6q-133 -100 -236 -100q-132 0 -191 89q-58 88 -58 224v273q0 120 -39 159l151 41v-418z" />
    <glyph glyph-name="ucircumflex" unicode="&#xfb;" horiz-adv-x="983" 
d="M508 1036q-152 -164 -162 -174q-2 2 -6.5 6l-13.5 12t-17 15q81 119 140 225h116q59 -106 140 -225l-37 -33q-41 40 -100 106q-17 19 -32 36t-22 24zM309 362q0 -161 40 -223q41 -63 122 -63q42 0 111 32q68 32 100 64v408q0 120 -39 159l152 41v-647q0 -112 43 -133
h-150v94h-6q-133 -100 -236 -100q-132 0 -191 89q-58 88 -58 224v273q0 120 -39 159l151 41v-418z" />
    <glyph glyph-name="udieresis" unicode="&#xfc;" horiz-adv-x="983" 
d="M565 1014q0 25 20 47q19 20 46 20q29 0 48 -20t19 -47t-19 -47q-19 -21 -48 -21q-27 0 -46 21q-20 22 -20 47zM360 1014q0 25 20 47q19 20 46 20t47 -20q21 -21 21 -47t-21 -47t-47 -21t-46 21q-20 22 -20 47zM309 362q0 -161 40 -223q41 -63 122 -63q42 0 111 32
q68 32 100 64v408q0 120 -39 159l152 41v-647q0 -112 43 -133h-150v94h-6q-133 -100 -236 -100q-132 0 -191 89q-58 88 -58 224v273q0 120 -39 159l151 41v-418z" />
    <glyph glyph-name="yacute" unicode="&#xfd;" horiz-adv-x="778" 
d="M389 893l123 227h147l-221 -256zM117 590q-38 99 -86 162h174q5 -68 39 -179q32 -103 164 -430h8q143 384 168 462q29 92 34 147h134q-37 -49 -82 -162q-2 -5 -56 -138q-34 -82 -80 -204q-55 -144 -76 -202q-54 -150 -76 -218q-30 -95 -46 -166h-131q20 27 45 82
q25 54 62 148q30 76 46 114l-20 19q-75 178 -221 565z" />
    <glyph glyph-name="thorn" unicode="&#xfe;" horiz-adv-x="923" 
d="M178 -166v1075q0 123 -39 170l152 39v-422q106 84 227 84q115 0 190 -59q76 -60 106 -139q30 -80 30 -174q0 -194 -106 -305q-105 -109 -263 -109q-89 0 -184 53v-213q0 -88 18 -172h-147q16 83 16 172zM291 618v-477q3 -4 23 -24q13 -13 68 -38q52 -24 107 -24
q98 0 170 85q72 86 72 222q0 157 -58 245q-59 89 -175 89q-52 0 -116 -26q-66 -27 -91 -52z" />
    <glyph glyph-name="ydieresis" unicode="&#xff;" horiz-adv-x="788" 
d="M465 1014q0 27 19 47t46 20q28 0 47 -20t19 -47t-19 -47q-19 -21 -47 -21q-27 0 -46 21q-19 20 -19 47zM258 1014q0 25 20 47q19 20 48 20q27 0 46 -20t19 -47t-19 -47q-20 -21 -48 -21q-26 0 -46 21q-20 22 -20 47zM117 590q-38 99 -86 162h174q5 -68 39 -179
q32 -103 164 -430h8q143 384 168 462q29 92 34 147h134q-37 -49 -82 -162q-2 -5 -56 -138q-34 -82 -80 -204q-55 -144 -76 -202q-54 -150 -76 -218q-30 -95 -46 -166h-131q20 27 45 82q25 54 62 148q30 76 46 114l-20 19q-75 178 -221 565z" />
    <glyph glyph-name="Amacron" unicode="&#x100;" horiz-adv-x="972" 
d="M662 1343v-73h-324v73h324zM952 -2h-194q6 21 6 59v17q-1 19 -11 51q-9 29 -20 58q-7 19 -33 89q-35 95 -38 103h-398q-4 -9 -13 -34t-14 -37q-5 -14 -14 -36.5t-12 -29.5q-3 -8 -20 -53q-10 -27 -16 -50q-5 -18 -9 -39q-4 -19 -4 -37q0 -43 6 -61h-156q40 58 101 209
l354 878h49l336 -882q50 -134 100 -205zM463 891l-174 -449h348l-166 449h-8z" />
    <glyph glyph-name="amacron" unicode="&#x101;" horiz-adv-x="851" 
d="M592 1071v-76h-326v76h326zM735 0h-143q0 38 -1 68t-1 69h-8q-83 -143 -273 -143q-107 0 -168 51t-61 127q0 211 502 250v80q0 215 -170 215q-104 0 -211 -109l-43 72q136 100 288 100q248 0 248 -286v-340q0 -42 12 -92q12 -51 29 -62zM201 174q0 -46 39 -80
q40 -35 96 -35q95 0 171 73q75 72 75 235q-381 -29 -381 -193z" />
    <glyph glyph-name="Abreve" unicode="&#x102;" horiz-adv-x="972" 
d="M481 1296q96 0 170 74q3 -3 15 -10q9 -5 14 -10q-78 -127 -199 -127q-120 0 -196 127l28 20q74 -74 168 -74zM952 0h-194q6 22 6 59v19q-1 19 -11 51q-9 29 -20 58q-7 19 -33 89q-35 95 -38 103h-398q-4 -9 -13 -34t-14 -37q-5 -14 -14 -36.5t-12 -29.5q-3 -8 -20 -53
q-10 -27 -16 -50q-5 -18 -9 -39q-4 -19 -4 -37q0 -42 6 -63h-156q41 64 101 209l354 881h49l336 -885q41 -112 100 -205zM463 893l-174 -449h348l-166 449h-8z" />
    <glyph glyph-name="abreve" unicode="&#x103;" horiz-adv-x="851" 
d="M438 1014q105 0 191 80q7 -7 15 -12q11 -7 15 -11q-85 -143 -221 -143t-225 143q8 6 16.5 12t12.5 9l4 2q80 -80 192 -80zM735 0h-143q0 38 -1 68t-1 69h-8q-83 -143 -273 -143q-107 0 -168 51t-61 127q0 211 502 250v80q0 215 -170 215q-104 0 -211 -109l-43 72
q136 100 288 100q248 0 248 -286v-340q0 -42 12 -92q12 -51 29 -62zM201 174q0 -46 39 -80q40 -35 96 -35q95 0 171 73q75 72 75 235q-381 -29 -381 -193z" />
    <glyph glyph-name="Aogonek" unicode="&#x104;" horiz-adv-x="972" 
d="M952 0q-47 0 -86 -6q-64 -7 -128 -68q-62 -59 -62 -108q0 -78 100 -78q43 0 113 31l20 -35q-77 -66 -155 -66q-82 0 -123 38t-41 93q0 47 27 85q28 38 60 60q31 20 59 52q28 31 28 61q0 21 -8 55q-6 24 -19 60q-31 84 -34 92q-10 25 -25 69l-16 44h-398q-4 -9 -13 -34
t-14 -37q-5 -14 -14 -36.5t-12 -29.5q-3 -8 -20 -53q-10 -27 -16 -50q-5 -18 -9 -39q-4 -19 -4 -37q0 -42 6 -63h-156q41 64 101 209l354 881h49l336 -885q44 -122 100 -205zM463 893l-174 -449h348l-166 449h-8z" />
    <glyph glyph-name="aogonek" unicode="&#x105;" horiz-adv-x="874" 
d="M735 0q-89 -7 -162 -68q-71 -59 -71 -116q0 -76 98 -76q45 0 113 31l22 -35q-78 -66 -157 -66q-82 0 -123 38t-41 97q0 105 178 195q0 38 -1 68t-1 69h-8q-83 -143 -273 -143q-107 0 -168 51t-61 127q0 211 502 250v80q0 215 -170 215q-104 0 -211 -109l-43 72
q136 100 288 100q248 0 248 -286v-340q0 -42 12 -92q12 -51 29 -62zM201 174q0 -46 39 -80q40 -35 96 -35q95 0 171 73q75 72 75 235q-381 -29 -381 -193z" />
    <glyph glyph-name="Cacute" unicode="&#x106;" horiz-adv-x="1105" 
d="M586 1219l100 192h131l-188 -219zM682 -6q-168 0 -290 48q-121 48 -184 130t-90 171q-28 92 -28 194q0 245 154 394q152 148 381 148q204 0 368 -59l-26 -90q-146 88 -322 88q-211 0 -322 -122q-112 -123 -112 -325q0 -217 119 -368q118 -150 364 -150q170 0 328 119
l33 -86q-199 -92 -373 -92z" />
    <glyph glyph-name="cacute" unicode="&#x107;" horiz-adv-x="794" 
d="M424 893l123 227h147l-221 -256zM719 186l35 -30q-123 -162 -305 -162q-149 0 -251 117t-102 276q0 168 107 281q106 112 260 112q180 0 282 -125q-60 -47 -79 -59q-76 121 -213 121q-89 0 -165 -78q-77 -79 -77 -225q0 -168 85 -252q86 -84 198 -84t225 108z" />
    <glyph glyph-name="Ccircumflex" unicode="&#x108;" horiz-adv-x="1105" 
d="M508 1190q-4 4 -20 13q-13 7 -17 11q61 76 145 197h52q55 -91 139 -192l-37 -29l-131 113q-124 -106 -131 -113zM682 -6q-168 0 -290 48q-121 48 -184 130t-90 171q-28 92 -28 194q0 245 154 394q152 148 381 148q204 0 368 -59l-26 -90q-146 88 -322 88
q-211 0 -322 -122q-112 -123 -112 -325q0 -217 119 -368q118 -150 364 -150q170 0 328 119l33 -86q-199 -92 -373 -92z" />
    <glyph glyph-name="ccircumflex" unicode="&#x109;" horiz-adv-x="980" 
d="M426 973q-16 7 -26 15q-14 11 -19 13q105 115 160 201h59q74 -115 154 -201q-27 -20 -45 -28l-142 121q-93 -78 -141 -121zM614 -4q-152 0 -263 38q-109 37 -166 102t-81 136q-24 72 -24 156q0 196 139 316t342 120q176 0 334 -47q-2 -5 -13 -44q-12 -42 -14 -50
q-133 76 -288 76q-190 0 -288 -92q-97 -91 -97 -252q0 -170 105 -284t325 -114q153 0 290 95l37 -82q-174 -74 -338 -74z" />
    <glyph glyph-name="Cdotaccent" unicode="&#x10a;" horiz-adv-x="1105" 
d="M569 1292q0 28 20 48t48 20q26 0 47 -21t21 -47q0 -28 -20 -48q-19 -19 -48 -19t-48 19q-20 20 -20 48zM682 -6q-168 0 -290 48q-121 48 -184 130t-90 171q-28 92 -28 194q0 245 154 394q152 148 381 148q204 0 368 -59l-26 -90q-146 88 -322 88q-211 0 -322 -122
q-112 -123 -112 -325q0 -217 119 -368q118 -150 364 -150q170 0 328 119l33 -86q-199 -92 -373 -92z" />
    <glyph glyph-name="cdotaccent" unicode="&#x10b;" horiz-adv-x="792" 
d="M395 1014q0 25 20 47q19 20 48 20q27 0 46 -20t19 -47t-19 -47q-19 -21 -48 -21q-27 0 -46 21q-20 22 -20 47zM719 186l35 -30q-123 -162 -305 -162q-149 0 -251 117t-102 276q0 168 107 281q106 112 260 112q180 0 282 -125q-60 -47 -79 -59q-76 121 -213 121
q-89 0 -165 -78q-77 -79 -77 -225q0 -168 85 -252q86 -84 198 -84t225 108z" />
    <glyph glyph-name="Ccaron" unicode="&#x10c;" horiz-adv-x="1105" 
d="M489 1386q1 0 7.5 4t11.5 7q12 6 20 14l129 -113q35 27 78 66q50 45 53 47l39 -29q-79 -92 -141 -192h-51q-80 117 -146 196zM682 -6q-168 0 -290 48q-121 48 -184 130t-90 171q-28 92 -28 194q0 245 154 394q152 148 381 148q204 0 368 -59l-26 -90q-146 88 -322 88
q-211 0 -322 -122q-112 -123 -112 -325q0 -217 119 -368q118 -150 364 -150q170 0 328 119l33 -86q-199 -92 -373 -92z" />
    <glyph glyph-name="ccaron" unicode="&#x10d;" horiz-adv-x="792" 
d="M461 1012q59 68 155 164l43 -31q-84 -111 -153 -234h-96q-82 143 -150 234l41 33q94 -94 160 -166zM719 186l35 -30q-123 -162 -305 -162q-149 0 -251 117t-102 276q0 168 107 281q106 112 260 112q180 0 282 -125q-60 -47 -79 -59q-76 121 -213 121q-89 0 -165 -78
q-77 -79 -77 -225q0 -168 85 -252q86 -84 198 -84t225 108z" />
    <glyph glyph-name="Dcaron" unicode="&#x10e;" horiz-adv-x="1150" 
d="M438 1386q1 0 7.5 4t11.5 7q12 6 20 14l129 -113q34 27 78 66q50 45 53 47l39 -29q-80 -92 -141 -192h-51q-80 117 -146 196zM453 -6q-49 0 -101 3t-80 3h-79q18 62 18 170v727q0 99 -18 172h75q34 0 111 3t162 3q265 0 402 -126q136 -126 136 -374q0 -285 -165 -433
q-164 -148 -461 -148zM330 983v-862q0 -38 37 -53t133 -15q227 0 343 142q115 140 115 358q0 463 -436 463q-64 0 -115 -8q-42 -7 -63 -17z" />
    <glyph glyph-name="dcaron" unicode="&#x10f;" horiz-adv-x="937" 
d="M885 973l-37 20l94 209h111q-13 -13 -62 -88q-52 -80 -106 -141zM651 905q0 123 -39 170l152 39v-946q0 -96 18 -170h-125l-6 70q-95 -76 -205 -76q-148 0 -249 114q-101 115 -101 277q0 167 106 281q105 112 259 112q95 0 190 -53v182zM494 76q80 0 157 59v481
q-83 97 -200 97q-90 0 -166 -79t-76 -228q0 -170 87 -250q88 -80 198 -80z" />
    <glyph glyph-name="Dcroat" unicode="&#x110;" horiz-adv-x="1150" 
d="M66 580v63h147v254q0 99 -18 172h75q35 0 110 3t161 3q267 0 403 -126q137 -126 137 -374q0 -285 -165 -433q-164 -148 -461 -148q-49 0 -101 3t-80 3h-79q18 62 18 170v410h-147zM330 983v-340h180v-63h-180v-459q0 -38 38 -53t134 -15q225 0 341 142q115 140 115 358
q0 221 -100 342t-334 121q-64 0 -115 -8q-42 -7 -65 -17z" />
    <glyph glyph-name="dcroat" unicode="&#x111;" horiz-adv-x="915" 
d="M870 868h-104v-725q0 -95 16 -143h-129v78q-106 -84 -204 -84q-149 0 -250 116t-101 277q0 167 106 281q105 112 259 112q82 0 190 -53v141h-166v64h166q-4 61 -57 106q38 10 83 32q47 23 71 36l24 16q-3 -36 -8 -190h104v-64zM506 82q69 0 147 57v482q-78 96 -200 96
q-90 0 -166 -79t-76 -228q0 -168 90 -248q91 -80 205 -80z" />
    <glyph glyph-name="Emacron" unicode="&#x112;" horiz-adv-x="888" 
d="M680 1343v-73h-324v73h324zM330 532v-364q0 -72 19 -90q21 -19 106 -19q222 0 383 37l-21 -100q-165 4 -545 4h-79q18 62 18 170v727q0 99 -18 172q550 0 620 8l-22 -90q-102 21 -328 21q-37 0 -79 -6q-26 -4 -43 -10q-11 -4 -11 -9v-385q269 0 366 10l-20 -88
q-123 12 -346 12z" />
    <glyph glyph-name="emacron" unicode="&#x113;" horiz-adv-x="831" 
d="M618 1071v-76h-325v76h325zM719 186l35 -30q-123 -162 -305 -162q-149 0 -251 120t-102 273q0 162 104 278q103 115 263 115q135 0 218 -86t83 -200q0 -80 -62 -80h-491q0 -163 82 -249q83 -87 194 -87q119 0 232 108zM453 717q-79 0 -149 -63q-71 -63 -87 -173h406
q20 0 27 7t7 32q0 82 -54 139q-55 58 -150 58z" />
    <glyph glyph-name="Ebreve" unicode="&#x114;" horiz-adv-x="888" 
d="M508 1296q94 0 168 74q2 -2 13 -9q13 -8 16 -11q-76 -127 -197 -127q-124 0 -197 127q6 6 27 20q74 -74 170 -74zM330 532v-364q0 -72 19 -90q21 -19 106 -19q222 0 383 37l-21 -100q-165 4 -545 4h-79q18 62 18 170v727q0 99 -18 172q550 0 620 8l-22 -90
q-102 21 -328 21q-37 0 -79 -6q-26 -4 -43 -10q-11 -4 -11 -9v-385q269 0 366 10l-20 -88q-123 12 -346 12z" />
    <glyph glyph-name="ebreve" unicode="&#x115;" horiz-adv-x="858" 
d="M475 1014q101 0 193 80l7 -7q3 -3 11 -9q9 -7 10 -7q-85 -143 -221 -143q-48 0 -111 30q-62 29 -112 113q26 18 31 23q86 -80 192 -80zM719 186l35 -30q-123 -162 -305 -162q-149 0 -251 120t-102 273q0 162 104 278q103 115 263 115q135 0 218 -86t83 -200
q0 -80 -62 -80h-491q0 -163 82 -249q83 -87 194 -87q119 0 232 108zM453 717q-79 0 -149 -63q-71 -63 -87 -173h406q20 0 27 7t7 32q0 82 -54 139q-55 58 -150 58z" />
    <glyph glyph-name="Edotaccent" unicode="&#x116;" horiz-adv-x="888" 
d="M463 1292q0 29 19 48q20 20 48 20q27 0 48 -21q20 -20 20 -47q0 -29 -19 -48t-49 -19q-29 0 -48 19t-19 48zM330 532v-364q0 -72 19 -90q21 -19 106 -19q222 0 383 37l-21 -100q-165 4 -545 4h-79q18 62 18 170v727q0 99 -18 172q550 0 620 8l-22 -90q-102 21 -328 21
q-44 0 -79 -5q-22 -3 -43 -11q-11 -4 -11 -9v-385q269 0 366 10l-20 -88q-123 12 -346 12z" />
    <glyph glyph-name="edotaccent" unicode="&#x117;" horiz-adv-x="858" 
d="M408 1020q0 29 18 50q19 22 43 22t43 -22q18 -21 18 -50q0 -27 -18 -48q-19 -22 -45 -22q-23 0 -42 22q-17 20 -17 48zM719 182l35 -28q-123 -162 -305 -162q-149 0 -251 119t-102 272q0 161 104 277t263 116q135 0 218 -86t83 -201q0 -77 -62 -77h-491q0 -162 82 -250
t194 -88q119 0 232 108zM453 713q-78 0 -149 -62q-70 -61 -87 -174h406q20 0 27 7t7 32q0 82 -54 139q-55 58 -150 58z" />
    <glyph glyph-name="Eogonek" unicode="&#x118;" horiz-adv-x="897" 
d="M330 532v-364q0 -72 19 -90q21 -19 106 -19q222 0 383 37l-21 -100q-67 -22 -131 -77q-63 -54 -63 -103q0 -76 98 -76q43 0 113 31l22 -35q-78 -66 -158 -66q-83 0 -123 37t-40 94q0 62 54 113q53 50 118 84q-114 2 -435 2h-79q18 62 18 170v727q0 99 -18 172
q550 0 620 8l-22 -90q-102 21 -328 21q-37 0 -79 -6q-26 -4 -43 -10q-11 -4 -11 -9v-385q269 0 366 10l-20 -88q-123 12 -346 12z" />
    <glyph glyph-name="eogonek" unicode="&#x119;" horiz-adv-x="831" 
d="M719 186l35 -30q-105 -140 -256 -156q-64 -23 -124 -80q-59 -56 -59 -104q0 -76 99 -76q47 0 112 31l23 -35q-78 -66 -158 -66q-82 0 -123 38t-41 97q0 99 172 195q-131 17 -217 131q-86 115 -86 256q0 162 104 278q103 115 263 115q135 0 218 -86t83 -200q0 -80 -62 -80
h-491q0 -163 82 -249q83 -87 194 -87q119 0 232 108zM453 717q-79 0 -149 -63q-71 -63 -87 -173h406q20 0 27 7t7 32q0 82 -54 139q-55 58 -150 58z" />
    <glyph glyph-name="Ecaron" unicode="&#x11a;" horiz-adv-x="888" 
d="M334 1386q1 0 6.5 4t11.5 7q14 7 21 14q6 -6 131 -113q8 8 129 113l39 -29q-83 -95 -142 -192h-49q-110 153 -147 196zM330 532v-364q0 -72 19 -90q21 -19 106 -19q222 0 383 37l-21 -100q-165 4 -545 4h-79q18 62 18 170v727q0 99 -18 172q550 0 620 8l-22 -90
q-102 21 -328 21q-37 0 -79 -6q-26 -4 -43 -10q-11 -4 -11 -9v-385q269 0 366 10l-20 -88q-123 12 -346 12z" />
    <glyph glyph-name="ecaron" unicode="&#x11b;" horiz-adv-x="858" 
d="M469 948l7 8l21 24.5t32 36.5q53 59 100 105l37 -32q-63 -92 -138 -226h-118q-75 134 -138 226l2 2q2 2 6 5.5t8 6.5q9 8 19 18q55 -51 162 -174zM719 186l35 -30q-123 -162 -305 -162q-149 0 -251 120t-102 273q0 162 104 278q103 115 263 115q135 0 218 -86t83 -200
q0 -80 -62 -80h-491q0 -163 82 -249q83 -87 194 -87q119 0 232 108zM453 717q-79 0 -149 -63q-71 -63 -87 -173h406q20 0 27 7t7 32q0 82 -54 139q-55 58 -150 58z" />
    <glyph glyph-name="Gcircumflex" unicode="&#x11c;" horiz-adv-x="1222" 
d="M504 1190q-4 4 -20 13q-14 7 -17 11q61 76 145 197h52q55 -91 139 -192l-37 -29l-131 113q-124 -106 -131 -113zM682 -6q-168 0 -290 48q-121 48 -184 130t-90 171q-28 92 -28 194q0 245 154 394q152 148 381 148q204 0 368 -59l-26 -90q-146 88 -322 88
q-211 0 -322 -122q-112 -123 -112 -325q0 -217 119 -368q118 -150 364 -150q80 0 132 30q53 30 53 91v115q0 21 -2 59q-1 11 -3 27.5t-2 19.5q-1 7 -2.5 18t-1.5 15t-4 22q0 2 -0.5 4t-1.5 4v1h154q-19 -59 -19 -170v-78q0 -24 3 -60q2 -30 8 -63l2 -27q-35 -7 -89 -25
t-114 -31q-51 -11 -125 -11z" />
    <glyph glyph-name="gcircumflex" unicode="&#x11d;" horiz-adv-x="897" 
d="M489 1036q-41 -44 -82.5 -89t-58.5 -63.5t-20 -21.5l-37 33q60 88 137 225h119q77 -137 137 -225q-1 -1 -6 -5.5t-10 -9.5q-4 -5 -10.5 -11t-8.5 -7q-41 39 -160 174zM653 2l-4 64q-99 -72 -200 -72q-152 0 -251 116q-100 117 -100 277q0 167 106 281q105 112 259 112
q102 0 192 -57l9 29h120q-20 -53 -20 -150v-622q0 -148 -100 -241t-248 -93q-199 0 -320 100l43 86q56 -59 139 -88q82 -29 138 -29q92 0 165 71q72 71 72 185v31zM496 78q78 0 157 61v482q-82 96 -200 96q-90 0 -166 -79t-76 -228q0 -170 87 -251t198 -81z" />
    <glyph glyph-name="Gbreve" unicode="&#x11e;" horiz-adv-x="1222" 
d="M647 1321q96 0 170 74l3 -2l4 -4q4 -4 12 -10q9 -7 10 -7q-78 -125 -199 -125q-119 0 -196 125l28 23q74 -74 168 -74zM682 -6q-168 0 -290 48q-121 48 -184 130t-90 171q-28 92 -28 194q0 245 154 394q152 148 381 148q204 0 368 -59l-26 -90q-146 88 -322 88
q-211 0 -322 -122q-112 -123 -112 -325q0 -217 119 -368q118 -150 364 -150q80 0 132 30q53 30 53 91v115q0 21 -2 59q-1 11 -3 27.5t-2 19.5q-1 7 -2.5 18t-1.5 15t-4 22q0 2 -0.5 4t-1.5 4v1h154q-19 -59 -19 -170v-78q0 -24 3 -60q2 -30 8 -63l2 -27q-35 -7 -89 -25
t-114 -31q-51 -11 -125 -11z" />
    <glyph glyph-name="gbreve" unicode="&#x11f;" horiz-adv-x="897" 
d="M475 1014q99 0 191 80q7 -7 15 -12q11 -7 15 -11q-85 -143 -221 -143t-225 143l33 23q80 -80 192 -80zM653 2l-4 64q-99 -72 -200 -72q-152 0 -251 116q-100 117 -100 277q0 167 106 281q105 112 259 112q102 0 192 -57l9 29h120q-20 -53 -20 -150v-622q0 -148 -100 -241
t-248 -93q-199 0 -320 100l43 86q56 -59 139 -88q82 -29 138 -29q92 0 165 71q72 71 72 185v31zM496 78q78 0 157 61v482q-82 96 -200 96q-90 0 -166 -79t-76 -228q0 -170 87 -251t198 -81z" />
    <glyph glyph-name="Gdotaccent" unicode="&#x120;" horiz-adv-x="1222" 
d="M578 1292q0 29 19 48q20 20 46 20q29 0 48 -21q20 -22 20 -47q0 -28 -20 -48q-19 -19 -48 -19t-47 19q-18 20 -18 48zM682 -6q-168 0 -290 48q-121 48 -184 130t-90 171q-28 92 -28 194q0 245 154 394q152 148 381 148q204 0 368 -59l-26 -90q-146 88 -322 88
q-211 0 -322 -122q-112 -123 -112 -325q0 -217 119 -368q118 -150 364 -150q80 0 132 30q53 30 53 91v115q0 21 -2 59q-1 11 -3 27.5t-2 19.5q-1 7 -2.5 18t-1.5 15t-4 22q0 2 -0.5 4t-1.5 4v1h154q-19 -59 -19 -170v-78q0 -24 3 -60q2 -30 8 -63l2 -27q-35 -7 -89 -25
t-114 -31q-51 -11 -125 -11z" />
    <glyph glyph-name="gdotaccent" unicode="&#x121;" horiz-adv-x="897" 
d="M414 1014q0 27 19 47t48 20q27 0 46 -20q20 -22 20 -47t-20 -47q-19 -21 -48 -21q-27 0 -46 21q-19 20 -19 47zM653 2l-4 64q-99 -72 -200 -72q-152 0 -251 116q-100 117 -100 277q0 167 106 281q105 112 259 112q102 0 192 -57l9 29h120q-20 -53 -20 -150v-622
q0 -148 -100 -241t-248 -93q-199 0 -320 100l43 86q56 -59 139 -88q82 -29 138 -29q92 0 165 71q72 71 72 185v31zM496 78q78 0 157 61v482q-82 96 -200 96q-90 0 -166 -79t-76 -228q0 -170 87 -251t198 -81z" />
    <glyph glyph-name="Gcommaaccent" unicode="&#x122;" horiz-adv-x="1222" 
d="M602 -262q-45 15 -45 61q0 29 18 48q18 20 48 20q28 0 48 -20q19 -19 19 -48q0 -125 -182 -268q-6 10 -14 16q48 44 76 101t32 90zM682 -6q-168 0 -290 48q-121 48 -184 130t-90 171q-28 92 -28 194q0 245 154 394q152 148 381 148q204 0 368 -59l-26 -90
q-146 88 -322 88q-211 0 -322 -122q-112 -123 -112 -325q0 -217 119 -368q118 -150 364 -150q80 0 132 30q53 30 53 91v115q0 21 -2 59q-1 11 -3 27.5t-2 19.5q-1 7 -2.5 18t-1.5 15t-4 22q0 2 -0.5 4t-1.5 4v1h154q-19 -59 -19 -170v-78q0 -24 3 -60q2 -30 8 -63l2 -27
q-35 -7 -89 -25t-114 -31q-51 -11 -125 -11z" />
    <glyph glyph-name="Hcircumflex" unicode="&#x124;" horiz-adv-x="1175" 
d="M492 1190q-4 4 -20 13q-13 7 -17 11q61 76 145 197h51q52 -87 140 -192l-39 -29q-121 105 -129 113q-124 -106 -131 -113zM330 897v-299h518v299q0 94 -19 172h156q-18 -63 -18 -172v-727q0 -114 18 -170h-156q19 65 19 170v367h-518v-367q0 -114 18 -170h-153
q18 62 18 170v727q0 52 -4 88q-6 54 -8 64l-6 20h153q-18 -63 -18 -172z" />
    <glyph glyph-name="hcircumflex" unicode="&#x125;" horiz-adv-x="905" 
d="M575 1036q-41 -44 -82.5 -89t-58.5 -63.5t-20 -21.5l-37 33q75 111 139 225h117q64 -114 139 -225q-8 -7 -17 -15l-13.5 -12t-6.5 -6q-34 33 -99 106q-55 62 -61 68zM178 170v752q0 88 -51 131q48 13 80 26q41 17 63 27l21 12v-440q135 102 237 102q131 0 190 -89
q58 -88 58 -226v-295q0 -111 19 -170h-150q19 65 19 170v240q0 161 -40 223q-41 63 -122 63q-45 0 -111 -31t-100 -65v-430q0 -114 18 -170h-149q18 62 18 170z" />
    <glyph glyph-name="Hbar" unicode="&#x126;" horiz-adv-x="1177" 
d="M330 897v-86h518v86q0 94 -19 172h156q-18 -63 -18 -172v-86h110v-55h-110v-586q0 -114 18 -170h-156q19 65 19 170v367h-518v-367q0 -114 18 -170h-153q18 62 18 170v586h-111v55h111v86q0 54 -4 90q-6 51 -8 62l-6 20h153q-18 -63 -18 -172zM330 598h518v158h-518v-158
z" />
    <glyph glyph-name="hbar" unicode="&#x127;" horiz-adv-x="905" 
d="M178 170v715h-104v63h102q-11 72 -49 105q48 13 80 26q41 17 63 27l21 12v-170h223v-63h-223v-207q135 102 237 102q131 0 190 -89q58 -88 58 -226v-295q0 -111 19 -170h-150q19 65 19 170v240q0 161 -40 223q-41 63 -122 63q-45 0 -111 -31t-100 -65v-430
q0 -114 18 -170h-149q18 62 18 170z" />
    <glyph glyph-name="Itilde" unicode="&#x128;" horiz-adv-x="544" 
d="M360 1227q-32 0 -81 36q-48 35 -84 35q-30 0 -82 -59l-31 31q4 8 18 29q11 17 47 48q33 29 68 29t84 -36q48 -35 82 -35q35 0 84 59l31 -31q-4 -7 -20 -29q-14 -18 -48 -48q-33 -29 -68 -29zM330 897v-727q0 -114 18 -170h-153q18 62 18 170v727q0 99 -18 172h153
q-18 -63 -18 -172z" />
    <glyph glyph-name="itilde" unicode="&#x129;" horiz-adv-x="450" 
d="M178 170v401q0 121 -39 168l152 41v-610q0 -88 18 -170h-147q16 81 16 170zM319 938q-36 0 -89 37t-91 37q-35 0 -92 -62l-35 33q6 10 22 31q15 20 52 50q40 32 74 32q37 0 92 -37t90 -37q42 0 92 63l35 -34q-6 -10 -22 -31t-53 -50q-41 -32 -75 -32z" />
    <glyph glyph-name="Imacron" unicode="&#x12a;" horiz-adv-x="565" 
d="M424 1343v-73h-324v73h324zM330 895v-727q0 -130 18 -168h-153q18 60 18 168v727q0 117 -18 172h153q-18 -63 -18 -172z" />
    <glyph glyph-name="imacron" unicode="&#x12b;" horiz-adv-x="456" 
d="M391 1071v-76h-325v76h325zM178 170v401q0 121 -39 168l152 41v-610q0 -88 18 -170h-147q16 81 16 170z" />
    <glyph glyph-name="Ibreve" unicode="&#x12c;" horiz-adv-x="559" 
d="M274 1296q90 0 170 74q1 -3 13 -10q9 -5 14 -10q-76 -127 -197 -127q-120 0 -196 127q2 2 26 20q74 -74 170 -74zM330 897v-727q0 -114 18 -170h-153q18 62 18 170v727q0 99 -18 172h153q-18 -63 -18 -172z" />
    <glyph glyph-name="ibreve" unicode="&#x12d;" horiz-adv-x="460" 
d="M178 170v401q0 121 -39 168l152 41v-610q0 -88 18 -170h-147q16 81 16 170zM236 1014q100 0 192 80l7 -7q3 -3 11 -9t11 -7q-85 -143 -221 -143q-49 0 -112 30q-62 29 -112 113q26 18 31 23q86 -80 193 -80z" />
    <glyph glyph-name="Iogonek" unicode="&#x12e;" horiz-adv-x="649" 
d="M330 895v-727q0 -130 18 -168q-80 -1 -167 -67q-85 -64 -85 -117q0 -76 101 -76q42 0 112 31l21 -35q-76 -66 -156 -66q-82 0 -123 38t-41 97q0 64 62 117q63 54 125 82q16 96 16 164v727q0 117 -18 172h153q-18 -63 -18 -172z" />
    <glyph glyph-name="iogonek" unicode="&#x12f;" horiz-adv-x="438" 
d="M178 170v401q0 125 -39 168l152 41v-610q0 -88 18 -170q-83 -1 -163 -63q-78 -60 -78 -121q0 -30 23 -53t77 -23q43 0 113 31l20 -35q-77 -66 -156 -66q-80 0 -121 38q-40 37 -40 97q0 105 178 195q16 81 16 170zM154 999q0 35 23 58q24 24 54 24q34 0 58 -24t24 -58
q0 -31 -24 -53q-23 -22 -58 -22q-31 0 -54 22t-23 53z" />
    <glyph glyph-name="Idotaccent" unicode="&#x130;" horiz-adv-x="544" 
d="M207 1290q0 29 19 49q20 21 48 21q30 0 49 -21q19 -20 19 -49q0 -27 -19 -46t-49 -19q-28 0 -48 18q-19 18 -19 47zM330 897v-727q0 -114 18 -170h-153q18 62 18 170v727q0 99 -18 172h153q-18 -63 -18 -172z" />
    <glyph glyph-name="Jcircumflex" unicode="&#x134;" horiz-adv-x="509" 
d="M313 897v-594q0 -224 -55 -361q-56 -138 -201 -210l-18 26q104 72 130 198q26 128 26 402v539q0 94 -19 172h154q-17 -65 -17 -172zM119 1190q-4 4 -20 13q-13 7 -17 11q61 76 145 197h52q55 -91 139 -192l-37 -29l-131 113q-124 -106 -131 -113z" />
    <glyph glyph-name="jcircumflex" unicode="&#x135;" horiz-adv-x="452" 
d="M297 219q0 -106 -28 -204q-27 -95 -72 -158q-46 -65 -80 -100q-33 -35 -68 -60q-6 6 -10 9t-14 11t-13 11q93 111 133 221q39 108 39 297v325q0 125 -39 168l152 41v-561zM233 1036q-41 -44 -82.5 -89t-58.5 -63.5t-20 -21.5l-37 33q75 111 139 225h117q64 -114 139 -225
l-37 -33q-34 33 -99 106q-55 62 -61 68z" />
    <glyph glyph-name="Lacute" unicode="&#x139;" horiz-adv-x="888" 
d="M354 1245l101 193h133l-191 -221q-27 20 -43 28zM817 -6l-624 6q18 62 18 170v727q0 99 -18 172h153q-16 -61 -16 -172v-727q0 -74 19 -92q21 -19 106 -19q222 0 383 37q-2 -8 -6 -26.5t-6 -28.5q-7 -34 -9 -47z" />
    <glyph glyph-name="lacute" unicode="&#x13a;" horiz-adv-x="423" 
d="M602 1243l-199 -225l-36 26l102 199h133zM178 170v739q0 123 -39 170l152 39v-948q0 -88 18 -170h-147q16 81 16 170z" />
    <glyph glyph-name="Lcommaaccent" unicode="&#x13b;" horiz-adv-x="888" 
d="M463 -262q-45 15 -45 61q0 29 18 48q18 20 47 20q28 0 48 -20t20 -48q0 -125 -182 -268q-6 9 -15 16q50 45 77 101q28 57 32 90zM817 -6l-624 6q18 62 18 170v727q0 99 -18 172h153q-16 -61 -16 -172v-727q0 -74 19 -92q21 -19 106 -19q222 0 383 37q-2 -8 -6 -26.5
t-6 -28.5q-7 -34 -9 -47z" />
    <glyph glyph-name="Lcaron" unicode="&#x13d;" horiz-adv-x="888" 
d="M588 913q86 188 92 205h125l-174 -229zM817 -6l-624 6q18 62 18 170v727q0 99 -18 172h153q-16 -61 -16 -172v-727q0 -74 19 -92q21 -19 106 -19q222 0 383 37q-2 -8 -6 -26.5t-6 -28.5q-7 -34 -9 -47z" />
    <glyph glyph-name="lcaron" unicode="&#x13e;" horiz-adv-x="438" 
d="M178 170v739q0 123 -39 170l152 39v-948q0 -88 18 -170h-147q16 81 16 170zM532 1202q-64 -160 -96 -248q-37 13 -39 13l39 235h96z" />
    <glyph glyph-name="Ldot" unicode="&#x13f;" horiz-adv-x="888" 
d="M481 1292q0 28 20 48t48 20q29 0 48 -21q19 -20 19 -47q0 -29 -19 -48t-48 -19t-48 19q-20 20 -20 48zM817 -6l-624 6q18 62 18 170v727q0 99 -18 172h153q-16 -61 -16 -172v-727q0 -74 19 -92q21 -19 106 -19q222 0 383 37q-2 -8 -6 -26.5t-6 -28.5q-7 -34 -9 -47z" />
    <glyph glyph-name="ldot" unicode="&#x140;" horiz-adv-x="425" 
d="M416 1090q0 27 19 47t46 20q28 0 45 -20q19 -22 19 -47q0 -27 -20 -47q-19 -19 -46 -19t-45 19q-18 20 -18 47zM178 170v739q0 123 -39 170l152 39v-948q0 -88 18 -170h-147q16 81 16 170z" />
    <glyph glyph-name="Lslash" unicode="&#x141;" horiz-adv-x="905" 
d="M834 -6l-625 6q18 62 18 170v356l-112 -69l-35 57l147 92v291q0 99 -18 172h153q-16 -61 -16 -172v-219l215 137l35 -55l-250 -158v-432q0 -74 20 -92q21 -19 105 -19q222 0 383 37q-1 -5 -4.5 -23.5t-6.5 -31.5q-7 -34 -9 -47z" />
    <glyph glyph-name="lslash" unicode="&#x142;" horiz-adv-x="507" 
d="M197 170v369l-123 -78l-35 51l158 102v295q0 123 -39 170l151 39v-432l144 94l39 -55l-183 -117v-438q0 -94 17 -170h-146q17 87 17 170z" />
    <glyph glyph-name="Nacute" unicode="&#x143;" horiz-adv-x="1191" 
d="M551 1219l100 192h131l-188 -219zM1001 -2h-16q-38 49 -229 276q-65 78 -176 211t-156 186q-149 177 -154 191h-8v-575q0 -184 25 -287h-125q26 82 26 287v665q0 66 -26 117h90l668 -807h8v518q0 136 -25 289h125q-27 -113 -27 -289v-782z" />
    <glyph glyph-name="nacute" unicode="&#x144;" horiz-adv-x="905" 
d="M414 893l121 227h149l-223 -256zM176 168v399q0 123 -39 170l152 39v-102q135 102 237 102q131 0 190 -89q58 -88 58 -226v-293q0 -130 19 -170h-148q17 62 17 170v238q0 161 -40 223q-40 63 -122 63q-40 0 -109 -32t-102 -64v-428q0 -96 18 -170h-147q16 80 16 170z" />
    <glyph glyph-name="Ncaron" unicode="&#x147;" horiz-adv-x="1191" 
d="M489 1407q4 -4 73 -62q13 -11 27 -23t22.5 -18.5t11.5 -9.5q11 11 77 64l56 47l37 -23q-87 -106 -146 -196h-43q-105 147 -149 198l16 13q3 1 18 10zM1001 -6h-16q-26 32 -230 276q-13 16 -332 399q-148 178 -153 191h-8v-577q0 -182 25 -285h-125q26 81 26 285v665
q0 66 -26 117h90l668 -807h8v518q0 161 -25 289h125q-27 -112 -27 -289v-782z" />
    <glyph glyph-name="ncaron" unicode="&#x148;" horiz-adv-x="905" 
d="M475 948l7 8q6 7 21.5 24.5t32.5 36.5q58 66 99 105l37 -32q-77 -114 -140 -226h-116q-63 112 -140 226l37 32q11 -10 162 -174zM176 170v401q0 125 -39 168l152 41v-102q135 102 237 102q131 0 190 -89q58 -88 58 -226v-295q0 -111 19 -170h-148q17 63 17 170v240
q0 161 -40 223q-40 63 -122 63q-43 0 -109 -31t-102 -65v-430q0 -88 18 -170h-147q16 81 16 170z" />
    <glyph glyph-name="napostrophe" unicode="&#x149;" horiz-adv-x="905" 
d="M90 854q-13 1 -45 10l51 283h97zM176 170v401q0 125 -39 168l152 41v-102q135 102 237 102q131 0 190 -89q58 -88 58 -226v-295q0 -111 19 -170h-148q17 63 17 170v240q0 161 -40 223q-40 63 -122 63q-43 0 -109 -31t-102 -65v-430q0 -88 18 -170h-147q16 81 16 170z" />
    <glyph glyph-name="Eng" unicode="&#x14a;" horiz-adv-x="1368" 
d="M1036 897v-594q0 -224 -55 -361q-55 -138 -201 -210l-18 26q129 89 147 316q-617 740 -649 788h-8v-575q0 -188 24 -287h-124q24 86 24 287v665q0 21 -4 40q-7 33 -8 36l-8 29l-4 12h90l667 -807h9v635q0 94 -19 172h156q-19 -67 -19 -172z" />
    <glyph glyph-name="eng" unicode="&#x14b;" horiz-adv-x="886" 
d="M176 170v401q0 125 -39 168l152 41v-102q135 102 237 102q131 0 190 -89q58 -88 58 -226v-246q0 -108 -28 -206q-26 -92 -71 -157q-41 -59 -80 -100q-33 -35 -69 -59l-34 31q95 122 133 226q37 102 37 292v164q0 161 -40 223q-40 63 -122 63q-43 0 -109 -31t-102 -65
v-430q0 -88 18 -170h-147q16 81 16 170z" />
    <glyph glyph-name="Omacron" unicode="&#x14c;" horiz-adv-x="1191" 
d="M786 1343v-73h-323v73h323zM90 532q0 239 148 392q147 151 358 151q135 0 238 -50q100 -49 157 -133q56 -84 83 -174q28 -95 28 -186q0 -237 -149 -389q-148 -151 -357 -151q-135 0 -238 50q-100 49 -158 132q-55 80 -83 172q-27 90 -27 186zM580 1014q-162 0 -266 -123
q-103 -122 -103 -322q0 -87 18 -169q18 -83 62 -166t126 -134t197 -51q158 0 262 128q103 127 103 327q0 84 -18 166q-17 78 -61 163q-42 81 -125 131t-195 50z" />
    <glyph glyph-name="omacron" unicode="&#x14d;" horiz-adv-x="907" 
d="M98 387q0 171 107 283q106 110 258 110q97 0 171 -37q76 -38 116 -97q40 -60 60 -126q19 -64 19 -133q0 -176 -107 -284q-108 -109 -257 -109q-97 0 -171 37q-77 39 -116 96q-41 61 -60 125q-20 68 -20 135zM453 717q-103 0 -172 -86q-70 -87 -70 -221q0 -58 12 -115
q11 -53 40 -114q26 -56 83 -91q56 -35 129 -35q103 0 172 86q70 87 70 224q0 54 -14 113q-14 57 -40 113q-26 55 -82 91q-55 35 -128 35zM625 1071v-76h-326v76h326z" />
    <glyph glyph-name="Obreve" unicode="&#x14e;" horiz-adv-x="1191" 
d="M608 1296q90 0 170 74q1 -4 14 -10q10 -5 15 -10q-78 -127 -199 -127q-120 0 -196 127l26 20q74 -74 170 -74zM90 537q0 238 148 391q147 151 358 151q135 0 238 -50q100 -49 157 -133q56 -84 83 -174q28 -95 28 -185q0 -237 -149 -391q-148 -152 -357 -152
q-135 0 -238 50q-99 48 -158 133q-55 80 -83 173q-27 90 -27 187zM580 1018q-162 0 -266 -123q-103 -122 -103 -322q0 -87 18 -169q18 -81 62 -165q45 -85 126 -135q82 -51 197 -51q158 0 262 128q103 127 103 327q0 83 -18 166q-17 78 -61 163q-42 81 -125 131t-195 50z
" />
    <glyph glyph-name="obreve" unicode="&#x14f;" horiz-adv-x="907" 
d="M463 1014q104 0 190 80q5 -5 16 -12t15 -11q-85 -143 -221 -143t-225 143q30 21 32 23q80 -80 193 -80zM98 387q0 171 107 283q106 110 258 110q97 0 171 -37q76 -38 116 -97q40 -60 60 -126q19 -64 19 -133q0 -176 -107 -284q-108 -109 -257 -109q-97 0 -171 37
q-77 39 -116 96q-41 61 -60 125q-20 68 -20 135zM453 717q-103 0 -172 -86q-70 -87 -70 -221q0 -58 12 -115q11 -53 40 -114q26 -56 83 -91q56 -35 129 -35q103 0 172 86q70 87 70 224q0 54 -14 113q-14 57 -40 113q-26 55 -82 91q-55 35 -128 35z" />
    <glyph glyph-name="Ohungarumlaut" unicode="&#x150;" horiz-adv-x="1191" 
d="M463 1219l102 192h131l-188 -219q-2 1 -9.5 5.5t-13.5 7.5t-13 8t-9 6zM684 1219l102 192h132l-191 -219zM90 537q0 238 148 391q147 151 358 151q135 0 238 -50q100 -49 157 -133q56 -84 83 -174q28 -95 28 -185q0 -237 -149 -391q-148 -152 -357 -152q-135 0 -238 50
q-99 48 -158 133q-55 80 -83 173q-27 90 -27 187zM580 1018q-162 0 -266 -123q-103 -122 -103 -322q0 -87 18 -169q18 -81 62 -165q45 -85 126 -135q82 -51 197 -51q158 0 262 128q103 127 103 327q0 83 -18 166q-17 78 -61 163q-42 81 -125 131t-195 50z" />
    <glyph glyph-name="ohungarumlaut" unicode="&#x151;" horiz-adv-x="921" 
d="M328 893l121 227h147l-221 -256zM545 893l121 227h149l-223 -256zM98 387q0 171 107 283q106 110 258 110q97 0 171 -37q76 -38 116 -97q40 -60 60 -126q19 -64 19 -133q0 -176 -107 -284q-108 -109 -257 -109q-97 0 -171 37q-77 39 -116 96q-41 61 -60 125
q-20 68 -20 135zM453 717q-103 0 -172 -86q-70 -87 -70 -221q0 -58 12 -115q11 -53 40 -114q26 -56 83 -91q56 -35 129 -35q103 0 172 86q70 87 70 224q0 54 -14 113q-14 57 -40 113q-26 55 -82 91q-55 35 -128 35z" />
    <glyph glyph-name="OE" unicode="&#x152;" horiz-adv-x="1656" 
d="M1102 532v-364q0 -72 19 -90q21 -19 108 -19q220 0 381 37q-1 -7 -5 -24.5t-7 -29.5q-8 -35 -9 -46q-165 4 -545 4h-79q16 63 18 178q-166 -184 -387 -184q-135 0 -238 50q-99 48 -158 133q-55 80 -83 173q-27 90 -27 187q0 238 148 391q147 151 358 151q231 0 387 -174
q-5 114 -18 164q550 0 620 8l-22 -90q-102 21 -326 21q-36 0 -80 -6q-27 -4 -44 -10q-11 -4 -11 -9v-385q270 0 366 10l-20 -88q-123 12 -346 12zM580 1020q-163 0 -265 -123t-102 -324q0 -86 18 -170q17 -80 61 -166q43 -84 125 -135t197 -51q161 0 263 128t102 329
q0 86 -18 168q-17 78 -61 163q-42 81 -125 131t-195 50z" />
    <glyph glyph-name="oe" unicode="&#x153;" horiz-adv-x="1478" 
d="M1339 186l33 -30q-122 -162 -305 -162q-92 0 -169 48q-78 49 -124 130q-105 -178 -309 -178q-97 0 -171 37q-77 39 -116 96q-41 61 -60 125q-20 68 -20 135q0 171 107 283q106 110 258 110q215 0 311 -176q107 176 307 176q138 0 221 -86q82 -85 82 -200q0 -80 -63 -80
h-492q0 -160 82 -248t197 -88q118 0 231 108zM453 717q-103 0 -172 -86q-70 -87 -70 -221q0 -58 12 -115q11 -53 40 -114q26 -56 83 -91q56 -35 129 -35q103 0 172 86q70 87 70 224q0 56 -12 113q-11 51 -40 113q-26 56 -83 91q-56 35 -129 35zM1071 717q-77 0 -148 -63
t-87 -173h405q22 0 29 7q8 8 8 32q0 83 -55 139q-56 58 -152 58z" />
    <glyph glyph-name="Racute" unicode="&#x154;" horiz-adv-x="1052" 
d="M461 1219l102 192h131l-188 -219q-2 1 -9.5 5.5t-13.5 7.5t-13 8t-9 6zM610 492q46 -71 110 -159q60 -83 164 -193q105 -111 175 -132v-8h-193q-21 10 -45 33q-33 30 -49 48q-32 34 -55 64q-50 65 -53 69q-36 48 -54 75l-46 67q-24 36 -41 62q-26 40 -27 43
q-36 -2 -74 -2h-92v-289q0 -21 2 -59q0 -8 1 -17l2 -18t1 -13l2.5 -17.5t1.5 -14.5t4 -22q0 -2 0.5 -4t1.5 -3v-2h-153q18 62 18 170v727q0 99 -18 172h75q36 0 100 4t121 4q340 0 340 -297q0 -206 -219 -288zM330 981v-457q21 -6 82 -6q286 0 286 248q0 125 -61 187
q-61 63 -172 63q-52 0 -92 -11q-43 -12 -43 -24z" />
    <glyph glyph-name="racute" unicode="&#x155;" horiz-adv-x="577" 
d="M262 893l121 227h147l-221 -256zM176 170v401q0 125 -39 168l152 41v-102q135 102 237 102q36 0 66 -6q-11 -65 -21 -110q-38 26 -86 26q-42 0 -102 -28t-94 -62v-430q0 -88 18 -170h-147q16 81 16 170z" />
    <glyph glyph-name="Rcommaaccent" unicode="&#x156;" horiz-adv-x="1052" 
d="M516 -262q-4 -33 -32 -90t-76 -101l14 -16q182 143 182 268q0 29 -19 48q-20 20 -48 20q-30 0 -48 -20q-18 -19 -18 -48q0 -46 45 -61zM610 492q46 -71 110 -159q60 -83 164 -193q105 -111 175 -132v-8h-193q-110 55 -370 461q-36 -2 -74 -2h-92v-289q0 -21 2 -59
q0 -8 1 -17l2 -18t1 -13l2.5 -17.5t1.5 -14.5t4 -22q0 -2 0.5 -4t1.5 -3v-2h-153q18 62 18 170v727q0 117 -18 172h75q36 0 100 4t121 4q340 0 340 -297q0 -206 -219 -288zM330 981v-457q21 -6 82 -6q286 0 286 248q0 125 -61 187q-61 63 -172 63q-52 0 -92 -11
q-43 -12 -43 -24z" />
    <glyph glyph-name="Rcaron" unicode="&#x158;" horiz-adv-x="1052" 
d="M352 1386q1 0 7.5 4t11.5 7q12 6 20 14l129 -113q28 25 131 113l39 -29q-80 -92 -141 -192h-49q-105 145 -148 196zM610 492q46 -71 110 -159q60 -83 164 -193q105 -111 175 -132v-8h-193q-21 10 -45 33q-33 30 -49 48q-32 34 -55 64q-50 65 -53 69q-36 48 -54 75l-46 67
q-24 36 -41 62q-26 40 -27 43q-36 -2 -74 -2h-92v-289q0 -21 2 -59q0 -8 1 -17l2 -18t1 -13l2.5 -17.5t1.5 -14.5t4 -22q0 -2 0.5 -4t1.5 -3v-2h-153q18 62 18 170v727q0 99 -18 172h75q36 0 100 4t121 4q340 0 340 -297q0 -206 -219 -288zM330 981v-457q21 -6 82 -6
q286 0 286 248q0 125 -61 187q-61 63 -172 63q-52 0 -92 -11q-43 -12 -43 -24z" />
    <glyph glyph-name="rcaron" unicode="&#x159;" horiz-adv-x="577" 
d="M348 948l6 8q7 7 22.5 24.5t32.5 36.5q59 66 99 105q2 -2 6.5 -6t13 -11t17.5 -15q-72 -106 -139 -226h-117q-67 120 -139 226l36 32q10 -10 162 -174zM176 170v401q0 125 -39 168l152 41v-102q135 102 237 102q36 0 66 -6q-11 -65 -21 -110q-38 26 -86 26
q-42 0 -102 -28t-94 -62v-430q0 -88 18 -170h-147q16 81 16 170z" />
    <glyph glyph-name="Sacute" unicode="&#x15a;" horiz-adv-x="817" 
d="M385 1219l100 192h131l-188 -219zM379 53q100 0 159 52q60 53 60 145q0 76 -51 131q-50 55 -124 93q-74 39 -145 77q-74 40 -124 103q-52 66 -52 153q0 115 91 194q90 78 241 78q117 0 228 -59q-4 -27 -9 -82q-109 80 -239 80q-94 0 -149 -50q-54 -49 -54 -120
q0 -80 52 -136q51 -55 126 -92q123 -60 148 -73q74 -38 126 -100t52 -148q0 -134 -97 -220q-95 -85 -260 -85q-68 0 -143 22q-71 21 -119 54q-4 19 -4 43q0 30 4 57q6 39 8 47l5 19q23 -88 101 -135q80 -48 169 -48z" />
    <glyph glyph-name="sacute" unicode="&#x15b;" horiz-adv-x="757" 
d="M375 893l121 227h147l-221 -256zM383 55q57 0 110 38q52 37 52 97q0 52 -42 90q-41 36 -101 61q-13 5 -36.5 15t-43 18t-37.5 15q-58 23 -102 69q-42 44 -42 107q0 95 73 156q71 59 192 59q150 0 249 -112q-9 -6 -41 -33q-18 -15 -28 -25q-77 107 -199 107q-52 0 -99 -32
q-46 -31 -46 -81t43 -84q44 -35 103 -57q68 -26 121 -48q58 -25 103 -71q43 -44 43 -111q0 -119 -89 -179q-88 -60 -201 -60q-187 0 -281 145q7 7 76 58q41 -73 90 -107q50 -35 133 -35z" />
    <glyph glyph-name="Scircumflex" unicode="&#x15c;" horiz-adv-x="817" 
d="M305 1190q-8 8 -20 14q-3 2 -6.5 3.5t-5.5 3t-4 2.5t-3 1q39 45 148 197h49q61 -101 141 -192l-39 -29q-121 105 -129 113q-124 -106 -131 -113zM379 53q100 0 159 52q60 53 60 145q0 76 -51 131q-50 55 -124 93q-74 39 -145 77q-74 40 -124 103q-52 66 -52 153
q0 115 91 194q90 78 241 78q117 0 228 -59q-4 -27 -9 -82q-109 80 -239 80q-94 0 -149 -50q-54 -49 -54 -120q0 -80 52 -136q51 -55 126 -92q123 -60 148 -73q74 -38 126 -100t52 -148q0 -134 -97 -220q-95 -85 -260 -85q-68 0 -143 22q-71 21 -119 54q-4 19 -4 43
q0 30 4 57q6 39 8 47l5 19q23 -88 101 -135q80 -48 169 -48z" />
    <glyph glyph-name="scircumflex" unicode="&#x15d;" horiz-adv-x="757" 
d="M406 1036q-107 -123 -162 -174q-2 1 -8.5 7t-10.5 11q-5 5 -10 9.5t-6 5.5q60 88 137 225h119q77 -137 137 -225q-1 -1 -6 -5.5t-10 -9.5t-11.5 -11t-7.5 -7q-34 32 -58 59q-4 5 -25 28t-33 36q-30 35 -45 51zM383 55q57 0 110 38q52 37 52 97q0 52 -42 90
q-41 36 -101 61q-13 5 -36.5 15t-43 18t-37.5 15q-58 23 -102 69q-42 44 -42 107q0 96 73 155q71 58 192 58q149 0 249 -110l-69 -58q-74 105 -199 105q-51 0 -99 -31q-46 -30 -46 -80q0 -59 64 -101q65 -43 143 -65q79 -23 142 -74q64 -52 64 -131q0 -119 -89 -179
q-88 -60 -201 -60q-187 0 -281 145q13 11 38 29t38 29q41 -73 90 -107q50 -35 133 -35z" />
    <glyph glyph-name="Scedilla" unicode="&#x15e;" horiz-adv-x="817" 
d="M379 53q100 0 159 52q60 53 60 145q0 76 -51 131q-50 55 -124 93q-74 39 -145 77q-74 40 -124 103q-52 66 -52 153q0 115 91 194q90 78 241 78q117 0 228 -59q-4 -27 -9 -82q-109 80 -239 80q-94 0 -149 -50q-54 -49 -54 -120q0 -80 52 -136q51 -55 126 -92
q123 -60 148 -73q74 -38 126 -100t52 -148q0 -125 -81 -207t-224 -94l-37 -92q66 -7 102 -43q35 -35 35 -82q0 -53 -44 -94t-116 -41q-51 0 -121 20l23 47q49 -18 82 -18q43 0 66 22q24 23 24 54q0 34 -39 61t-106 27l75 135q-64 1 -143 23q-72 20 -115 53q-4 19 -4 43
q0 30 4 57q6 39 8 47l5 19q23 -88 101 -135q80 -48 169 -48z" />
    <glyph glyph-name="scedilla" unicode="&#x15f;" horiz-adv-x="757" 
d="M383 55q59 0 112 38q52 37 52 97q0 52 -42 90q-41 37 -102 61l-117 48q-57 23 -101 69q-42 44 -42 107q0 96 72 156q71 59 190 59q154 0 250 -112l-69 -58q-72 107 -199 107q-55 0 -100 -31q-43 -30 -43 -82q0 -50 42 -84q42 -35 103 -57q65 -24 122 -48q59 -25 102 -71
q42 -45 42 -111q0 -112 -80 -172q-78 -59 -186 -65l-37 -90q68 -8 103 -43q34 -34 34 -82q0 -53 -44 -94t-115 -41q-51 0 -121 20l22 47q49 -18 82 -18q43 0 66 23q24 24 24 53q0 35 -38 61q-39 27 -107 27q11 22 38 68q24 41 38 69q-158 6 -248 143q9 7 38 30q8 6 20 15.5
t16 12.5q45 -74 92 -107q50 -35 131 -35z" />
    <glyph glyph-name="Scaron" unicode="&#x160;" horiz-adv-x="817" 
d="M289 1407q13 -13 72 -62q13 -11 27 -23t22.5 -18.5t11.5 -9.5q18 12 46 37q27 24 30 27l57 47l37 -23q-99 -121 -146 -196h-43q-104 144 -151 198q2 0 2 2l16 11q5 1 19 10zM379 53q100 0 159 52q60 53 60 145q0 76 -51 131q-50 55 -124 93q-74 39 -145 77
q-74 40 -124 103q-52 66 -52 153q0 115 91 194q90 78 241 78q117 0 228 -59q-4 -27 -9 -82q-109 80 -239 80q-94 0 -149 -50q-54 -49 -54 -120q0 -80 52 -136q51 -55 126 -92q123 -60 148 -73q74 -38 126 -100t52 -148q0 -134 -97 -220q-95 -85 -260 -85q-68 0 -143 22
q-71 21 -119 54q-4 19 -4 43q0 30 4 57q6 39 8 47l5 19q23 -88 101 -135q80 -48 169 -48z" />
    <glyph glyph-name="scaron" unicode="&#x161;" horiz-adv-x="757" 
d="M406 948q124 141 159 174q2 -2 20 -18q9 -8 15 -14q-62 -93 -137 -226h-119q-80 143 -137 226l37 32q10 -10 162 -174zM383 55q57 0 110 38q52 37 52 97q0 52 -42 90q-41 36 -101 61q-13 5 -36.5 15t-43 18t-37.5 15q-58 23 -102 69q-42 44 -42 107q0 95 73 156
q71 59 192 59q150 0 249 -112q-9 -6 -41 -33q-18 -15 -28 -25q-77 107 -199 107q-52 0 -99 -32q-46 -31 -46 -81t43 -84q44 -35 103 -57q68 -26 121 -48q58 -25 103 -71q43 -44 43 -111q0 -119 -89 -179q-88 -60 -201 -60q-187 0 -281 145q7 7 76 58q41 -73 90 -107
q50 -35 133 -35z" />
    <glyph glyph-name="Tcedilla" unicode="&#x162;" horiz-adv-x="813" 
d="M465 170q0 -114 18 -170h-51q-36 -87 -39 -94q66 -7 102 -43q33 -33 33 -82q0 -53 -44 -94t-115 -41q-53 0 -119 20l20 47q50 -18 82 -18q40 0 66 23t26 53q0 35 -38 61q-39 27 -109 27l82 141h-51q18 62 18 170v817q-16 21 -98 21q-152 0 -246 -21l18 88q43 -6 316 -6
h137q289 0 338 6q-1 -21 -10 -88q-95 21 -236 21q-92 0 -100 -23v-815z" />
    <glyph glyph-name="tcedilla" unicode="&#x163;" horiz-adv-x="567" 
d="M201 195v485h-123l-4 47q174 4 198 197h41v-172h224l-9 -72h-215v-453q0 -149 144 -178l-13 -55q-73 5 -110 16q-15 -31 -45 -104q65 -7 101 -43q34 -34 34 -82q0 -53 -44 -94t-116 -41q-53 0 -119 20l21 47q50 -18 82 -18q44 0 67 22q25 23 25 54q0 34 -39 61t-108 27
l98 170q-90 53 -90 166z" />
    <glyph glyph-name="Tcaron" unicode="&#x164;" horiz-adv-x="811" 
d="M236 1386q1 0 6.5 4t11.5 7q12 6 20 14l129 -113q35 27 78 66q46 41 54 47l38 -29q-79 -92 -141 -192h-51q-85 124 -145 196zM465 170q0 -21 2 -59q0 -8 1 -17l2 -18t1 -13l2.5 -17.5t1.5 -14.5t4 -22q0 -2 0.5 -4t0.5 -3l1 -2h-153q18 62 18 170v817q-16 21 -100 21
q-150 0 -244 -21l18 88q43 -6 316 -6h137q289 0 338 6q-9 -67 -10 -88q-99 21 -238 21q-90 0 -98 -23v-815z" />
    <glyph glyph-name="tcaron" unicode="&#x165;" horiz-adv-x="575" 
d="M455 989q6 11 18 35t16 31q4 8 18.5 35t22.5 43q9 17 21.5 40.5t13.5 24.5h137l-206 -237q-7 7 -21 14q-12 6 -20 14zM201 195v485h-123l-4 47q174 4 198 197h41v-172h224l-9 -72h-215v-453q0 -149 144 -178l-13 -55q-120 1 -182 57q-61 55 -61 144z" />
    <glyph glyph-name="Tbar" unicode="&#x166;" horiz-adv-x="813" 
d="M465 170q0 -114 18 -170h-155q18 62 18 170v526h-205v52h205v239q-16 21 -98 21q-152 0 -246 -21l18 88q33 -6 316 -6h137q289 0 338 6q-1 -21 -10 -88q-95 21 -236 21q-92 0 -100 -23v-237h197v-52h-197v-526z" />
    <glyph glyph-name="tbar" unicode="&#x167;" horiz-adv-x="569" 
d="M201 195v301h-115v57h115v127h-123l-4 47q174 4 198 197h41v-172h224l-9 -72h-215v-127h199l-4 -57h-195v-269q0 -149 144 -178l-13 -55q-120 1 -182 57q-61 55 -61 144z" />
    <glyph glyph-name="Ubreve" unicode="&#x16c;" horiz-adv-x="1163" 
d="M309 897v-408q0 -235 78 -329t236 -94q166 0 236 106q71 107 71 332v276q0 210 -27 289h123q-25 -117 -25 -289v-295q0 -235 -95 -363t-312 -128q-190 0 -297 108q-107 109 -107 361v434q0 99 -18 172h154q-17 -65 -17 -172zM639 1321q96 0 170 74l3 -2l4 -4q7 -7 11 -10
q8 -6 11 -7q-78 -125 -199 -125q-120 0 -197 125l29 23q74 -74 168 -74z" />
    <glyph glyph-name="ubreve" unicode="&#x16d;" horiz-adv-x="983" 
d="M504 1061q108 0 190 82l31 -25q-88 -143 -221 -143q-47 0 -112 31q-61 29 -111 112q5 2 9 6l11 11q7 7 10 8q82 -82 193 -82zM309 362q0 -161 40 -223q41 -63 122 -63q42 0 111 32q68 32 100 64v408q0 120 -39 159l152 41v-647q0 -112 43 -133h-150v94h-6
q-133 -100 -236 -100q-132 0 -191 89q-58 88 -58 224v273q0 120 -39 159l151 41v-418z" />
    <glyph glyph-name="Uring" unicode="&#x16e;" horiz-adv-x="1163" 
d="M530 1290q0 43 31 74t76 31q42 0 73 -31q29 -29 29 -74q0 -43 -29 -72q-30 -30 -73 -30q-46 0 -76 30q-31 31 -31 72zM569 1290q0 -29 20 -47q19 -18 48 -18q27 0 46 19t19 46q0 29 -19 49q-20 21 -46 21q-29 0 -48 -21q-20 -22 -20 -49zM309 897v-408q0 -235 78 -329
t236 -94q166 0 236 106q71 107 71 332v276q0 210 -27 289h123q-25 -117 -25 -289v-295q0 -235 -95 -363t-312 -128q-190 0 -297 108q-107 109 -107 361v434q0 117 -18 172h154q-17 -65 -17 -172z" />
    <glyph glyph-name="uring" unicode="&#x16f;" horiz-adv-x="983" 
d="M463 993q0 -27 19 -46t48 -19q30 0 49 19t19 46q0 29 -19 49q-20 21 -49 21q-28 0 -48 -21q-19 -20 -19 -49zM418 993q0 47 33 81t79 34q49 0 82 -34t33 -81q0 -45 -33 -78q-32 -32 -82 -32q-45 0 -78 32q-34 33 -34 78zM309 362q0 -161 40 -223q41 -63 122 -63
q42 0 111 32q68 32 100 64v408q0 120 -39 159l152 41v-647q0 -112 43 -133h-150v94h-6q-133 -100 -236 -100q-132 0 -191 89q-58 88 -58 224v273q0 120 -39 159l151 41v-418z" />
    <glyph glyph-name="Uhungarumlaut" unicode="&#x170;" horiz-adv-x="1163" 
d="M485 1219l103 192h129l-189 -219zM707 1219l100 192h131l-188 -219zM309 897v-408q0 -235 78 -329t236 -94q166 0 236 106q71 107 71 332v276q0 210 -27 289h123q-25 -117 -25 -289v-295q0 -235 -95 -363t-312 -128q-190 0 -297 108q-107 109 -107 361v434q0 99 -18 172
h154q-17 -65 -17 -172z" />
    <glyph glyph-name="uhungarumlaut" unicode="&#x171;" horiz-adv-x="980" 
d="M375 893l123 227h147l-221 -256zM594 893q11 17 55 104q22 44 66 123h147l-221 -256q-1 0 -3 1.5l-4 3t-6 4t-8 4.5q-22 13 -26 16zM309 362q0 -161 40 -223q41 -63 122 -63q42 0 111 32q68 32 100 64v408q0 120 -39 159l152 41v-647q0 -112 43 -133h-150v94h-6
q-133 -100 -236 -100q-132 0 -191 89q-58 88 -58 224v273q0 120 -39 159l151 41v-418z" />
    <glyph glyph-name="Uogonek" unicode="&#x172;" horiz-adv-x="1163" 
d="M309 897v-408q0 -235 78 -329t236 -94q166 0 236 106q71 107 71 332v276q0 210 -27 289h123q-25 -117 -25 -289v-295q0 -446 -331 -485q-68 -23 -131 -78q-64 -56 -64 -106q0 -76 98 -76q43 0 113 31l23 -35q-78 -66 -158 -66q-82 0 -123 38t-41 97q0 57 52 106
q55 52 120 85q-369 15 -369 467v434q0 99 -18 172h154q-17 -65 -17 -172z" />
    <glyph glyph-name="uogonek" unicode="&#x173;" horiz-adv-x="950" 
d="M291 362q0 -161 40 -223q41 -63 122 -63q39 0 108 32q70 33 103 64v408q0 116 -39 159l151 41v-598q0 -164 43 -182q-96 -6 -173 -68t-77 -116q0 -76 99 -76q47 0 112 31q22 -31 23 -35q-76 -66 -158 -66t-123 38t-41 97q0 64 63 118q64 55 126 83v88h-6
q-133 -100 -238 -100q-130 0 -189 89t-59 224v273q0 116 -39 159l152 41v-418z" />
    <glyph glyph-name="Wcircumflex" unicode="&#x174;" horiz-adv-x="1576" 
d="M670 1190l-37 24q56 67 145 197h51q59 -97 142 -192l-39 -29q-3 2 -53 47q-43 39 -78 66q-124 -106 -131 -113zM1135 184h8q70 201 107 302q21 58 48.5 133t33.5 92q17 46 49 138q22 64 31 99q7 28 7 53q0 45 -6 68h152q-39 -57 -105 -231l-319 -844h-54l-299 840
l-319 -840h-53l-310 868q-61 158 -94 207h197q-8 -30 -8 -68q0 -37 32 -136q24 -73 138 -408q54 -150 94 -273h8q107 300 137 381q77 209 98 272q26 76 33 115q-25 67 -57 117h205q-12 -24 -12 -72q0 -53 114 -389q11 -37 70 -205q20 -60 74 -219z" />
    <glyph glyph-name="wcircumflex" unicode="&#x175;" horiz-adv-x="1284" 
d="M657 1036q-112 -128 -161 -174q-2 2 -20 18q-14 13 -15 15q65 98 137 225h119q77 -137 137 -225l-37 -33q-34 33 -99 106q-55 62 -61 68zM854 0q-10 20 -215 557q-23 -57 -88 -243q-59 -167 -117 -314h-90q-27 64 -229 590q-40 105 -86 162h174q6 -70 40 -179
q38 -121 158 -430h9q107 304 155 451q34 104 35 158h115q12 -140 198 -609h9q118 329 154 448q31 105 36 161h133q-18 -6 -56 -101q-50 -126 -115 -307q-73 -203 -128 -344h-92z" />
    <glyph glyph-name="Ycircumflex" unicode="&#x176;" horiz-adv-x="972" 
d="M393 1190q-5 6 -19 13q-16 9 -18 11q69 85 146 197h51q55 -91 139 -192l-37 -29l-131 113q-125 -106 -131 -113zM504 508q168 269 230 382q57 104 57 146q0 9 -3 33h156q-15 -15 -28 -36q-5 -8 -47 -74q-31 -49 -69 -111q-15 -24 -112 -177q-138 -216 -156 -245v-256
q0 -111 19 -170h-154q17 63 17 170v254q-74 128 -111 194q-17 29 -46 81.5t-40 71.5q-20 36 -62 110q-18 31 -47 81q-4 7 -31 50q-14 22 -25 37q-9 12 -17 20h196q-2 -14 -2 -22q0 -42 50 -142q51 -102 217 -397h8z" />
    <glyph glyph-name="ycircumflex" unicode="&#x177;" horiz-adv-x="780" 
d="M422 1036q-152 -164 -162 -174l-37 33q75 111 139 225h117q64 -114 139 -225l-36 -33q-41 40 -100 106q-17 19 -32 36t-22 24zM117 590q-38 99 -86 162h174q5 -68 39 -179q32 -103 164 -430h8q143 384 168 462q29 92 34 147h134q-37 -49 -82 -162q-2 -5 -56 -138
q-50 -122 -81 -204q-35 -92 -75 -202q-54 -150 -76 -218q-30 -95 -46 -166h-131q20 27 45 82q25 54 62 148q30 76 46 114l-20 19q-75 178 -221 565z" />
    <glyph glyph-name="Ydieresis" unicode="&#x178;" horiz-adv-x="972" 
d="M555 1292q0 29 19 48q20 20 47 20t49 -20q20 -19 20 -48t-20 -48t-49 -19q-30 0 -48 19q-18 20 -18 48zM350 1292q0 28 20 48t46 20q27 0 49 -20q20 -19 20 -48t-20 -48t-49 -19t-47 19q-19 21 -19 48zM504 508q168 269 230 382q57 104 57 146q0 9 -3 33h156
q-15 -15 -28 -36q-5 -8 -47 -74q-31 -49 -69 -111q-15 -24 -112 -177q-138 -216 -156 -245v-256q0 -111 19 -170h-154q17 63 17 170v254q-74 128 -111 194q-17 29 -46 81.5t-40 71.5q-20 36 -62 110q-18 31 -47 81q-4 7 -31 50q-14 22 -25 37q-9 12 -17 20h196
q-2 -14 -2 -22q0 -42 50 -142q51 -102 217 -397h8z" />
    <glyph glyph-name="Zacute" unicode="&#x179;" horiz-adv-x="987" 
d="M496 1194l-37 25l102 192h123zM883 1065v-29l-621 -915q-22 -34 -22 -41q0 -25 135 -25q330 0 491 37l-20 -100q-441 6 -797 6v27l658 958q0 2 -41 7q-39 4 -101 9q-67 5 -106 5q-245 0 -350 -21l8 90q54 -8 766 -8z" />
    <glyph glyph-name="zacute" unicode="&#x17a;" horiz-adv-x="724" 
d="M350 893l121 227h150l-230 -254zM557 0h-502l-12 8l449 672h-234q-81 0 -178 -41l43 119q43 -6 104 -6h424q5 -12 8 -15l-440 -667h248q115 0 203 26q-3 -7 -19 -47q-4 -9 -9 -21.5t-8 -20.5t-5 -13q-24 6 -72 6z" />
    <glyph glyph-name="Zdotaccent" unicode="&#x17b;" horiz-adv-x="987" 
d="M436 1292q0 28 20 48t46 20t47 -21q20 -20 20 -47q0 -29 -19 -48t-48 -19t-47 19q-19 21 -19 48zM883 1069v-31l-621 -913q-22 -34 -22 -43q0 -23 135 -23q330 0 491 37q-1 -5 -4.5 -23.5t-6.5 -31.5q-7 -34 -9 -47q-441 6 -797 6v27l658 960q0 2 -41 7q-67 7 -101 10
q-53 4 -106 4q-245 0 -350 -21l8 90q54 -8 766 -8z" />
    <glyph glyph-name="zdotaccent" unicode="&#x17c;" horiz-adv-x="724" 
d="M557 0h-502l-12 8l449 672h-234q-81 0 -178 -41l43 119q43 -6 104 -6h424q5 -12 8 -15l-440 -667h248q115 0 203 26q-3 -7 -19 -47q-4 -9 -9 -21.5t-8 -20.5t-5 -13q-24 6 -72 6zM344 1014q0 25 20 47q19 20 46 20q29 0 48 -20t19 -47t-19 -47q-20 -21 -48 -21
q-26 0 -46 21q-20 22 -20 47z" />
    <glyph glyph-name="Zcaron" unicode="&#x17d;" horiz-adv-x="987" 
d="M350 1405l43 31l142 -119l137 117q11 -10 41 -27q-76 -86 -154 -197h-53q-84 112 -156 195zM883 1069v-31l-621 -913q-22 -34 -22 -43q0 -23 135 -23q330 0 491 37q-1 -5 -4.5 -23.5t-6.5 -31.5q-7 -34 -9 -47q-441 6 -797 6v27l658 960q0 2 -41 7q-67 7 -101 10
q-53 4 -106 4q-245 0 -350 -21l8 90q54 -8 766 -8z" />
    <glyph glyph-name="zcaron" unicode="&#x17e;" horiz-adv-x="724" 
d="M557 0h-502l-12 8l449 672h-234q-105 0 -178 -41l43 119q43 -6 104 -6h424q5 -12 8 -15l-440 -667h248q115 0 203 26q-3 -7 -19 -47q-4 -9 -9 -21.5t-8 -20.5t-5 -13q-24 6 -72 6zM401 948q119 135 160 174q2 -2 20 -18q9 -8 15 -14q-57 -83 -137 -226h-119
q-80 143 -137 226q6 6 15 14q18 16 20 18q20 -19 163 -174z" />
    <glyph glyph-name="florin" unicode="&#x192;" horiz-adv-x="1132" 
d="M195 41q2 3 11 29t11 30q21 -6 68 -6t79 26q31 25 52 85q16 44 31 112q10 42 28 154q14 84 29 162h-137v59h149q33 177 120 254q86 76 222 76h14q10 0 16 -1t11 -1q-1 -1 -6.5 -12.5t-11.5 -21.5q-12 -20 -23 -38q-51 15 -80 15q-55 0 -87 -51q-31 -48 -58 -220h203
l-15 -59h-196q-13 -79 -31 -165q-7 -33 -31 -132q-18 -74 -36 -111q-16 -33 -45 -80q-27 -43 -60 -61q-37 -20 -79 -31q-47 -12 -103 -12h-45z" />
    <glyph glyph-name="Aringacute" unicode="&#x1fa;" horiz-adv-x="972" 
d="M952 0h-194q6 22 6 59v19q-1 19 -11 51q-9 29 -20 58q-7 19 -33 89q-35 95 -38 103h-398q-4 -9 -13 -34t-14 -37q-5 -14 -14 -36.5t-12 -29.5q-3 -8 -20 -53q-10 -27 -16 -50q-5 -18 -9 -39q-4 -19 -4 -37q0 -42 6 -63h-156q41 64 101 209l354 881h49l336 -885
q41 -112 100 -205zM463 893l-174 -449h348l-166 449h-8zM406 1196q0 35 23 58q25 25 56 26l70 131h121q-17 -18 -73 -83q-51 -59 -58 -68q30 -24 30 -64q0 -35 -24 -59q-25 -25 -59 -25q-37 0 -62 25q-24 24 -24 59zM436 1196q0 -22 17 -39q16 -16 39 -16q22 0 38 16
q17 17 17 39q0 21 -17 40q-16 17 -38 17q-23 0 -39 -17q-17 -19 -17 -40z" />
    <glyph glyph-name="aringacute" unicode="&#x1fb;" horiz-adv-x="851" 
d="M348 950q0 38 28 66q26 26 68 28l80 154h121l-139 -172q41 -27 41 -76q0 -38 -29 -65q-28 -27 -69 -27t-71 27t-30 65zM391 950q0 -23 17 -42q16 -17 41 -17q24 0 40 17q17 19 17 42q0 26 -17 43t-40 17q-24 0 -41 -17t-17 -43zM735 0h-143q0 38 -1 68t-1 69h-8
q-83 -143 -273 -143q-107 0 -168 51t-61 127q0 211 502 250v80q0 215 -170 215q-104 0 -211 -109l-43 72q136 100 288 100q248 0 248 -286v-340q0 -42 12 -92q12 -51 29 -62zM201 174q0 -46 39 -80q40 -35 96 -35q95 0 171 73q75 72 75 235q-381 -29 -381 -193z" />
    <glyph glyph-name="Scommaaccent" unicode="&#x218;" horiz-adv-x="817" 
d="M369 -262q-47 15 -47 61q0 29 19 48q20 20 48 20q29 0 47 -20q19 -21 19 -48q0 -124 -183 -268l-12 16q50 45 77 101q28 57 32 90zM379 53q100 0 159 52q60 53 60 145q0 76 -51 131q-50 55 -124 93q-74 39 -145 77q-74 40 -124 103q-52 66 -52 153q0 115 91 194
q90 78 241 78q117 0 228 -59q-4 -27 -9 -82q-109 80 -239 80q-94 0 -149 -50q-54 -49 -54 -120q0 -80 52 -136q51 -55 126 -92q123 -60 148 -73q74 -38 126 -100t52 -148q0 -134 -97 -220q-95 -85 -260 -85q-68 0 -143 22q-71 21 -119 54q-4 19 -4 43q0 30 4 57q6 39 8 47
l5 19q23 -88 101 -135q80 -48 169 -48z" />
    <glyph glyph-name="uni021A" unicode="&#x21a;" horiz-adv-x="813" 
d="M387 -262q-45 15 -45 61q0 29 18 48q18 20 48 20q28 0 48 -20q19 -19 19 -48q0 -125 -182 -268l-14 16q48 44 76 101t32 90zM465 170q0 -21 2 -59q0 -8 1 -17l2 -18t1 -13l2.5 -17.5t1.5 -14.5t4 -22q0 -2 0.5 -4t0.5 -3l1 -2h-153q18 62 18 170v817q-16 21 -100 21
q-150 0 -244 -21l18 88q43 -6 316 -6h137q289 0 338 6q-9 -67 -10 -88q-99 21 -238 21q-90 0 -98 -23v-815z" />
    <glyph glyph-name="uni021B" unicode="&#x21b;" horiz-adv-x="608" 
d="M299 -281q-49 15 -49 62q0 27 19 46t46 19q66 0 66 -77q0 -94 -131 -230l-33 29q32 37 55 83q26 52 27 68zM201 195v485h-123l-4 47q174 4 198 197h41v-172h224l-9 -72h-215v-453q0 -149 144 -178l-13 -55q-120 1 -182 57q-61 55 -61 144z" />
    <glyph glyph-name="circumflex" unicode="&#x2c6;" horiz-adv-x="507" 
d="M449 899q-4 -5 -18 -16q-10 -8 -17 -17l-10 10q-9 11 -31.5 35t-48.5 52h2l-70 77q-31 -31 -73 -79q-56 -64 -87 -95l-37 33q70 99 134 219h124q59 -117 132 -219z" />
    <glyph glyph-name="caron" unicode="&#x2c7;" horiz-adv-x="460" 
d="M387 1112q2 -2 8.5 -7.5t10.5 -8.5q8 -7 16 -15q-70 -104 -131 -221h-125q-68 129 -131 221q8 8 16 15q4 3 10.5 8.5t8.5 7.5l90 -96l69 -80q8 8 51 59q53 63 107 117z" />
    <glyph glyph-name="breve" unicode="&#x2d8;" horiz-adv-x="696" 
d="M350 1014q105 0 191 80q7 -7 15 -12q11 -7 15 -11q-85 -143 -221 -143t-225 143q8 6 16.5 12t12.5 9l4 2q80 -80 192 -80z" />
    <glyph glyph-name="dotaccent" unicode="&#x2d9;" horiz-adv-x="671" 
d="M279 1018q0 29 18 50q19 22 43 22t43 -22q18 -21 18 -50q0 -26 -18 -47t-45 -21q-24 0 -42 21q-17 20 -17 47z" />
    <glyph glyph-name="ring" unicode="&#x2da;" horiz-adv-x="606" 
d="M246 993q0 -29 19 -47t48 -18t48 19q20 20 20 46q0 27 -20 49q-19 21 -48 21t-48 -21q-19 -20 -19 -49zM199 993q0 48 33 81q34 34 81 34t80 -34t33 -81q0 -45 -33 -78q-32 -32 -80 -32t-81 32t-33 78z" />
    <glyph glyph-name="ogonek" unicode="&#x2db;" horiz-adv-x="487" 
d="M283 6h94q-74 -29 -135 -85q-62 -57 -62 -105q0 -76 101 -76q42 0 112 31l21 -35q-76 -66 -156 -66q-82 0 -123 38t-41 97q0 64 63 118q64 55 126 83z" />
    <glyph glyph-name="tilde" unicode="&#x2dc;" horiz-adv-x="632" 
d="M406 938q-37 0 -90 37t-91 37q-36 0 -92 -62l-35 33q6 10 22 31q15 20 52 50q40 32 74 32q40 0 93 -37t89 -37q42 0 92 63l35 -34q-11 -18 -21 -31q-14 -19 -54 -50q-41 -32 -74 -32z" />
    <glyph glyph-name="hungarumlaut" unicode="&#x2dd;" horiz-adv-x="632" 
d="M311 891l121 227h148l-230 -254q-6 6 -16 13q-2 1 -23 14zM76 891l121 227h149l-229 -254z" />
    <glyph glyph-name="pi" unicode="&#x3c0;" horiz-adv-x="919" 
d="M563 543h-190q-12 -79 -18 -146q-7 -71 -17 -153q-6 -51 -25 -124q-17 -64 -48 -96q-32 -32 -79 -32q-29 0 -46 14t-17 37q0 31 25 71q13 20 57 80q31 42 59 132q28 91 33 215q-57 -1 -100 -22q-41 -20 -56 -41q-27 -38 -28 -39q-14 -17 -27 -17q-33 0 -33 61
q0 59 64 114q63 54 182 54h391q87 0 133 15q15 -18 15 -56q0 -30 -26 -51q-24 -20 -79 -20q-27 0 -49 1t-39 1q-27 -35 -27 -187q0 -96 27 -165q27 -68 88 -68q62 0 139 37q-5 -80 -71 -123q-67 -43 -135 -43q-136 0 -136 258q0 142 33 293z" />
    <glyph glyph-name="uni1E9E" unicode="&#x1e9e;" horiz-adv-x="1110" 
d="M348 0h-153q18 56 18 178v445q0 178 115 313q114 133 309 133h256q-8 -125 -60 -239q-52 -112 -145 -187l4 -8q144 0 220 -79q77 -80 77 -194q0 -145 -104 -256q-105 -112 -271 -112q-86 0 -155 12l12 68q49 -15 115 -15q131 0 210 82q78 81 78 191q0 97 -62 165t-181 68
q-31 0 -84 -14q-3 5 -9 17q-4 8 -10 18l-4 8q133 64 185 177q54 116 55 230h-111q-323 0 -323 -385v-436q0 -106 18 -180z" />
    <glyph glyph-name="endash" unicode="&#x2013;" horiz-adv-x="753" 
d="M676 406h-594v79h594v-79z" />
    <glyph glyph-name="emdash" unicode="&#x2014;" horiz-adv-x="1142" 
d="M1051 406h-971v79h971v-79z" />
    <glyph glyph-name="quoteleft" unicode="&#x2018;" horiz-adv-x="501" 
d="M307 1028q47 -15 47 -63q0 -27 -19 -47q-20 -21 -46 -21q-31 0 -50 22q-18 21 -18 54q0 115 144 229l20 -22q-68 -77 -78 -152z" />
    <glyph glyph-name="quoteright" unicode="&#x2019;" horiz-adv-x="165" 
d="M174 1071q-45 15 -45 64q0 27 19 47t47 20q32 0 50 -21q17 -20 17 -55q0 -111 -143 -229l-23 21q68 77 78 153z" />
    <glyph glyph-name="quotesinglbase" unicode="&#x201a;" horiz-adv-x="409" 
d="M88 -2q-47 11 -47 61q0 27 19 47q20 21 46 21q30 0 49 -19t19 -49q0 -121 -180 -266l-12 17q47 46 74 99q28 55 32 89z" />
    <glyph glyph-name="quotedblleft" unicode="&#x201c;" horiz-adv-x="649" 
d="M231 1028q45 -15 45 -63q0 -30 -19 -49t-46 -19q-30 0 -49 22t-19 54q7 115 144 229l22 -22q-66 -72 -78 -152zM434 1028q45 -15 45 -63q0 -30 -19 -49t-46 -19q-29 0 -48 19q-20 20 -20 49q0 116 143 237l23 -22q-66 -72 -78 -152z" />
    <glyph glyph-name="quotedblright" unicode="&#x201d;" horiz-adv-x="606" 
d="M389 1071q-47 15 -47 64q0 27 20 47t48 20q27 0 46 -19t19 -48q0 -122 -143 -238q-1 4 -6 7q-6 4 -9 7l-6 7q68 78 78 153zM186 1071q-47 15 -47 64q0 29 21 48q20 19 47 19q30 0 48 -21q17 -20 17 -55q0 -116 -143 -229q-1 4 -6 7q-3 2 -8 7l-6 7q67 77 77 153z" />
    <glyph glyph-name="quotedblbase" unicode="&#x201e;" horiz-adv-x="763" 
d="M88 -2q-47 11 -47 61q0 27 19 47q20 21 46 21q30 0 49 -19t19 -49q0 -121 -180 -266l-12 17q47 46 74 99q28 55 32 89zM332 -2q-47 11 -47 61q0 30 19 49t46 19q29 0 48 -19q20 -20 20 -49q0 -123 -182 -266l-13 17q50 46 77 99q28 55 32 89z" />
    <glyph glyph-name="dagger" unicode="&#x2020;" horiz-adv-x="1259" 
d="M682 666v-1014h-102v1014h-379v79h379v375h102v-375h377v-79h-377z" />
    <glyph glyph-name="daggerdbl" unicode="&#x2021;" horiz-adv-x="1001" 
d="M930 356h-381v-704h-100v704h-379v82h379v228h-379v79h379v373h100v-373h381v-79h-381v-228h381v-82z" />
    <glyph glyph-name="bullet" unicode="&#x2022;" horiz-adv-x="772" 
d="M231 494q0 67 47 114t111 47q68 0 115 -47t47 -114q0 -66 -47 -111q-46 -45 -115 -45q-65 0 -111 45q-47 45 -47 111z" />
    <glyph glyph-name="ellipsis" unicode="&#x2026;" horiz-adv-x="788" 
d="M41 59q0 27 19 47q20 21 46 21q30 0 49 -21q19 -20 19 -47t-19 -46t-49 -19q-27 0 -46 19t-19 46zM270 59q0 26 21 47t47 21t46 -21q19 -20 19 -47t-19 -46t-46 -19q-29 0 -48 19q-20 20 -20 46zM500 59q0 30 19 49t46 19q29 0 48 -21q20 -22 20 -47q0 -26 -20 -46
q-19 -19 -48 -19t-47 19t-18 46z" />
    <glyph glyph-name="perthousand" unicode="&#x2030;" horiz-adv-x="2119" 
d="M1042 1092l-534 -1151q-2 1 -23 10l-24 12l534 1149q21 -11 47 -20zM381 1079q109 0 170 -96q61 -95 61 -221q0 -119 -61 -217q-61 -99 -170 -99q-111 0 -171 95t-60 221q0 120 61 218q62 99 170 99zM371 1040q-70 -2 -104 -73t-34 -179q0 -120 42 -210q42 -91 118 -91
q65 0 100 71q33 67 33 177q0 125 -39 215t-116 90zM1112 625q108 0 169 -97q60 -96 60 -219q0 -118 -60 -217q-59 -98 -169 -98q-111 0 -171 94q-60 95 -60 221q0 119 61 217q62 99 170 99zM1100 586q-70 -2 -103 -73q-32 -68 -32 -177q0 -120 42 -212q42 -91 117 -91
q66 0 100 70q33 67 33 178q0 128 -39 215q-40 90 -118 90zM1702 625q108 0 170 -97q61 -95 61 -219q0 -119 -61 -217t-170 -98q-111 0 -171 94q-61 96 -61 221q0 117 62 217q62 99 170 99zM1692 586q-69 -2 -104 -74q-34 -71 -34 -176q0 -120 42 -212q42 -91 118 -91
q66 0 100 70q33 67 33 178q0 125 -39 215t-116 90z" />
    <glyph glyph-name="guilsinglleft" unicode="&#x2039;" horiz-adv-x="464" 
d="M205 385q7 -16 186 -317l-41 -37q-260 344 -260 354q21 35 258 354l45 -34q-181 -305 -188 -320z" />
    <glyph glyph-name="guilsinglright" unicode="&#x203a;" horiz-adv-x="460" 
d="M94 68q36 62 100 168q18 29 38 62.5t24 40.5q4 6 27 46q-2 2 -191 320l45 34q234 -307 258 -354q0 -11 -258 -354z" />
    <glyph glyph-name="fraction" unicode="&#x2044;" horiz-adv-x="804" 
d="M721 1188l-584 -1262l-35 19l580 1263q5 -4 19 -10q16 -7 20 -10z" />
    <glyph glyph-name="zerosuperior" unicode="&#x2070;" horiz-adv-x="702" 
d="M352 1403q107 0 165 -94t58 -219q0 -121 -59 -218q-59 -98 -164 -98q-108 0 -168 93q-59 91 -59 223q0 123 59 217q60 96 168 96zM340 1364q-64 -1 -98 -72q-33 -69 -33 -176q0 -120 41 -211q41 -90 112 -90q64 0 96 70q31 68 31 176q0 127 -37 214q-38 89 -112 89z" />
    <glyph glyph-name="foursuperior" unicode="&#x2074;" horiz-adv-x="704" 
d="M57 954l381 457h15v-422q75 0 102 6v-63q-24 6 -102 6v-51q0 -29 3 -53q1 -9 3 -21.5t2 -15.5l2 -13h-96q10 36 10 103v51h-320v16zM152 989h225v277z" />
    <glyph glyph-name="fivesuperior" unicode="&#x2075;" horiz-adv-x="522" 
d="M358 981q0 78 -70 123q-70 44 -179 49q49 240 51 248h108h60h51l20 2l19 -94q-37 28 -113 28h-119q-8 -27 -14 -62l-12 -63q119 -11 194 -68q76 -58 76 -159q0 -103 -105 -189q-106 -86 -227 -116l-6 18q112 38 189 115t77 168z" />
    <glyph glyph-name="sixsuperior" unicode="&#x2076;" horiz-adv-x="659" 
d="M530 1491q1 -5 9 -21q-279 -117 -324 -354q77 45 158 45q72 0 129 -51t57 -143q0 -86 -54 -149q-53 -62 -153 -62q-97 0 -161 64t-64 188q0 160 113 287q114 128 290 196zM207 1030q0 -127 41 -180t117 -53q50 0 88 41q36 39 36 112t-46 116q-47 44 -103 44
q-77 0 -129 -35q-4 -33 -4 -45z" />
    <glyph glyph-name="sevensuperior" unicode="&#x2077;" horiz-adv-x="526" 
d="M442 1401q0 -3 7 -10l-277 -603h-82q147 245 287 551h-176q-74 0 -113 -30l18 94q82 -2 130 -2h206z" />
    <glyph glyph-name="eightsuperior" unicode="&#x2078;" horiz-adv-x="567" 
d="M442 1280q0 -78 -112 -145q145 -96 145 -181q0 -70 -52 -119q-54 -51 -138 -51q-96 0 -145 46q-50 47 -50 110q0 101 148 178q-111 84 -111 148q0 70 49 104q50 35 109 35q68 0 112 -34q45 -35 45 -91zM403 932q0 43 -34 80q-31 34 -107 86q-108 -66 -108 -152
q0 -55 37 -88t96 -33q49 0 83 27q33 26 33 80zM195 1284q0 -52 108 -129q88 49 88 119q0 42 -30 65q-31 23 -66 23q-40 0 -71 -22q-29 -20 -29 -56z" />
    <glyph glyph-name="ninesuperior" unicode="&#x2079;" horiz-adv-x="727" 
d="M156 674l-6 18q124 44 209 141q83 95 110 205q-67 -39 -152 -39q-70 0 -129 51q-57 50 -57 144q0 84 58 146q58 63 157 63q95 0 157 -58t62 -169q0 -172 -116 -307q-115 -134 -293 -195zM332 1360q-50 0 -91 -41q-40 -40 -40 -109q0 -74 46 -117q47 -44 103 -44
q77 0 125 36q8 53 8 91q0 184 -151 184z" />
    <glyph glyph-name="zeroinferior" unicode="&#x2080;" horiz-adv-x="702" 
d="M352 283q106 0 165 -95q58 -94 58 -217q0 -121 -58 -218t-165 -97q-108 0 -168 94q-59 93 -59 221q0 119 60 215q61 97 167 97zM340 246q-65 -4 -97 -74t-32 -174q0 -120 41 -211q40 -90 113 -90q63 0 95 70t32 176q0 124 -38 214q-38 89 -114 89z" />
    <glyph glyph-name="oneinferior" unicode="&#x2081;" horiz-adv-x="612" 
d="M496 -283v-55q-1 0 -10 0.5t-29 1t-43 0.5q-104 2 -107 2q-2 0 -108 -2q-15 0 -28.5 -0.5t-23 -0.5t-16.5 -0.5t-11 -0.5h-3v55h151v504q-94 0 -137 -6v59h213v-557h152z" />
    <glyph glyph-name="twoinferior" unicode="&#x2082;" horiz-adv-x="692" 
d="M520 127q0 -74 -51 -158t-217 -241h197q71 0 108 28q-11 -58 -16 -98q-84 2 -129 2h-277q-2 8 -2 14q316 292 316 443q0 127 -121 127q-78 0 -140 -51l-18 53q77 41 160 41q85 0 138 -44q52 -43 52 -116z" />
    <glyph glyph-name="threeinferior" unicode="&#x2083;" horiz-adv-x="606" 
d="M444 158q0 -50 -38 -85q-40 -37 -84 -53l2 -2v-4q63 -5 105 -41q44 -38 44 -98q0 -102 -116 -185q-119 -85 -248 -114q-2 5 -4 12q-3 8 -3 9q124 39 203 111q80 72 80 163q0 119 -129 119h-35l-4 35q156 30 156 127q0 92 -123 92q-79 0 -139 -51l-19 53q90 41 160 41
q93 0 140 -37q48 -37 52 -92z" />
    <glyph glyph-name="fourinferior" unicode="&#x2084;" horiz-adv-x="704" 
d="M57 -168l381 455h15v-420q75 0 102 6v-63q-35 8 -102 8v-54q0 -28 3 -52q1 -9 3 -21t2 -15l2 -14h-96q10 36 10 102v54h-320v14zM152 -133h225v276z" />
    <glyph glyph-name="fiveinferior" unicode="&#x2085;" horiz-adv-x="522" 
d="M358 -147q0 77 -69 121q-71 45 -180 49q30 150 51 245h108q40 0 60 1t51 1l20 2l19 -94q-38 29 -113 29h-119q-7 -26 -14 -63q-6 -36 -12 -62q117 -10 194 -69q76 -58 76 -156q0 -107 -106 -192t-226 -114l-6 19q112 38 189 115t77 168z" />
    <glyph glyph-name="sixinferior" unicode="&#x2086;" horiz-adv-x="690" 
d="M522 379l8 -21q-278 -113 -323 -352q76 43 158 43q71 0 129 -50q57 -49 57 -142q0 -86 -54 -149q-53 -62 -153 -62q-97 0 -161 65t-64 187q0 162 112 286q115 127 291 195zM199 -80q0 -231 157 -231q51 0 88 40t37 111q0 74 -46 117t-105 43q-75 0 -127 -35
q-4 -29 -4 -45z" />
    <glyph glyph-name="seveninferior" unicode="&#x2087;" horiz-adv-x="518" 
d="M442 270l7 -10l-277 -600h-82q152 257 287 549h-176q-76 0 -111 -29q1 11 8 48q7 38 8 46q56 -4 132 -4h204z" />
    <glyph glyph-name="eightinferior" unicode="&#x2088;" horiz-adv-x="641" 
d="M485 143q0 -76 -112 -143q68 -46 107 -88q38 -41 38 -92q0 -70 -53 -120t-139 -50q-97 0 -146 46t-49 111q0 100 148 177q-109 79 -109 145q0 70 47 105q46 34 109 34q70 0 114 -34q45 -35 45 -91zM444 -201q0 43 -36 79q-41 41 -105 85q-108 -66 -108 -149q0 -59 36 -89
q38 -32 97 -32q52 0 84 26t32 80zM238 150q0 -56 108 -132q86 50 86 121q0 44 -30 65t-66 21q-43 0 -70 -20q-28 -21 -28 -55z" />
    <glyph glyph-name="nineinferior" unicode="&#x2089;" horiz-adv-x="667" 
d="M154 -440l-7 18q126 45 211 140q85 96 109 206q-67 -39 -152 -39q-71 0 -129 50q-57 49 -57 143q0 84 58 146q59 63 157 63q93 0 157 -59q62 -58 62 -169q0 -170 -117 -305q-116 -134 -292 -194zM330 244q-50 0 -91 -41q-40 -40 -40 -109q0 -73 46 -116q47 -44 103 -44
q76 0 125 37q8 53 8 88q0 185 -151 185z" />
    <glyph glyph-name="Euro" unicode="&#x20ac;" horiz-adv-x="968" 
d="M16 700h90q44 152 155 238q112 86 257 86q98 0 172 -16v-78q-74 39 -155 39q-262 0 -322 -269h395l-12 -55h-391q-6 -33 -6 -92h379l-13 -59h-364q15 -177 105 -284q92 -110 267 -110q65 0 117 33v-76q-69 -12 -123 -12q-238 0 -352 130q-115 132 -127 319h-72v59h70
q0 26 8 92h-78v55z" />
    <glyph glyph-name="trademark" unicode="&#x2122;" horiz-adv-x="1009" 
d="M547 780h-60q13 99 13 299q0 29 -15 37h109l113 -242l106 242h102q-18 -8 -18 -39q0 -194 10 -297h-76v260q-1 -2 -12.5 -27t-44.5 -96.5l-63 -136.5h-29l-127 258h-8v-258zM379 1116l6 -55q0 3 -4 7q-7 7 -15 10q-13 5 -24 5h-80q0 -278 4 -303h-82q4 7 4 303h-77
q-9 0 -21 -5q-9 -4 -16 -11l-8 -6l8 55h305z" />
    <glyph glyph-name="Omega" unicode="&#x2126;" horiz-adv-x="1380" 
d="M688 1118q223 0 373 -143q151 -144 151 -369q0 -249 -307 -522h168q62 0 99 40q39 42 77 114h54l-60 -250q-11 0 -38 4q-31 5 -59 6q-40 2 -50 2h-316v27q277 331 277 575q0 194 -96 318t-269 124t-275 -132t-102 -326q0 -153 77 -287q73 -128 208 -272v-27h-321
l-142 -12l-61 250h53q27 -54 47 -85q18 -28 52 -48q36 -21 87 -21h156q-109 86 -207 229t-98 275q0 231 151 381q150 149 371 149z" />
    <glyph glyph-name="partialdiff" unicode="&#x2202;" horiz-adv-x="933" 
d="M98 385q0 172 107 282q106 109 258 109q100 0 201 -49q-29 81 -107 188q-77 106 -186 166q11 21 18 33q195 -63 318 -281q122 -216 122 -448q0 -173 -106 -282t-258 -109q-96 0 -171 36q-77 37 -116 95q-41 61 -60 125q-20 68 -20 135zM453 715q-103 0 -172 -86
q-70 -87 -70 -221q0 -57 12 -114q11 -51 40 -113q26 -56 83 -91q56 -35 129 -35q103 0 172 86q70 87 70 222q0 56 -12 113q-11 51 -40 113q-26 56 -83 91q-56 35 -129 35z" />
    <glyph glyph-name="Delta" unicode="&#x2206;" horiz-adv-x="1417" 
d="M1090 0h-961l496 1098zM242 76h680l-328 811z" />
    <glyph glyph-name="product" unicode="&#x220f;" horiz-adv-x="1359" 
d="M430 -342h-164v1178q0 99 -29 128t-131 40v65h1139v-65q-103 -10 -131 -38q-27 -27 -27 -130v-1178h-161v1178q0 113 -24 140q-25 28 -122 28h-205q-96 0 -121 -28q-24 -27 -24 -140v-1178z" />
    <glyph glyph-name="summation" unicode="&#x2211;" horiz-adv-x="985" 
d="M840 1069l8 -231h-53q-6 26 -19 70q-8 27 -26 54q-17 26 -51 39t-81 13h-327l319 -424q-25 -35 -181 -243q-171 -228 -191 -253h407q109 0 170 178h59q-12 -49 -59 -286q-83 13 -102 14h-625v20l404 537l-367 490v22h715z" />
    <glyph glyph-name="radical" unicode="&#x221a;" horiz-adv-x="917" 
d="M127 635q-44 -19 -104 -53q-22 40 -31 63l229 115l354 -750q15 88 63 378q17 103 51.5 313.5t51.5 312.5q53 318 66 395q25 0 41 -2l-270 -1675z" />
    <glyph glyph-name="infinity" unicode="&#x221e;" horiz-adv-x="1392" 
d="M162 412q0 -70 54 -133q55 -64 144 -64q128 0 285 227q-163 187 -268 187q-112 0 -164 -70q-51 -69 -51 -147zM1307 408q0 -110 -84 -198q-84 -89 -197 -89q-153 0 -321 225q-174 -225 -320 -225q-149 0 -233 95q-84 94 -84 208q0 127 85 211t224 84q168 0 330 -209
q167 207 307 207q129 0 211 -91t82 -218zM1214 422q0 76 -43 141q-43 66 -122 66q-132 0 -285 -221q160 -193 274 -193q67 0 108 40q42 40 55 83q13 42 13 84z" />
    <glyph glyph-name="integral" unicode="&#x222b;" horiz-adv-x="645" 
d="M395 186q0 -270 -48 -406t-165 -136q-53 0 -80 26q-28 27 -28 64q0 25 14 42t41 17q19 0 49 -18q32 -19 51 -19q23 0 41 30q19 32 19 77q0 8 -16 229q-15 207 -15 475q0 107 4 171q6 89 15 149q12 77 33 123t58 77t87 31q106 0 106 -78q0 -28 -17 -45q-18 -18 -46 -18
q-18 0 -45 13q-30 14 -45 14q-58 0 -58 -78q0 -20 23 -242q22 -213 22 -498z" />
    <glyph glyph-name="approxequal" unicode="&#x2248;" horiz-adv-x="997" 
d="M651 502q-61 0 -155 55t-158 55q-15 0 -35 -5q-17 -4 -32 -11q-16 -7 -32 -17q-26 -16 -29 -18q-15 -10 -26 -19q-19 -16 -20 -16l-35 43q14 14 38 35q20 18 88 54q64 34 120 34q58 0 157 -54t156 -54q71 0 168 86q2 -2 18 -22q9 -12 21 -21q-14 -14 -38 -35
q-22 -20 -87 -55q-64 -35 -119 -35zM651 238q-61 0 -155 54q-95 54 -158 54q-15 0 -35 -5q-17 -4 -32 -11q-10 -4 -32 -18q-7 -4 -16.5 -9.5t-12.5 -7.5q-8 -6 -26 -20q-17 -14 -20 -15l-35 43q14 14 38 35q20 18 88 54q64 34 120 34q58 0 157 -54q101 -55 156 -55
q71 0 168 86q11 -11 19 -21q13 -17 20 -22q-6 -6 -38 -34q-22 -20 -87 -55q-60 -33 -119 -33z" />
    <glyph glyph-name="notequal" unicode="&#x2260;" horiz-adv-x="991" 
d="M362 113l60 186h-307v68h329q5 19 34 104q30 87 34 102h-397v72h420l57 178h72q-17 -50 -58 -178h266v-72h-290q-6 -18 -30 -93q-27 -85 -38 -113h358v-68h-380l-60 -186h-70z" />
    <glyph glyph-name="lessequal" unicode="&#x2264;" horiz-adv-x="985" 
d="M874 225l-765 332v59l765 336v-82l-651 -284l651 -279v-82zM874 61h-765v78h765v-78z" />
    <glyph glyph-name="greaterequal" unicode="&#x2265;" horiz-adv-x="985" 
d="M872 557l-763 -332v80l651 281l-651 284v82l763 -336v-59zM874 61h-765v78h765v-78z" />
    <glyph glyph-name="lozenge" unicode="&#x25ca;" horiz-adv-x="841" 
d="M483 0h-125l-319 535l311 534h131l324 -534zM686 524l-274 457l-258 -438l276 -459z" />
    <glyph glyph-name="s_t" unicode="&#xfb06;" horiz-adv-x="1290" 
d="M926 195v485h-125l-4 47q86 6 130 50t44 112q0 69 -50 121q-49 51 -137 51q-96 0 -148 -55t-52 -134q0 -126 59 -192l12 -12q-15 -12 -69 -58q-77 107 -199 107q-56 0 -101 -31q-44 -30 -44 -82q0 -50 43 -84q44 -35 103 -57q68 -26 121 -48q58 -25 103 -71
q43 -44 43 -111q0 -119 -89 -179q-88 -60 -201 -60q-187 0 -281 145q7 7 76 58q41 -73 90 -107q50 -35 133 -35q57 0 110 38q52 37 52 97q0 52 -42 90q-41 36 -101 61q-13 5 -36.5 15t-43 18t-37.5 15q-58 23 -102 69q-42 44 -42 107q0 95 73 156q71 59 192 59q67 0 118 -22
q-12 45 -12 96q0 110 70 188q69 76 204 76q112 0 181 -63t69 -187v-116h224l-9 -72h-215v-453q0 -149 146 -178l-15 -55q-121 1 -181 57q-60 55 -60 144z" />
    <glyph glyph-name="A.smcp" horiz-adv-x="968" 
d="M918 0h-191q10 26 10 57q0 36 -92 244h-352l-31 -72q-5 -13 -28 -62q-9 -19 -18 -45q-5 -13 -13 -41q-4 -13 -4 -28q0 -33 10 -53h-158q52 68 101 174l319 703h49q41 -105 303 -707q49 -114 95 -170zM473 711l-156 -351h302q-27 66 -72 183t-66 168h-8z" />
    <glyph glyph-name="AE.smcp" horiz-adv-x="1406" 
d="M801 422v-283q0 -52 18 -67t92 -15q201 0 344 29q-1 -5 -4.5 -21.5t-6.5 -27.5q-7 -29 -9 -41q-149 4 -490 4h-73q18 56 18 137v164h-301q-174 -215 -176 -301h-150q63 60 148 170l508 688q449 0 506 6l8 -80q-77 15 -313 15q-119 0 -119 -17v-301q201 0 332 8
q-17 -51 -23 -75q-101 8 -309 8zM682 711l-250 -351h258v351h-8z" />
    <glyph glyph-name="Abreve.smcp" horiz-adv-x="968" 
d="M498 1085q92 0 174 76l28 -24q-85 -138 -202 -138q-120 0 -205 138q1 0 10 7q8 6 11 9q2 2 5 4.5t5 3.5q76 -76 174 -76zM915 0h-188q8 29 8 57q0 36 -92 244h-352q-92 -214 -92 -248q0 -29 8 -53h-158q52 68 101 174q253 547 319 703h49q53 -134 303 -707
q50 -117 94 -170zM471 711l-154 -351h299q-15 42 -60 158q-47 122 -77 193h-8z" />
    <glyph glyph-name="Amacron.smcp" horiz-adv-x="968" 
d="M672 1118v-76h-348v76h348zM915 0h-188q8 29 8 57q0 36 -92 244h-352q-92 -214 -92 -248q0 -29 8 -53h-158q52 68 101 174q253 547 319 703h49q53 -134 303 -707q50 -117 94 -170zM471 711l-154 -351h299q-15 42 -60 158q-47 122 -77 193h-8z" />
    <glyph glyph-name="Ampersand.osf" horiz-adv-x="1157" 
d="M639 936q0 -329 -440 -655q44 -98 137 -155q94 -58 199 -58q106 0 184 62q80 63 80 159q0 49 -30 86t-95 37q-86 0 -86 -56q0 -34 39 -34q3 0 18 3t25 3q13 0 26 -11t13 -26q0 -43 -60 -43q-51 0 -87 31q-34 30 -34 73q0 49 40 85q41 36 116 36q30 0 110 -9t126 -9
q42 0 63 17q23 18 23 40q0 31 -37 31q-7 0 -19 -3t-24 -3q-18 0 -30 11q-13 12 -13 30q0 16 17 30q18 15 46 15q53 0 85 -33q32 -34 32 -74q0 -125 -193 -125q4 -24 4 -53q0 -162 -111 -255t-276 -93q-168 0 -285 101q-118 102 -118 290q0 162 110 261t255 99q42 0 81 -10
q39 95 39 187q0 79 -49 79q-27 0 -38 -33q-12 -34 -38 -34q-12 0 -23 11t-11 32q0 43 32 66q33 24 74 24q57 0 90 -35q33 -34 33 -92zM176 397q0 -41 8 -73q226 167 326 364q-30 6 -55 6q-119 0 -199 -83t-80 -214z" />
    <glyph glyph-name="Ampersand.smcp" horiz-adv-x="1140" 
d="M422 561q129 73 129 154q0 88 -84 88q-90 0 -90 -96q0 -67 45 -146zM492 53q112 0 190 58q-196 145 -320 352q-139 -90 -139 -189q0 -92 78 -156q79 -65 191 -65zM283 686q0 78 53 129q52 51 131 51q75 0 121 -38q45 -38 45 -99q0 -108 -187 -215q118 -188 302 -336
q43 67 43 148q0 59 -43 172h133q-9 -47 -9 -111q0 -141 -81 -246q148 -98 260 -98q11 0 16 1t14 1h4l9 -25q-61 -26 -150 -26q-91 0 -219 86q-118 -86 -276 -86q-149 0 -243 71q-93 71 -93 181q0 146 223 264q-53 108 -53 176z" />
    <glyph glyph-name="Aogonek.smcp" horiz-adv-x="995" 
d="M559 -195q0 44 28 84q29 41 61 61q35 21 62 50q27 28 27 57q0 36 -92 244h-352l-31 -72q-5 -13 -28 -62q-9 -19 -18 -45q-5 -13 -13 -41q-4 -13 -4 -28q0 -33 10 -53h-158q52 68 101 174l319 703h49q41 -105 303 -707q49 -114 95 -170q-57 0 -78 -4q-69 -7 -131 -68
q-62 -60 -62 -110q0 -78 98 -78q43 0 113 31l23 -35q-78 -66 -158 -66q-82 0 -123 38t-41 97zM473 711l-156 -351h302q-27 66 -72 183t-66 168h-8z" />
    <glyph glyph-name="B.smcp" horiz-adv-x="929" 
d="M418 -4q-7 0 -83 2t-89 2h-76q18 56 18 137v580q0 67 -18 141h74q7 0 95 2t110 2q133 0 206 -55q74 -56 74 -139q0 -89 -60 -143q-59 -53 -141 -70v-2q2 -2 2 -4q114 -6 189 -61q74 -54 74 -138q0 -113 -88 -183q-89 -71 -287 -71zM299 410v-291q0 -28 22 -44
q23 -16 47 -19q26 -3 72 -3q92 0 163 44t71 136q0 179 -262 179zM299 780v-309q12 0 27 -1t39 -1q254 0 254 182q0 152 -199 152q-119 0 -121 -23z" />
    <glyph glyph-name="C.smcp" horiz-adv-x="980" 
d="M616 -4q-152 0 -263 38q-109 37 -166 103q-58 67 -81 137q-24 72 -24 156q0 196 139 316t342 120q174 0 334 -49l-27 -92q-142 74 -288 74q-191 0 -288 -91t-97 -251q0 -172 105 -286t325 -114q83 0 165 32q80 31 126 65l36 -84q-174 -74 -338 -74z" />
    <glyph glyph-name="Cacute.smcp" horiz-adv-x="980" 
d="M575 977l-38 27l104 198h133q-167 -186 -199 -225zM614 -4q-152 0 -263 38q-109 37 -166 102t-81 136q-24 72 -24 156q0 196 139 316t342 120q176 0 334 -47q-2 -5 -13 -44q-12 -42 -14 -50q-133 76 -288 76q-190 0 -288 -92q-97 -91 -97 -252q0 -170 105 -284t325 -114
q153 0 290 95l37 -82q-174 -74 -338 -74z" />
    <glyph glyph-name="Ccircumflex.smcp" horiz-adv-x="980" 
d="M430 973l-45 28q95 99 160 201h61q71 -111 152 -201q-27 -20 -43 -28l-144 121q-93 -78 -141 -121zM614 -4q-152 0 -263 38q-109 37 -166 102t-81 136q-24 72 -24 156q0 196 139 316t342 120q176 0 334 -47q-2 -5 -13 -44q-12 -42 -14 -50q-133 76 -288 76
q-190 0 -288 -92q-97 -91 -97 -252q0 -170 105 -284t325 -114q153 0 290 95l37 -82q-174 -74 -338 -74z" />
    <glyph glyph-name="Cdotaccent.smcp" horiz-adv-x="980" 
d="M506 1073q0 29 19 49q19 21 46 21q26 0 47 -21t21 -49q0 -27 -21 -46q-20 -19 -47 -19t-46 19t-19 46zM614 -4q-152 0 -263 38q-109 37 -166 102t-81 136q-24 72 -24 156q0 196 139 316t342 120q176 0 334 -47q-2 -5 -13 -44q-12 -42 -14 -50q-133 76 -288 76
q-190 0 -288 -92q-97 -91 -97 -252q0 -170 105 -284t325 -114q153 0 290 95l37 -82q-174 -74 -338 -74z" />
    <glyph glyph-name="D.smcp" horiz-adv-x="1228" 
d="M467 -4q-6 0 -76 2t-86 2h-78q19 59 19 137v580q0 63 -19 141h74q7 0 20 0.5t36.5 1t41.5 0.5q98 2 144 2q240 0 363 -101q124 -102 124 -300q0 -228 -148 -346q-149 -119 -415 -119zM358 778v-674q0 -51 150 -51q203 0 305 110q102 109 102 279q0 175 -90 268t-297 93
q-52 0 -96 -6q-37 -5 -59 -13z" />
    <glyph glyph-name="Dcaron.smcp" horiz-adv-x="1191" 
d="M406 1182q28 17 43 28l147 -118q15 13 39 33t32 27q14 12 46 41q11 10 18 17q3 -1 22 -12q18 -11 25 -16q-71 -78 -155 -203h-60q-97 139 -157 203zM465 -4q-6 0 -76 2t-88 2h-76q19 59 19 137v580q0 63 -19 141h72q2 0 100 2t144 2q240 0 363 -101q124 -102 124 -300
q0 -228 -148 -346q-149 -119 -415 -119zM356 778v-674q0 -51 150 -51q203 0 305 110q102 109 102 279q0 175 -90 268t-297 93q-52 0 -96 -6q-37 -5 -57 -13z" />
    <glyph glyph-name="Dcroat.smcp" horiz-adv-x="1275" 
d="M96 418v57h150v242q0 63 -19 141h74q5 0 17 0.5t34 1t42 0.5q100 2 151 2q238 0 361 -101q124 -102 124 -300q0 -228 -148 -346q-149 -119 -415 -119q-6 0 -76 2t-86 2h-78q19 59 19 137v281h-150zM360 778v-303h244v-57h-244v-314q0 -27 33 -39t115 -12q203 0 305 110
q102 109 102 279q0 175 -90 268t-297 93q-53 0 -95 -6q-37 -5 -56 -13z" />
    <glyph glyph-name="E.smcp" horiz-adv-x="868" 
d="M299 422v-283q0 -52 18 -67t93 -15q199 0 346 29l-19 -90q-151 4 -489 4h-78q18 56 18 137v580q0 85 -18 141q510 0 573 6l-22 -82q-85 17 -305 17q-117 0 -117 -17v-301q200 0 330 8l-21 -75q-98 8 -309 8z" />
    <glyph glyph-name="ETH" horiz-adv-x="1189" 
d="M78 580v63h135v254q0 99 -18 172h75q35 0 110 3t161 3q267 0 403 -126q137 -126 137 -374q0 -285 -165 -433q-164 -148 -461 -148q-49 0 -101 3t-80 3h-79q18 62 18 170v410h-135zM330 983v-340h395v-63h-395v-459q0 -38 38 -53t134 -15q225 0 341 142q115 140 115 358
q0 221 -100 342t-334 121q-64 0 -115 -8q-42 -7 -65 -17z" />
    <glyph glyph-name="Ebreve.smcp" horiz-adv-x="868" 
d="M477 1083q94 0 176 76l27 -24q-80 -136 -203 -136t-203 136q1 1 15 11q10 8 16 13q69 -76 172 -76zM299 422v-283q0 -52 18 -67t93 -15q198 0 346 29q-1 -5 -5 -21.5t-7 -27.5q-7 -29 -9 -41q-151 4 -489 4h-78q18 56 18 137v580q0 85 -18 141q510 0 573 6l-22 -82
q-85 17 -303 17q-117 0 -117 -17v-301q198 0 328 8q-11 -47 -21 -75q-98 8 -307 8z" />
    <glyph glyph-name="Ecaron.smcp" horiz-adv-x="868" 
d="M287 1182l45 28l143 -118l141 118l43 -28q-82 -93 -153 -203h-62q-72 107 -157 203zM299 422v-283q0 -52 18 -67t93 -15q198 0 346 29q-1 -5 -5 -21.5t-7 -27.5q-7 -29 -9 -41q-151 4 -489 4h-78q18 56 18 137v580q0 85 -18 141q510 0 573 6l-22 -82q-85 17 -303 17
q-117 0 -117 -17v-301q198 0 328 8q-11 -47 -21 -75q-98 8 -307 8z" />
    <glyph glyph-name="Edotaccent.smcp" horiz-adv-x="868" 
d="M397 1073q0 27 20 49q19 21 48 21q27 0 46 -21q19 -20 19 -49q0 -27 -19 -46t-48 -19q-27 0 -46 19q-20 20 -20 46zM299 422v-283q0 -52 18 -67t93 -15q198 0 346 29q-1 -5 -5 -21.5t-7 -27.5q-7 -29 -9 -41q-151 4 -489 4h-78q18 56 18 137v580q0 85 -18 141
q510 0 573 6l-22 -82q-85 17 -303 17q-117 0 -117 -17v-301q198 0 328 8q-11 -47 -21 -75q-98 8 -307 8z" />
    <glyph glyph-name="Emacron.smcp" horiz-adv-x="868" 
d="M645 1145v-76h-346v76h346zM299 422v-283q0 -52 18 -67t93 -15q198 0 346 29q-1 -5 -5 -21.5t-7 -27.5q-7 -29 -9 -41q-151 4 -489 4h-78q18 56 18 137v580q0 85 -18 141q510 0 573 6l-22 -82q-85 17 -303 17q-117 0 -117 -17v-301q198 0 328 8q-11 -47 -21 -75
q-98 8 -307 8z" />
    <glyph glyph-name="Eogonek.smcp" horiz-adv-x="876" 
d="M299 422v-283q0 -52 18 -67t93 -15q199 0 346 29l-19 -90q-70 -15 -138 -70q-69 -56 -69 -108q0 -30 25 -55q23 -23 78 -23q33 0 112 31l21 -35q-76 -66 -156 -66q-161 0 -161 135q0 106 169 191q0 4 -370 4h-78q18 56 18 137v580q0 85 -18 141q510 0 573 6l-22 -82
q-85 17 -305 17q-117 0 -117 -17v-301q200 0 330 8l-21 -75q-98 8 -309 8z" />
    <glyph glyph-name="Euro.smcp" horiz-adv-x="892" 
d="M127 565h82q39 119 138 188q98 68 231 68q93 0 159 -12v-76q-77 37 -145 37q-228 0 -279 -205h353q-2 -9 -17 -55h-346q-2 -28 -2 -61h336l-14 -58h-320q10 -132 90 -218q79 -85 236 -85q53 0 108 33v-74q-53 -10 -116 -10q-213 0 -317 102q-104 103 -116 252h-61v58h61
q0 26 7 61h-68v55z" />
    <glyph glyph-name="F.smcp" horiz-adv-x="868" 
d="M301 422v-285q0 -89 16 -137h-147q18 56 18 137v580q0 85 -18 141q506 0 569 6l-22 -82q-85 17 -301 17q-115 0 -115 -17v-301q198 0 328 8q-6 -24 -23 -75q-96 8 -305 8z" />
    <glyph glyph-name="G.smcp" 
d="M616 -4q-150 0 -261 38t-167 103q-59 69 -82 137q-24 72 -24 156q0 196 139 316t342 120q174 0 334 -49q-17 -64 -27 -92q-131 74 -288 74q-191 0 -288 -91t-97 -251q0 -172 105 -286t325 -114q62 0 114 25q50 24 50 70v81q0 59 -21 142h148q-19 -54 -19 -142v-63
q0 -20 3 -49q4 -42 5 -50q0 -6 0.5 -12t0.5 -9l1 -3q-190 -51 -293 -51z" />
    <glyph glyph-name="Gbreve.smcp" 
d="M580 1083q92 0 174 76l28 -24q-85 -136 -202 -136q-122 0 -205 136q1 0 10 7q8 6 11 9q1 2 4.5 4.5t5.5 3.5q76 -76 174 -76zM614 -4q-150 0 -261 38q-110 38 -167 102q-59 67 -82 136q-24 72 -24 156q0 196 139 316t342 120q176 0 334 -47q-17 -64 -27 -92
q-131 74 -288 74q-190 0 -288 -92q-97 -91 -97 -252q0 -170 105 -284t325 -114q62 0 114 25q49 24 49 70v79q0 83 -20 142h147q-18 -51 -18 -142v-61q0 -10 2 -50q1 -23 5 -50q3 -21 3 -23q-191 -51 -293 -51z" />
    <glyph glyph-name="Gcircumflex.smcp" 
d="M430 973l-45 28q95 99 160 201h61q71 -111 152 -201q-27 -20 -43 -28l-144 121q-93 -78 -141 -121zM614 -4q-150 0 -261 38q-110 38 -167 102q-59 67 -82 136q-24 72 -24 156q0 196 139 316t342 120q176 0 334 -47q-17 -64 -27 -92q-131 74 -288 74q-190 0 -288 -92
q-97 -91 -97 -252q0 -170 105 -284t325 -114q62 0 114 25q49 24 49 70v79q0 83 -20 142h147q-18 -51 -18 -142v-61q0 -10 2 -50q1 -23 5 -50q3 -21 3 -23q-191 -51 -293 -51z" />
    <glyph glyph-name="Gcomma.smcp" 
d="M541 -262q-45 15 -45 61q0 29 18 48q18 20 47 20q28 0 48 -20t20 -48q0 -124 -183 -268q-6 10 -14 16q50 45 77 101q28 57 32 90zM614 -4q-150 0 -261 38q-110 38 -167 102q-59 67 -82 136q-24 72 -24 156q0 196 139 316t342 120q176 0 334 -47q-17 -64 -27 -92
q-131 74 -288 74q-190 0 -288 -92q-97 -91 -97 -252q0 -170 105 -284t325 -114q62 0 114 25q49 24 49 70v79q0 83 -20 142h147q-18 -51 -18 -142v-61q0 -10 2 -50q1 -23 5 -50q3 -21 3 -23q-191 -51 -293 -51z" />
    <glyph glyph-name="Gdotaccent.smcp" 
d="M506 1073q0 29 19 49q19 21 46 21q26 0 47 -21t21 -49q0 -27 -21 -46q-20 -19 -47 -19t-46 19t-19 46zM614 -4q-150 0 -261 38q-110 38 -167 102q-59 67 -82 136q-24 72 -24 156q0 196 139 316t342 120q176 0 334 -47q-17 -64 -27 -92q-131 74 -288 74q-190 0 -288 -92
q-97 -91 -97 -252q0 -170 105 -284t325 -114q62 0 114 25q49 24 49 70v79q0 83 -20 142h147q-18 -51 -18 -142v-61q0 -10 2 -50q1 -23 5 -50q3 -21 3 -23q-191 -51 -293 -51z" />
    <glyph glyph-name="H.smcp" horiz-adv-x="1095" 
d="M299 717v-236h500v236q0 73 -17 141h146q-19 -59 -19 -141v-580q0 -78 19 -137h-146q17 57 17 137v289h-500v-289q0 -81 18 -137h-147q16 54 16 137v580q0 77 -16 141h147q-18 -56 -18 -141z" />
    <glyph glyph-name="Hbar.smcp" horiz-adv-x="1093" 
d="M299 717v-84h500v84q0 73 -17 141h146q-19 -59 -19 -141v-84h90v-47h-90v-449q0 -78 19 -137h-146q17 57 17 137v289h-500v-289q0 -81 18 -137h-147q16 54 16 137v449h-69v47h69v84q0 77 -16 141h147q-18 -56 -18 -141zM299 481h500v105h-500v-105z" />
    <glyph glyph-name="Hcircumflex.smcp" horiz-adv-x="1105" 
d="M299 717v-236h500v236q0 73 -17 141h146q-19 -59 -19 -141v-580q0 -78 19 -137h-146q17 57 17 137v289h-500v-289q0 -81 18 -137h-147q16 54 16 137v580q0 77 -16 141h147q-18 -56 -18 -141zM420 973l-45 28q95 99 160 201h61q71 -111 152 -201q-27 -20 -43 -28l-144 121
q-93 -78 -141 -121z" />
    <glyph glyph-name="I.smcp" horiz-adv-x="487" 
d="M299 717v-580q0 -89 16 -137h-145q18 56 18 137v580q0 77 -16 141h145q-18 -56 -18 -141z" />
    <glyph glyph-name="Ibreve.smcp" horiz-adv-x="569" 
d="M281 1083q98 0 174 76l28 -24q-80 -136 -202 -136q-123 0 -203 136q3 3 14 11q9 7 14 13q76 -76 175 -76zM334 717v-580q0 -89 16 -137h-145q18 56 18 137v580q0 67 -18 141h145q-16 -54 -16 -141z" />
    <glyph glyph-name="Idotaccent.smcp" horiz-adv-x="487" 
d="M184 1102q0 27 19 48q18 19 45 19q29 0 47 -19q18 -20 18 -48q0 -26 -18 -46t-47 -20q-27 0 -45 20q-19 21 -19 46zM299 717v-580q0 -89 16 -137h-145q18 56 18 137v580q0 67 -18 141h145q-16 -54 -16 -141z" />
    <glyph glyph-name="Imacron.smcp" horiz-adv-x="528" 
d="M436 1137v-76h-344v76h344zM330 717v-580q0 -89 16 -137h-145q18 56 18 137v580q0 67 -18 141h145q-16 -54 -16 -141z" />
    <glyph glyph-name="Iogonek.smcp" horiz-adv-x="557" 
d="M332 717v-580q0 -89 16 -137q-71 0 -154 -65t-83 -119q0 -30 23 -53t77 -23q43 0 113 31l20 -35q-76 -66 -156 -66q-81 0 -122 38t-41 97q0 62 57 113q58 52 121 82q18 56 18 137v580q0 77 -16 141h145q-18 -56 -18 -141z" />
    <glyph glyph-name="Itilde.smcp" horiz-adv-x="536" 
d="M344 1020q-36 0 -89 37t-91 37q-39 0 -92 -64l-35 37q11 18 21 31q14 18 53 50q40 32 73 32q36 0 91 -38t90 -38q38 0 94 63l35 -34q-8 -14 -23 -31q-18 -22 -53 -50q-40 -32 -74 -32zM317 717v-580q0 -86 17 -137h-146q19 59 19 137v580q0 63 -19 141h146
q-17 -57 -17 -141z" />
    <glyph glyph-name="J.smcp" horiz-adv-x="512" 
d="M324 717v-473q0 -175 -51 -289q-49 -111 -183 -168q0 1 -8 11q-2 3 -4.5 6t-4.5 6t-3 4q94 57 118 158q25 106 25 317v428q0 77 -16 141h145q-18 -56 -18 -141z" />
    <glyph glyph-name="K.smcp" horiz-adv-x="964" 
d="M301 717q0 -68 -1 -123t-1 -125h8q242 230 302 293q61 64 61 96h164q0 -3 1 -4t1 -4q-58 -25 -134 -91q-84 -73 -294 -280q110 -127 274 -294q168 -171 209 -177v-8h-182q-49 50 -150 162q-71 80 -172 191q-72 79 -86 79v-295q0 -89 16 -137h-147q18 56 18 137v580
q0 77 -16 141h145q-16 -54 -16 -141z" />
    <glyph glyph-name="L.smcp" horiz-adv-x="804" 
d="M735 -4l-565 4q18 56 18 137v580q0 67 -18 141h147q-18 -56 -18 -141v-576q0 -54 17 -68q19 -16 92 -16q203 0 346 29z" />
    <glyph glyph-name="Lacute.smcp" horiz-adv-x="804" 
d="M451 977l-37 27q34 64 104 198h133zM733 -4l-565 4q18 56 18 137v580q0 77 -16 141h147q-18 -56 -18 -141v-576q0 -55 17 -69q18 -15 92 -15q199 0 346 29q-1 -5 -5 -21.5t-7 -27.5q-7 -29 -9 -41z" />
    <glyph glyph-name="Lcaron.smcp" horiz-adv-x="804" 
d="M561 840l-29 18l91 213h110q-75 -92 -172 -231zM733 -4l-565 4q18 56 18 137v580q0 77 -16 141h147q-18 -56 -18 -141v-576q0 -55 17 -69q18 -15 92 -15q199 0 346 29q-1 -5 -5 -21.5t-7 -27.5q-7 -29 -9 -41z" />
    <glyph glyph-name="Lcomma.smcp" horiz-adv-x="804" 
d="M432 -262q-47 15 -47 61q0 29 19 48q20 20 49 20t47 -20q18 -19 18 -48q0 -125 -182 -268l-12 16q48 44 76 101t32 90zM733 -4l-565 4q18 56 18 137v580q0 77 -16 141h147q-18 -56 -18 -141v-576q0 -55 17 -69q18 -15 92 -15q199 0 346 29q-1 -5 -5 -21.5t-7 -27.5
q-7 -29 -9 -41z" />
    <glyph glyph-name="Ldot.smcp" horiz-adv-x="804" 
d="M502 1073q0 29 19 49q19 21 48 21q27 0 46 -21q20 -22 20 -49q0 -26 -20 -46q-19 -19 -48 -19q-27 0 -46 19t-19 46zM733 -4l-565 4q18 56 18 137v580q0 77 -16 141h147q-18 -56 -18 -141v-576q0 -55 17 -69q18 -15 92 -15q199 0 346 29q-1 -5 -5 -21.5t-7 -27.5
q-7 -29 -9 -41z" />
    <glyph glyph-name="Lslash.smcp" horiz-adv-x="854" 
d="M784 -4l-565 4q19 59 19 137v154l-76 -47l-35 49l111 72v352q0 63 -19 141h148q-17 -57 -17 -141v-283l221 146l19 -27q6 -6 10 -11q7 -8 8 -14l-258 -168v-235q4 -43 22 -55q20 -13 85 -13q203 0 346 29z" />
    <glyph glyph-name="M.smcp" horiz-adv-x="1359" 
d="M315 858l328 -708h10l322 708h90l104 -715q11 -86 45 -143h-165q14 31 14 68q-5 40 -90 600h-8l-308 -668h-67l-311 676h-9q-77 -489 -77 -594q0 -51 10 -82h-131q31 41 88 387q57 348 57 389q0 12 -5 32q-4 18 -12 33q-7 14 -7 17h122z" />
    <glyph glyph-name="Multiplic" horiz-adv-x="829" 
d="M133 291l236 233l-238 246q8 6 23 23q15 16 22 22l238 -235l237 235l45 -45l-239 -242l235 -239q-1 -2 -43 -49l-235 237q-117 -110 -236 -233q-10 7 -25 25q-10 12 -20 22z" />
    <glyph glyph-name="N.smcp" 
d="M168 231v529q0 17 -5 40q-4 20 -11 40l-9 18h88l600 -635h11v404q0 128 -25 231h123q-25 -100 -25 -231v-631h-14l-647 692h-10v-457q0 -157 24 -231h-123q23 74 23 231z" />
    <glyph glyph-name="O.smcp" 
d="M80 430q0 190 133 313t324 123q120 0 213 -41q94 -41 142 -106q52 -70 75 -139q24 -74 24 -150q0 -190 -134 -312t-320 -122q-125 0 -215 40q-95 42 -143 106q-51 68 -75 140t-24 148zM522 801q-143 0 -235 -92t-92 -250q0 -69 16 -132q17 -65 54 -128q38 -64 112 -103
q73 -39 176 -39q139 0 232 96q92 95 92 253q0 66 -17 131q-16 63 -54 126q-36 61 -111 100q-73 38 -173 38z" />
    <glyph glyph-name="OE.smcp" horiz-adv-x="1554" 
d="M991 422v-283q0 -52 18 -67t91 -15q203 0 346 29q-2 -14 -9 -43q-9 -36 -10 -47q-148 4 -563 4q13 42 17 141q-139 -145 -344 -145q-123 0 -213 40q-95 42 -143 106q-51 68 -75 140t-24 148q0 190 132 313t323 123q220 0 344 -139q-4 81 -21 131q490 0 557 6l6 -82
q-87 17 -315 17q-117 0 -117 -17v-301q200 0 330 8l-23 -75q-96 8 -307 8zM522 801q-142 0 -234 -92q-91 -91 -91 -250q0 -69 16 -132q17 -65 54 -128q38 -64 112 -103q73 -39 174 -39q143 0 233 95q91 96 91 254q0 66 -17 131q-17 66 -53 126q-37 62 -111 100t-174 38z" />
    <glyph glyph-name="Obreve.smcp" 
d="M549 1083q94 0 176 76l27 -24q-80 -136 -203 -136t-203 136q3 3 14 11q14 10 17 13q69 -76 172 -76zM78 428q0 192 132 314q133 122 325 122q123 0 213 -40q94 -41 142 -106q52 -69 75 -139q24 -72 24 -151q0 -189 -134 -311q-133 -121 -320 -121q-126 0 -216 40
q-95 42 -142 105q-52 69 -75 139q-24 72 -24 148zM520 801q-144 0 -235 -93q-92 -94 -92 -251q0 -67 16 -130q17 -65 54 -128q38 -64 112 -103q73 -39 176 -39q140 0 232 95q91 94 91 251q0 70 -16 133q-16 64 -54 127q-36 61 -111 100q-73 38 -173 38z" />
    <glyph glyph-name="Ohungarumlaut.smcp" 
d="M489 977l-38 27l104 198h133q-167 -186 -199 -225zM717 977l-37 27l104 198h134zM78 428q0 192 132 314q133 122 325 122q123 0 213 -40q94 -41 142 -106q52 -69 75 -139q24 -72 24 -151q0 -189 -134 -311q-133 -121 -320 -121q-126 0 -216 40q-95 42 -142 105
q-52 69 -75 139q-24 72 -24 148zM520 801q-144 0 -235 -93q-92 -94 -92 -251q0 -67 16 -130q17 -65 54 -128q38 -64 112 -103q73 -39 176 -39q140 0 232 95q91 94 91 251q0 70 -16 133q-16 64 -54 127q-36 61 -111 100q-73 38 -173 38z" />
    <glyph glyph-name="Omacron.smcp" 
d="M711 1145v-74h-349v74h349zM78 428q0 192 132 314q133 122 325 122q123 0 213 -40q94 -41 142 -106q52 -69 75 -139q24 -72 24 -151q0 -189 -134 -311q-133 -121 -320 -121q-126 0 -216 40q-95 42 -142 105q-52 69 -75 139q-24 72 -24 148zM520 801q-144 0 -235 -93
q-92 -94 -92 -251q0 -67 16 -130q17 -65 54 -128q38 -64 112 -103q73 -39 176 -39q140 0 232 95q91 94 91 251q0 70 -16 133q-16 64 -54 127q-36 61 -111 100q-73 38 -173 38z" />
    <glyph glyph-name="P.smcp" horiz-adv-x="794" 
d="M383 332l-84 8v-184q0 -82 18 -156h-147q18 56 18 137v580q0 67 -18 141h74q32 0 84 3t112 3q157 0 242 -64q86 -65 86 -192q0 -128 -113 -202t-272 -74zM299 778v-389q17 -6 76 -6q112 0 188 52t76 169q0 199 -221 199q-33 0 -58 -4q-28 -5 -45 -9q-16 -4 -16 -12z" />
    <glyph glyph-name="Q.smcp" 
d="M80 430q0 190 132 313t323 123q120 0 213 -41q94 -41 142 -106q52 -70 75 -139q24 -74 24 -150q0 -131 -62 -228q-64 -101 -167 -155q73 -61 254 -123q180 -61 305 -63q-3 0 -12 -4q-11 -5 -24 -9q-11 -4 -37 -7q-24 -3 -50 -3q-170 0 -312 46q-148 48 -241 122
q-59 -10 -108 -10q-123 0 -213 40q-95 42 -143 106q-51 68 -75 140t-24 148zM520 801q-142 0 -234 -92q-91 -91 -91 -250q0 -69 16 -132q17 -65 54 -128q38 -64 112 -103q73 -39 174 -39q140 0 232 95q91 94 91 253q0 71 -16 132q-17 66 -53 126q-37 62 -111 100t-174 38z
" />
    <glyph glyph-name="R.smcp" horiz-adv-x="940" 
d="M557 391q57 -87 174 -218t209 -169v-6h-178q-58 29 -158 156q-107 135 -158 215q-20 -4 -65 -4h-82v-228q0 -81 18 -137h-147q16 54 16 137v580q0 77 -16 141h74q28 0 93 3q64 3 103 3q308 0 308 -237q0 -170 -191 -236zM299 778v-356h3q4 -1 10.5 -1.5t13.5 -0.5
q32 -2 47 -2q107 0 180 44q72 44 72 150q0 191 -207 191q-41 0 -81 -8q-38 -8 -38 -17z" />
    <glyph glyph-name="Racute.smcp" horiz-adv-x="940" 
d="M442 977l-39 27q23 43 51 95q38 70 54 103h133zM555 391q57 -87 174 -218t209 -169v-6h-178q-58 29 -158 156q-107 135 -158 215q-20 -4 -65 -4h-82v-228q0 -81 18 -137h-147q16 54 16 137v580q0 77 -16 141h72q30 0 95 3q64 3 103 3q307 0 307 -237q0 -170 -190 -236z
M297 778v-356h3q4 -1 10.5 -1.5t13.5 -0.5q32 -2 47 -2q107 0 180 44q72 44 72 150q0 191 -207 191q-41 0 -81 -8q-38 -8 -38 -17z" />
    <glyph glyph-name="Rcaron.smcp" horiz-adv-x="940" 
d="M264 1182q4 4 43 28l144 -118l141 118l45 -28q-90 -99 -156 -203h-61q-78 115 -156 203zM555 391q57 -87 174 -218t209 -169v-6h-178q-58 29 -158 156q-107 135 -158 215q-20 -4 -65 -4h-82v-228q0 -81 18 -137h-147q16 54 16 137v580q0 77 -16 141h72q30 0 95 3
q64 3 103 3q307 0 307 -237q0 -170 -190 -236zM297 778v-356h3q4 -1 10.5 -1.5t13.5 -0.5q32 -2 47 -2q107 0 180 44q72 44 72 150q0 191 -207 191q-41 0 -81 -8q-38 -8 -38 -17z" />
    <glyph glyph-name="Rcomma.smcp" horiz-adv-x="940" 
d="M453 -262q-45 15 -45 61q0 29 18 48q18 20 47 20q28 0 48 -20t20 -48q0 -124 -183 -268l-14 16q50 45 77 101q28 57 32 90zM555 391q57 -87 174 -218t209 -169v-6h-178q-58 29 -158 156q-107 135 -158 215q-20 -4 -65 -4h-82v-228q0 -81 18 -137h-147q16 54 16 137v580
q0 77 -16 141h72q30 0 95 3q64 3 103 3q307 0 307 -237q0 -170 -190 -236zM297 778v-356h3q4 -1 10.5 -1.5t13.5 -0.5q32 -2 47 -2q107 0 180 44q72 44 72 150q0 191 -207 191q-41 0 -81 -8q-38 -8 -38 -17z" />
    <glyph glyph-name="S.smcp" horiz-adv-x="706" 
d="M319 59q92 0 144 37q53 38 53 107q0 58 -44 102q-43 43 -107 72q-42 19 -128 59q-64 30 -109 84q-44 53 -44 125q0 93 81 157q80 64 214 64q93 0 215 -49l-10 -86q-35 26 -98 46q-68 22 -124 22q-83 0 -129 -35q-45 -34 -45 -90q0 -60 45 -103q44 -42 110 -70
q43 -18 129 -58q66 -31 110 -79q45 -50 45 -122q0 -107 -87 -176q-88 -70 -237 -70q-76 0 -157 22q-83 23 -83 60q0 15 4 51q1 8 2.5 22.5t2.5 20.5q0 5 0.5 9t1.5 7v2q28 -58 101 -95q72 -36 144 -36z" />
    <glyph glyph-name="Sacute.smcp" horiz-adv-x="702" 
d="M360 977l-38 27l50 95q38 70 54 103h133zM319 59q92 0 144 37q53 38 53 107q0 58 -44 102q-43 43 -107 72q-42 19 -128 59q-64 30 -109 84q-44 53 -44 125q0 93 81 157q80 64 214 64q93 0 215 -49l-10 -86q-35 26 -98 46q-68 22 -124 22q-83 0 -129 -35q-45 -34 -45 -90
q0 -60 45 -103q44 -42 110 -70q43 -18 129 -58q66 -31 110 -79q45 -50 45 -122q0 -107 -87 -176q-88 -70 -237 -70q-76 0 -157 22q-83 23 -83 60q0 15 4 51q1 8 2.5 22.5t2.5 20.5q0 5 0.5 9t1.5 7v2q28 -58 101 -95q72 -36 144 -36z" />
    <glyph glyph-name="Scedilla.smcp" horiz-adv-x="702" 
d="M319 59q92 0 144 37q53 38 53 107q0 58 -44 102q-43 43 -107 72q-42 19 -128 59q-64 30 -109 84q-44 53 -44 125q0 93 81 157q80 64 214 64q93 0 215 -49l-10 -86q-35 26 -98 46q-68 22 -124 22q-83 0 -129 -35q-45 -34 -45 -90q0 -60 45 -103q44 -42 110 -70
q43 -18 129 -58q66 -31 110 -79q45 -50 45 -122q0 -103 -79 -170q-80 -68 -214 -74l-37 -92q66 -7 102 -43q35 -35 35 -82q0 -49 -45 -92q-44 -43 -115 -43q-50 0 -120 20l22 47q50 -18 82 -18q43 0 66 23q24 24 24 53q0 34 -39 61t-106 27l78 139q-71 1 -146 25
q-72 23 -72 55q0 15 4 51q1 8 2.5 22.5t2.5 20.5q0 5 0.5 9t1.5 7v2q28 -58 101 -95q72 -36 144 -36z" />
    <glyph glyph-name="Scomma.smcp" horiz-adv-x="702" 
d="M346 -262q-45 15 -45 61q0 29 18 48q18 20 48 20q28 0 48 -20q19 -19 19 -48q0 -125 -182 -268l-14 16q48 44 76 101t32 90zM319 59q92 0 144 37q53 38 53 107q0 58 -44 102q-43 43 -107 72q-42 19 -128 59q-64 30 -109 84q-44 53 -44 125q0 93 81 157q80 64 214 64
q93 0 215 -49l-10 -86q-35 26 -98 46q-68 22 -124 22q-83 0 -129 -35q-45 -34 -45 -90q0 -60 45 -103q44 -42 110 -70q43 -18 129 -58q66 -31 110 -79q45 -50 45 -122q0 -107 -87 -176q-88 -70 -237 -70q-76 0 -157 22q-83 23 -83 60q0 15 4 51q1 8 2.5 22.5t2.5 20.5
q0 5 0.5 9t1.5 7v2q28 -58 101 -95q72 -36 144 -36z" />
    <glyph glyph-name="T.smcp" horiz-adv-x="763" 
d="M438 137q0 -86 17 -137h-146q19 55 19 137v645q-22 17 -86 17q-146 0 -222 -17q6 49 15 80q35 -4 268 -4h160q248 0 287 4l-11 -80q-76 17 -215 17q-71 0 -86 -15v-647z" />
    <glyph glyph-name="Tbar.smcp" horiz-adv-x="763" 
d="M438 137q0 -86 17 -137h-146q19 55 19 137v357h-201v57h201v231q-22 17 -86 17q-146 0 -222 -17q6 49 15 80q35 -4 268 -4h160q248 0 287 4l-11 -80q-76 17 -215 17q-71 0 -86 -15v-233h209v-57h-209v-357z" />
    <glyph glyph-name="Tcaron.smcp" horiz-adv-x="763" 
d="M188 1182q2 2 21 14l22 14l146 -118l139 118l45 -28q-93 -101 -153 -203h-62q-84 118 -158 203zM438 137q0 -86 17 -137h-146q19 55 19 137v645q-22 17 -86 17q-146 0 -222 -17q6 49 15 80q35 -4 268 -4h160q248 0 287 4l-11 -80q-76 17 -215 17q-71 0 -86 -15v-647z" />
    <glyph glyph-name="Tcedilla.smcp" horiz-adv-x="763" 
d="M438 137q0 -86 17 -137h-58q-36 -87 -39 -94q66 -7 102 -43q34 -34 34 -82q0 -53 -44 -94t-116 -41q-53 0 -119 20l21 47q50 -18 81 -18q44 0 67 22q24 23 24 54q0 34 -39 61t-107 27l82 141h-35q19 55 19 137v645q-22 17 -86 17q-146 0 -222 -17q6 49 15 80
q35 -4 268 -4h160q248 0 287 4l-11 -80q-76 17 -215 17q-71 0 -86 -15v-647z" />
    <glyph glyph-name="U.smcp" horiz-adv-x="1030" 
d="M270 717v-314q0 -185 68 -262q66 -75 207 -75q152 0 216 88t64 268v188q0 125 -24 248h119q-23 -90 -23 -219v-250q0 -393 -373 -393q-366 0 -366 379v342q0 84 -15 141h146q-19 -59 -19 -141z" />
    <glyph glyph-name="Ubreve.smcp" horiz-adv-x="1030" 
d="M561 1083q92 0 174 76l29 -24q-85 -136 -203 -136q-122 0 -205 136l31 24q76 -76 174 -76zM268 717v-314q0 -185 68 -262q66 -75 207 -75q152 0 216 88t64 268v188q0 125 -24 248h119q-23 -90 -23 -219v-250q0 -393 -373 -393q-366 0 -366 379v342q0 84 -15 141h146
q-19 -59 -19 -141z" />
    <glyph glyph-name="Uhungarumlaut.smcp" horiz-adv-x="1030" 
d="M449 977l-37 27q34 64 104 198h133zM678 977l-37 27q34 64 104 198h134zM268 717v-314q0 -185 68 -262q66 -75 207 -75q152 0 216 88t64 268v188q0 125 -24 248h119q-23 -90 -23 -219v-250q0 -393 -373 -393q-366 0 -366 379v342q0 84 -15 141h146q-19 -59 -19 -141z" />
    <glyph glyph-name="Uogonek.smcp" horiz-adv-x="1030" 
d="M270 717v-314q0 -185 68 -262q66 -75 207 -75q152 0 216 88t64 268v217q0 120 -24 219h119q-23 -90 -23 -219v-250q0 -361 -311 -389q-68 -23 -131 -78q-64 -56 -64 -106q0 -76 98 -76q43 0 113 31l23 -35q-78 -66 -158 -66q-82 0 -123 38t-41 97q0 99 172 193
q-317 18 -317 377v342q0 84 -15 141h146q-19 -59 -19 -141z" />
    <glyph glyph-name="Uring.smcp" horiz-adv-x="1030" 
d="M432 1079q0 45 33 78t80 33t79 -33q31 -32 31 -78t-31 -78t-79 -32t-80 32q-33 33 -33 78zM479 1081q0 -28 20 -50q19 -21 46 -21q26 0 47 21q20 20 20 50q0 29 -19 48q-20 20 -48 20q-26 0 -46 -20t-20 -48zM268 717v-314q0 -185 68 -262q66 -75 207 -75q152 0 216 88
t64 268v188q0 125 -24 248h119q-23 -90 -23 -219v-250q0 -393 -373 -393q-366 0 -366 379v342q0 84 -15 141h146q-19 -59 -19 -141z" />
    <glyph glyph-name="V.smcp" horiz-adv-x="876" 
d="M461 156q167 384 217 507q43 107 43 140q0 29 -8 55h153q-47 -63 -98 -176l-309 -686h-51q-49 121 -142 333q-83 189 -153 357q-39 92 -97 172h193q-10 -27 -10 -59q0 -37 120 -320q26 -63 70.5 -170.5t63.5 -152.5h8z" />
    <glyph glyph-name="W.smcp" horiz-adv-x="1427" 
d="M1040 156q151 372 205 514q39 102 39 133q0 29 -8 55h149q-43 -55 -100 -190l-289 -672h-49l-268 661l-283 -661h-51q-126 330 -281 690q-52 124 -88 172h193q-10 -27 -10 -59q0 -35 39 -146q36 -102 192 -497h8q31 82 98 242q12 30 90 222q30 74 50 138q-30 62 -58 100
h193q-12 -28 -12 -59q0 -35 38 -141q36 -100 195 -502h8z" />
    <glyph glyph-name="Wcircumflex.smcp" horiz-adv-x="1425" 
d="M578 973l-46 28q95 99 160 201h62q73 -114 151 -201q-27 -20 -43 -28l-143 121q-93 -78 -141 -121zM1036 152q168 410 207 513t39 134q0 34 -10 55h151q-47 -62 -102 -190l-287 -670h-49l-268 659l-283 -659h-51l-281 690q-56 126 -90 170h195q-12 -28 -12 -59
q0 -39 38 -144q37 -103 195 -499h8q37 97 98 243q28 66 90 220q29 71 50 139q-37 71 -60 100h193q-10 -27 -10 -59q0 -36 39 -144q37 -101 192 -499h8z" />
    <glyph glyph-name="X.smcp" horiz-adv-x="970" 
d="M934 0h-203q-7 38 -96 166q-81 117 -174 231l-76 -102q-49 -65 -55 -73q-39 -50 -56 -74q-4 -5 -18.5 -25.5t-23.5 -33.5q-21 -31 -33 -54q-12 -24 -13 -35h-147q148 148 379 451q-21 25 -139 181q-115 151 -197 226h209q7 -59 201 -309q213 253 225 309h153
q-102 -68 -338 -366q312 -410 402 -492z" />
    <glyph glyph-name="Y.smcp" horiz-adv-x="888" 
d="M213 834q0 -33 44 -110q30 -53 192 -314h8q254 365 254 417q0 10 -1 17t-1 14h155q-4 -4 -25 -28q-34 -38 -48 -56q-27 -33 -54 -72q-2 -2 -2 -4l-254 -358v-203q0 -86 17 -137h-146q17 57 17 137v203q-314 492 -344 518h194q-6 -16 -6 -24z" />
    <glyph glyph-name="Yacute.smcp" horiz-adv-x="888" 
d="M477 973l-35 26l105 199h135zM213 834q0 -33 43 -109q38 -67 190 -315h9q254 365 254 417q0 21 -2 31h155q-4 -4 -25 -28q-4 -5 -14 -15.5t-18.5 -20.5t-16.5 -20q-20 -25 -53 -72l-256 -362v-203q0 -78 19 -137h-146q17 57 17 137v203q-25 38 -126 197q-58 91 -145 223
q-53 81 -75 98h194q-4 -15 -4 -24z" />
    <glyph glyph-name="Ycircumflex.smcp" horiz-adv-x="888" 
d="M330 973q-16 7 -26 15q-14 11 -19 13q102 111 159 201h60q77 -119 153 -201q-27 -20 -45 -28l-141 121q-93 -78 -141 -121zM213 834q0 -33 44 -110q30 -53 192 -314h8q254 365 254 417q0 10 -1 17t-1 14h155q-4 -4 -25 -28q-34 -38 -48 -56q-27 -33 -54 -72q-2 -2 -2 -4
l-254 -358v-203q0 -86 17 -137h-146q17 57 17 137v203q-314 492 -344 518h194q-6 -16 -6 -24z" />
    <glyph glyph-name="Z.smcp" horiz-adv-x="870" 
d="M811 858v-33q-516 -673 -567 -747q0 -21 112 -21q303 0 445 29l-21 -90q-359 4 -721 4v31l580 753q0 3 -34 6q-35 3 -84 6t-91 3q-230 0 -317 -17l8 82q45 -6 690 -6z" />
    <glyph glyph-name="Zacute.smcp" horiz-adv-x="870" 
d="M461 977l-37 27q34 64 104 198h134zM811 858v-33q-459 -592 -567 -747q0 -21 110 -21q306 0 445 29l-21 -90q-357 4 -719 4v31l578 753q0 3 -34 6q-35 3 -84 6t-89 3q-232 0 -317 -17l8 82q45 -6 690 -6z" />
    <glyph glyph-name="Zcaron.smcp" horiz-adv-x="870" 
d="M311 1182q4 4 43 28l144 -118l141 118l45 -28q-90 -99 -156 -203h-61q-78 115 -156 203zM811 858v-33q-459 -592 -567 -747q0 -21 110 -21q306 0 445 29l-21 -90q-357 4 -719 4v31l578 753q0 3 -34 6q-35 3 -84 6t-89 3q-232 0 -317 -17l8 82q45 -6 690 -6z" />
    <glyph glyph-name="Zdotaccent.smcp" horiz-adv-x="870" 
d="M416 1073q0 29 19 49q19 21 46 21q26 0 47 -21t21 -49q0 -27 -21 -46q-20 -19 -47 -19t-46 19t-19 46zM811 858v-33q-459 -592 -567 -747q0 -21 110 -21q306 0 445 29l-21 -90q-357 4 -719 4v31l578 753q0 3 -34 6q-35 3 -84 6t-89 3q-232 0 -317 -17l8 82q45 -6 690 -6z
" />
    <glyph glyph-name="_0127" horiz-adv-x="1081" 
 />
    <glyph glyph-name="_0127.001" horiz-adv-x="0" 
 />
    <glyph glyph-name="_0141" horiz-adv-x="0" 
 />
    <glyph glyph-name="_0158" horiz-adv-x="0" 
 />
    <glyph glyph-name="_0175" horiz-adv-x="0" 
 />
    <glyph glyph-name="_0185" horiz-adv-x="0" 
 />
    <glyph glyph-name="_127" horiz-adv-x="823" 
 />
    <glyph glyph-name="_316" horiz-adv-x="487" 
 />
    <glyph glyph-name="_318" horiz-adv-x="1185" 
 />
    <glyph glyph-name="_65535" horiz-adv-x="0" 
 />
    <glyph glyph-name="Aacute.smcp" horiz-adv-x="968" 
d="M520 993l-39 27l105 199h133zM915 0h-188q8 29 8 57q0 36 -92 244h-352q-92 -214 -92 -248q0 -29 8 -53h-158q52 68 101 174q253 547 319 703h49q53 -134 303 -707q50 -117 94 -170zM471 711l-154 -351h299q-15 42 -60 158q-47 122 -77 193h-8z" />
    <glyph glyph-name="Acircumflex.smcp" horiz-adv-x="968" 
d="M352 973l-45 28q95 99 160 201h61q71 -111 152 -201q-27 -20 -43 -28l-143 121q-112 -94 -142 -121zM915 0h-188q8 29 8 57q0 36 -92 244h-352q-92 -214 -92 -248q0 -29 8 -53h-158q52 68 101 174q253 547 319 703h49q53 -134 303 -707q50 -117 94 -170zM471 711
l-154 -351h299q-15 42 -60 158q-47 122 -77 193h-8z" />
    <glyph glyph-name="Adieresis.smcp" horiz-adv-x="968" 
d="M535 1079q0 29 19 48q20 20 46 20t46 -20t20 -48q0 -25 -20 -47q-19 -20 -46 -20t-46 20t-19 47zM328 1079q0 29 19 48q20 20 48 20q26 0 46 -20t20 -48q0 -25 -20 -47q-19 -20 -48 -20q-27 0 -46 20t-19 47zM915 0h-188q8 29 8 57q0 36 -92 244h-352q-92 -214 -92 -248
q0 -29 8 -53h-158q52 68 101 174q253 547 319 703h49q53 -134 303 -707q50 -117 94 -170zM471 711l-154 -351h299q-15 42 -60 158q-47 122 -77 193h-8z" />
    <glyph glyph-name="Agrave.smcp" horiz-adv-x="968" 
d="M537 1004l-37 -27l-201 225h133q26 -50 105 -198zM915 0h-188q8 29 8 57q0 36 -92 244h-352q-92 -214 -92 -248q0 -29 8 -53h-158q52 68 101 174q253 547 319 703h49q53 -134 303 -707q50 -117 94 -170zM471 711l-154 -351h299q-15 42 -60 158q-47 122 -77 193h-8z" />
    <glyph glyph-name="Aring.smcp" horiz-adv-x="968" 
d="M389 1096q0 44 33 76q34 32 80 32t81 -32q33 -30 33 -76t-33 -78q-35 -33 -81 -33q-44 0 -79 33q-34 33 -34 78zM442 1096q0 -28 18 -49t44 -21t44 21q17 20 17 49t-17 49t-44 20q-26 0 -44 -19q-18 -20 -18 -50zM915 0h-188q8 29 8 57q0 36 -92 244h-352
q-92 -214 -92 -248q0 -29 8 -53h-158q52 68 101 174q253 547 319 703h49q53 -134 303 -707q50 -117 94 -170zM471 711l-154 -351h299q-15 42 -60 158q-47 122 -77 193h-8z" />
    <glyph glyph-name="c_t" horiz-adv-x="1368" 
d="M1004 195v485h-123l-4 47q84 6 128 50t44 112t-51 121q-50 51 -136 51q-96 0 -148 -55t-52 -134q0 -131 86 -217q-54 -42 -80 -59q-78 121 -215 121q-87 0 -163 -78q-77 -79 -77 -225q0 -168 85 -252q86 -84 198 -84t225 108l33 -30q-122 -162 -305 -162q-149 0 -251 118
t-102 275q0 168 107 281q106 112 260 112q65 0 139 -24q-10 44 -10 98q0 109 70 187q69 77 202 77q112 0 182 -63t70 -187v-116h223l-8 -72h-215v-453q0 -149 144 -178l-13 -55q-120 1 -182 57q-61 55 -61 144z" />
    <glyph glyph-name="dollar.smcp" horiz-adv-x="829" 
d="M326 -109v146h-19q-122 0 -211 53l25 70q77 -71 205 -76v305q-59 25 -79 37q-29 17 -65 42q-37 26 -56 62q-17 33 -17 80q0 76 58 133q59 57 159 72v80h57v-76q92 -5 182 -43l-24 -69q-69 51 -158 63v-295q64 -29 80 -38q19 -11 62 -40q44 -30 58 -61q15 -33 15 -78
q0 -80 -57 -138q-56 -58 -158 -79v-150h-57zM201 651q0 -85 125 -153v270q-125 -24 -125 -117zM502 219q0 69 -119 143v-274q119 38 119 131z" />
    <glyph glyph-name="Eacute.smcp" horiz-adv-x="868" 
d="M457 993l-39 27l102 199h133zM299 422v-283q0 -52 18 -67t93 -15q198 0 346 29q-1 -5 -5 -21.5t-7 -27.5q-7 -29 -9 -41q-151 4 -489 4h-78q18 56 18 137v580q0 85 -18 141q510 0 573 6l-22 -82q-85 17 -303 17q-117 0 -117 -17v-301q198 0 328 8q-11 -47 -21 -75
q-98 8 -307 8z" />
    <glyph glyph-name="Ecircumflex.smcp" horiz-adv-x="868" 
d="M299 422v-283q0 -52 18 -67t93 -15q198 0 346 29q-1 -5 -5 -21.5t-7 -27.5q-7 -29 -9 -41q-151 4 -489 4h-78q18 56 18 137v580q0 85 -18 141q510 0 573 6l-22 -82q-85 17 -303 17q-117 0 -117 -17v-301q198 0 328 8q-11 -47 -21 -75q-98 8 -307 8zM332 973l-45 28
q91 96 159 201h62q73 -114 151 -201q-27 -20 -43 -28l-143 121q-93 -78 -141 -121z" />
    <glyph glyph-name="Edieresis.smcp" horiz-adv-x="868" 
d="M301 1075q0 29 17 49q18 21 44 21q27 0 45 -21q17 -20 17 -49q0 -28 -18 -49q-17 -20 -46 -20q-25 0 -42 20t-17 49zM522 1075q0 28 18 49t42 21q26 0 44 -21q17 -20 17 -49t-17 -49t-44 -20q-25 0 -42 20q-18 21 -18 49zM299 420v-285q0 -52 18 -67t93 -15q198 0 346 29
l-21 -88q-151 4 -489 4h-78q18 52 18 135v580q0 85 -18 141q510 0 573 6l-22 -82q-85 17 -303 17q-117 0 -117 -15v-303q221 0 328 10q-10 -41 -21 -77q-109 10 -307 10z" />
    <glyph glyph-name="Egrave.smcp" horiz-adv-x="868" 
d="M547 1020l-41 -25q-30 37 -197 224h133q49 -95 105 -199zM299 422v-283q0 -52 18 -67t93 -15q198 0 346 29q-1 -5 -5 -21.5t-7 -27.5q-7 -29 -9 -41q-151 4 -489 4h-78q18 56 18 137v580q0 85 -18 141q510 0 573 6l-22 -82q-85 17 -303 17q-117 0 -117 -17v-301
q198 0 328 8q-11 -47 -21 -75q-98 8 -307 8z" />
    <glyph glyph-name="eight.denominator" horiz-adv-x="641" 
d="M479 489q0 -75 -112 -147q145 -96 145 -178q0 -71 -52 -120q-53 -50 -138 -50q-96 0 -145 46q-50 47 -50 110q0 101 147 178q-110 83 -110 147q0 69 48 104q46 33 110 33q68 0 112 -32q45 -33 45 -91zM440 141q0 43 -34 80q-31 34 -107 86q-109 -67 -109 -151
q0 -55 38 -88t96 -33q52 0 84 26t32 80zM231 494q0 -52 109 -132q88 49 88 121q0 43 -30 66q-29 22 -66 22q-41 0 -71 -21t-30 -56z" />
    <glyph glyph-name="eight.numerator" horiz-adv-x="641" 
d="M479 1018q0 -74 -112 -146q68 -46 107 -88q38 -41 38 -92q0 -70 -53 -120t-140 -50q-94 0 -143 46t-49 110q0 102 145 178q-108 86 -108 148q0 70 48 104q49 35 107 35q71 0 115 -34q45 -35 45 -91zM438 670q0 42 -35 80q-33 36 -106 86q-109 -67 -109 -152q0 -55 38 -88
t96 -33q51 0 84 27q32 26 32 80zM231 1022q0 -52 109 -129q86 50 86 119q0 42 -30 65q-31 23 -66 23q-40 0 -70 -22q-29 -21 -29 -56z" />
    <glyph glyph-name="eight.onum" horiz-adv-x="858" 
d="M711 860q0 -127 -197 -256q121 -82 186 -153q66 -72 66 -160q0 -123 -91 -210t-241 -87q-165 0 -253 80q-87 80 -87 194q0 177 256 310q-93 71 -143 130q-49 58 -49 128q0 124 84 184q83 59 192 59q119 0 197 -59q80 -60 80 -160zM641 252q0 75 -62 138q-66 68 -186 151
q-188 -112 -188 -265q0 -99 65 -158q67 -61 166 -61q85 0 146 52q59 50 59 143zM279 868q0 -56 47 -109q46 -52 143 -120q149 88 149 211q0 83 -52 123q-53 41 -115 41q-72 0 -122 -38t-50 -108z" />
    <glyph glyph-name="eight.tnum" horiz-adv-x="1046" 
d="M809 860q0 -127 -195 -256q124 -86 185 -153q65 -71 65 -160q0 -123 -91 -210t-241 -87q-165 0 -251 80t-86 194q0 177 256 310q-96 73 -144 130q-49 58 -49 128q0 124 84 184q83 59 190 59q119 0 197 -59q80 -60 80 -160zM741 252q0 75 -62 137q-67 67 -185 152
q-191 -111 -191 -265q0 -98 66 -158q67 -61 166 -61q85 0 146 52q60 51 60 143zM377 868q0 -56 47 -108q48 -53 143 -121q152 90 152 211q0 82 -53 123t-117 41q-72 0 -122 -38t-50 -108z" />
    <glyph glyph-name="five.denominator" horiz-adv-x="522" 
d="M358 195q0 79 -70 124q-73 47 -179 48q47 230 51 247h108h60h51l20 2l19 -92q-38 29 -113 29h-119q-5 -23 -12 -64q-6 -35 -14 -63q117 -7 194 -68q76 -60 76 -159q0 -105 -105 -189t-227 -114l-6 18q111 38 189 114q77 76 77 167z" />
    <glyph glyph-name="five.numerator" horiz-adv-x="522" 
d="M358 698q0 81 -71 125q-73 45 -181 47l54 248h108q116 0 131 4l19 -94q-38 29 -113 29h-121l-24 -127q117 -7 194 -68q76 -60 76 -160q0 -104 -106 -189t-226 -114l-8 17q115 40 191 116q77 77 77 166z" />
    <glyph glyph-name="five.onum" horiz-adv-x="817" 
d="M573 16q0 143 -123 220q-122 76 -317 81l92 433h193q186 0 229 6l29 -166q-60 51 -195 51h-205q-4 -17 -10 -46t-16 -79.5t-19 -91.5q209 -21 339 -123t130 -276q0 -125 -99 -242t-227 -186q-131 -71 -257 -103q-7 14 -11 29q194 70 330 206q137 137 137 287z" />
    <glyph glyph-name="five.tnum" horiz-adv-x="1046" 
d="M694 336q0 139 -124 218q-123 78 -316 83l92 432h193q65 0 100 1q16 0 46 0.5t43 1.5q24 1 40 1l29 -164q-56 49 -195 49h-205q-4 -17 -10 -46t-16 -79.5t-19 -91.5q211 -21 338 -121q131 -102 131 -276q0 -96 -57 -188q-57 -91 -148 -158q-93 -68 -187 -113
q-101 -48 -191 -71q-7 15 -11 28q193 69 330 205q137 135 137 289z" />
    <glyph glyph-name="fleuron" horiz-adv-x="1228" 
d="M659 -98q0 -31 19 -50q18 -18 43 -18q31 0 47 19q13 16 15 39t16 40q16 19 45 19q26 0 41 -20q14 -18 14 -48q0 -51 -51 -97q-50 -46 -139 -46q-238 0 -385 135q-148 136 -148 293q0 110 71 181t214 71l102 -14q18 99 62 180q-114 -60 -172 -60q-115 0 -115 95
q0 27 27 58q27 32 75 32q72 0 72 -33q0 -25 -18 -25q-8 0 -26 6q-21 7 -28 7q-49 0 -49 -48q0 -53 62 -53q60 0 175 80t185 80q61 0 101 -34t40 -97q0 -51 -41 -83t-88 -32q-73 0 -73 37q0 25 28 25q1 0 23 -2l22 -2q68 0 68 63q0 27 -23 52q-22 24 -65 24q-78 0 -123 -79
q-46 -80 -47 -206q-131 -117 -131 -252h22q15 111 108 183q92 71 200 71q76 0 119 -46q44 -47 44 -118q0 -56 -53 -106q-52 -49 -116 -78q-58 -26 -115 -67q-54 -39 -54 -76z" />
    <glyph glyph-name="florin.osf" horiz-adv-x="1019" 
d="M172 33l23 55q24 -6 61 -6q42 0 76 32q33 31 51 86q18 53 30 104q9 39 20 113q8 54 16 87h-121v51h131q52 251 291 262h59l-39 -67q-49 14 -74 14h-12q-42 -5 -67 -45q-25 -39 -46 -164h183q-12 -33 -17 -51h-174q-21 -100 -33 -153q-14 -60 -32 -115q-22 -65 -42 -94
q-18 -26 -56 -59q-34 -30 -78 -40q-43 -10 -107 -10h-43z" />
    <glyph glyph-name="four.denominator" horiz-adv-x="704" 
d="M57 168l381 457h15v-422q75 0 102 6v-64q-40 9 -102 9v-54q0 -23 1 -34q1 -15 3 -28t3 -20q2 -10 3 -14v-4h-96q10 33 10 100v54h-320v14zM152 203h225v278z" />
    <glyph glyph-name="four.numerator" horiz-adv-x="704" 
d="M61 684l381 457h15v-422q75 0 102 6v-63q-27 6 -102 6v-52q0 -82 10 -102h-98q10 36 10 102v52h-318v16zM154 719h225v276z" />
    <glyph glyph-name="four.onum" horiz-adv-x="980" 
d="M98 27l623 749h12v-700q126 1 176 12v-98q-53 10 -176 10v-170q0 -113 19 -172h-156q18 61 18 172v170h-516v27zM225 76h389v463z" />
    <glyph glyph-name="four.tnum" horiz-adv-x="1046" 
d="M98 287l623 770h12v-723q126 1 176 12v-100q-66 12 -176 12v-88q0 -111 19 -170h-156q18 62 18 170v88h-516v29zM225 334h389v485z" />
    <glyph glyph-name="gcomma" horiz-adv-x="897" 
d="M479 1053q-45 15 -45 61q0 27 19 48q18 20 47 20q28 0 48 -20q19 -19 19 -48q0 -122 -161 -250l-17 19q80 83 90 170zM653 2l-4 64q-99 -72 -200 -72q-152 0 -251 116q-100 117 -100 277q0 167 106 281q105 112 259 112q102 0 192 -57l9 29h120q-20 -53 -20 -150v-622
q0 -148 -100 -241t-248 -93q-199 0 -320 100l43 86q56 -59 139 -88q82 -29 138 -29q92 0 165 71q72 71 72 185v31zM496 78q78 0 157 61v482q-82 96 -200 96q-90 0 -166 -79t-76 -228q0 -170 87 -251t198 -81z" />
    <glyph glyph-name="guillemotleft.case" horiz-adv-x="763" 
d="M205 555q7 -16 186 -317l-41 -37q-260 344 -260 354q21 35 258 354l45 -35q-183 -308 -188 -319zM446 555q7 -13 189 -317l-43 -37q-258 343 -258 354q24 47 258 354l45 -35q-188 -316 -191 -319z" />
    <glyph glyph-name="guillemotright.case" horiz-adv-x="718" 
d="M377 238q176 292 188 317q-12 24 -39 68q-19 31 -73 121l-78 130l45 33q236 -316 256 -352q0 -12 -258 -354q-4 4 -22 19q-6 5 -19 18zM135 238q179 300 187 317q-5 13 -36 67q-9 15 -34 56t-41 67q-15 26 -41.5 69t-36.5 60l45 33q244 -327 258 -352q0 -5 -4 -12
q-10 -17 -16 -25q-8 -11 -26 -35q-6 -8 -38 -50q-41 -53 -46 -61q-10 -15 -59 -79q-13 -17 -37 -47.5t-34 -44.5q-7 7 -19 17t-22 20z" />
    <glyph glyph-name="guilsinglleft.case" horiz-adv-x="464" 
d="M205 555q7 -16 186 -317l-41 -37q-260 344 -260 354q21 35 258 354l45 -35q-183 -308 -188 -319z" />
    <glyph glyph-name="guilsinglright.case" horiz-adv-x="460" 
d="M80 238q154 255 186 317q-6 11 -38 67q-12 21 -73 123q-9 16 -37 62.5t-40 66.5l45 33q236 -316 256 -352q0 -12 -258 -354q-4 4 -22 19q-6 5 -19 18z" />
    <glyph glyph-name="hyphen.case" horiz-adv-x="665" 
d="M537 487v-81h-412v81h412z" />
    <glyph glyph-name="Iacute.smcp" horiz-adv-x="487" 
d="M250 977l-37 27q34 64 104 198h134zM297 717v-580q0 -81 18 -137h-145q16 54 16 137v580q0 77 -16 141h145q-18 -56 -18 -141z" />
    <glyph glyph-name="Icircumflex.smcp" horiz-adv-x="487" 
d="M104 993q-11 5 -25 16t-20 13q105 115 160 201h60q77 -119 153 -201q-30 -22 -45 -29l-143 121zM299 717v-580q0 -89 16 -137h-145q18 56 18 137v580q0 67 -18 141h145q-16 -54 -16 -141z" />
    <glyph glyph-name="Idieresis.smcp" horiz-adv-x="487" 
d="M283 1126q0 30 19 50t46 20q29 0 48 -20q20 -22 20 -50q0 -26 -20 -46q-19 -19 -48 -19q-27 0 -46 19t-19 46zM72 1126q0 30 19 50t46 20q29 0 48 -20q20 -22 20 -50q0 -26 -20 -46q-19 -19 -48 -19q-27 0 -46 19t-19 46zM299 717v-580q0 -89 16 -137h-145q18 56 18 137
v580q0 67 -18 141h145q-16 -54 -16 -141z" />
    <glyph glyph-name="Igrave.smcp" horiz-adv-x="487" 
d="M295 1004l-39 -27q-32 39 -199 225h133zM299 717v-580q0 -89 16 -137h-145q18 56 18 137v580q0 67 -18 141h145q-16 -54 -16 -141z" />
    <glyph glyph-name="Jcircumflex.smcp" horiz-adv-x="600" 
d="M350 717v-473q0 -177 -50 -289q-50 -111 -183 -168q0 1 -8 11q-10 12 -13 16q95 58 119 158q25 106 25 317v428q0 73 -17 141h146q-19 -59 -19 -141zM152 985l-48 29q74 76 160 203h62q61 -95 153 -203l-45 -29q-15 14 -143 121z" />
    <glyph glyph-name="lcomma" horiz-adv-x="442" 
d="M178 170v739q0 123 -39 170l152 39v-948q0 -88 18 -170h-147q16 81 16 170zM231 -289q-49 18 -49 60q0 27 21 46q20 19 49 19q32 0 50 -21q17 -20 17 -53q0 -47 -41 -111q-40 -63 -96 -122l-35 29q55 68 84 153z" />
    <glyph glyph-name="nine.denominator" horiz-adv-x="706" 
d="M154 -100l-7 18q127 45 211 139q85 96 109 205q-72 -39 -152 -39q-72 0 -129 51t-57 144q0 84 58 146q59 63 157 63q93 0 157 -59q62 -58 62 -169q0 -170 -117 -305q-116 -134 -292 -194zM330 584q-50 0 -91 -41q-40 -40 -40 -109q0 -75 46 -118q47 -44 103 -44
q76 0 125 37q8 53 8 90q0 185 -151 185z" />
    <glyph glyph-name="nine.numerator" horiz-adv-x="667" 
d="M156 414l-6 18q125 44 210 140t109 206q-67 -39 -152 -39q-70 0 -129 51q-57 50 -57 144q0 84 58 146q59 63 157 63q96 0 158 -59q61 -58 61 -169q0 -171 -116 -306q-115 -134 -293 -195zM332 1100q-50 0 -91 -41q-40 -40 -40 -109q0 -73 47 -117q48 -45 102 -45
q76 0 125 37q8 53 8 90q0 185 -151 185z" />
    <glyph glyph-name="nine.onum" horiz-adv-x="942" 
d="M133 -494l-12 33q221 80 368 245q148 166 191 357q-122 -69 -264 -69q-125 0 -226 89q-100 88 -100 251q0 150 100 259t275 109q166 0 275 -103q110 -104 110 -296q0 -298 -204 -533q-204 -236 -513 -342zM442 715q-92 0 -161 -74q-70 -75 -70 -199q0 -128 81 -206
t183 -78q128 0 217 67q15 77 15 154q0 141 -61 239q-61 97 -204 97z" />
    <glyph glyph-name="nine.tnum" horiz-adv-x="1046" 
d="M203 -195l-13 33q222 80 369 245q148 166 191 357q-122 -69 -265 -69q-124 0 -225 89q-100 88 -100 251q0 150 100 259t275 109q164 0 273 -103q110 -104 110 -296q0 -297 -203 -533q-202 -235 -512 -342zM512 1014q-93 0 -162 -74t-69 -199q0 -129 80 -206
q81 -78 184 -78q130 0 215 67q14 71 14 154q0 142 -59 238q-60 98 -203 98z" />
    <glyph glyph-name="Ntilde.smcp" horiz-adv-x="1036" 
d="M635 1020q-38 0 -91 37t-91 37q-32 0 -93 -64l-34 37q11 18 21 31q16 21 53 50q41 32 75 32t89 -38t91 -38q37 0 93 63l11 -11q9 -9 12 -13t11 -10q-11 -18 -21 -31q-15 -20 -52 -50q-40 -32 -74 -32zM150 231v529q0 12 -6 40q-4 18 -13 40l-6 18h88l600 -635h10v404
q0 132 -24 231h123q-25 -100 -25 -231v-631h-14l-647 692h-13v-457q0 -151 27 -231h-123q23 74 23 231z" />
    <glyph glyph-name="o_f.salt" horiz-adv-x="1380" 
d="M1055 158v522h-119q-4 29 -4 47q123 1 123 82q0 35 5 75q5 38 22 81q18 45 46 76q29 32 82 55q51 22 125 22q68 0 191 -39l-37 -88q-72 66 -184 66q-138 0 -138 -234v-71h224l-9 -72h-215v-510q0 -280 -80 -402t-239 -122q-69 0 -184 41q8 19 12 29l12 30q95 -31 154 -31
q99 0 156 98q57 97 57 345zM96 385q0 171 107 283q106 110 258 110q97 0 171 -37q77 -39 116 -96q41 -61 60 -125t19 -135q0 -173 -106 -282t-258 -109q-96 0 -171 36q-77 37 -116 95q-41 61 -60 125q-20 68 -20 135zM451 715q-103 0 -172 -86q-70 -87 -70 -221
q0 -57 12 -114q11 -51 40 -113q26 -56 83 -91q56 -35 129 -35q103 0 172 86q70 87 70 221q0 52 -13 114q-12 55 -39 113q-26 56 -83 91q-56 35 -129 35z" />
    <glyph glyph-name="Oacute.smcp" 
d="M598 993l-37 27l103 199h133zM78 428q0 192 132 314q133 122 325 122q123 0 213 -40q94 -41 142 -106q52 -69 75 -139q24 -72 24 -151q0 -189 -134 -311q-133 -121 -320 -121q-126 0 -216 40q-95 42 -142 105q-52 69 -75 139q-24 72 -24 148zM520 801q-144 0 -235 -93
q-92 -94 -92 -251q0 -67 16 -130q17 -65 54 -128q38 -64 112 -103q73 -39 176 -39q140 0 232 95q91 94 91 251q0 70 -16 133q-16 64 -54 127q-36 61 -111 100q-73 38 -173 38z" />
    <glyph glyph-name="Ocircumflex.smcp" 
d="M391 979q-36 22 -45 31q86 92 158 200h61q69 -106 154 -202l-43 -29l-141 121zM78 428q0 192 132 314q133 122 325 122q123 0 213 -40q94 -41 142 -106q52 -69 75 -139q24 -72 24 -151q0 -189 -134 -311q-133 -121 -320 -121q-126 0 -216 40q-95 42 -142 105
q-52 69 -75 139q-24 72 -24 148zM520 801q-144 0 -235 -93q-92 -94 -92 -251q0 -67 16 -130q17 -65 54 -128q38 -64 112 -103q73 -39 176 -39q140 0 232 95q91 94 91 251q0 70 -16 133q-16 64 -54 127q-36 61 -111 100q-73 38 -173 38z" />
    <glyph glyph-name="Odieresis.smcp" 
d="M618 1112q0 27 20 49q20 21 46 21q31 0 49 -20q19 -21 19 -50q0 -25 -19 -46q-18 -19 -49 -19q-27 0 -46 19q-20 20 -20 46zM408 1112q0 29 19 49q19 21 46 21q29 0 48 -21q20 -22 20 -49q0 -26 -20 -46q-19 -19 -48 -19q-27 0 -46 19t-19 46zM78 428q0 192 132 314
q133 122 325 122q123 0 213 -40q94 -41 142 -106q52 -69 75 -139q24 -72 24 -151q0 -189 -134 -311q-133 -121 -320 -121q-126 0 -216 40q-95 42 -142 105q-52 69 -75 139q-24 72 -24 148zM520 801q-144 0 -235 -93q-92 -94 -92 -251q0 -67 16 -130q17 -65 54 -128
q38 -64 112 -103q73 -39 176 -39q140 0 232 95q91 94 91 251q0 70 -16 133q-16 64 -54 127q-36 61 -111 100q-73 38 -173 38z" />
    <glyph glyph-name="Ograve.smcp" 
d="M666 1020l-39 -25l-201 224h133q12 -18 107 -199zM78 428q0 192 132 314q133 122 325 122q123 0 213 -40q94 -41 142 -106q52 -69 75 -139q24 -72 24 -151q0 -189 -134 -311q-133 -121 -320 -121q-126 0 -216 40q-95 42 -142 105q-52 69 -75 139q-24 72 -24 148zM520 801
q-144 0 -235 -93q-92 -94 -92 -251q0 -67 16 -130q17 -65 54 -128q38 -64 112 -103q73 -39 176 -39q140 0 232 95q91 94 91 251q0 70 -16 133q-16 64 -54 127q-36 61 -111 100q-73 38 -173 38z" />
    <glyph glyph-name="one.denominator" horiz-adv-x="612" 
d="M496 57v-55q-1 0 -10 0.5t-29 1t-43 0.5q-104 2 -107 2q-2 0 -108 -2q-15 0 -28.5 -0.5t-23 -0.5t-16.5 -0.5t-11 -0.5h-3v55h151v506q-10 0 -70 -3t-67 -3v57h213v-557h152z" />
    <glyph glyph-name="one.numerator" horiz-adv-x="612" 
d="M496 567v-55q-4 0 -82 3t-107 3t-108 -3t-82 -3v55h151v506q-94 0 -137 -6v59h213v-559h152z" />
    <glyph glyph-name="one.onum" horiz-adv-x="854" 
d="M698 86v-86q-1 0 -13 0.5t-40.5 2t-60.5 2.5q-123 5 -154 5q-32 0 -155 -5q-32 -1 -60.5 -2.5t-41 -2t-13.5 -0.5v86h211v588q-19 0 -112 -3t-101 -3v88q2 0 19 -0.5t52 -1t74 -0.5q180 -2 186 -2v-666h209z" />
    <glyph glyph-name="one.tnum" horiz-adv-x="1046" 
d="M596 1079v-911q0 -84 43 -84h170v-86q-198 8 -266 8q-185 0 -273 -8v86h164q23 0 33 16t10 68v680q-2 92 -67 92q-25 0 -136 -16l-8 41q148 45 330 114z" />
    <glyph glyph-name="Oslash.smcp" 
d="M78 428q0 192 132 314q133 122 325 122q133 0 229 -51l88 131l41 -26l-88 -127q94 -61 139 -160t45 -203q0 -189 -134 -311q-133 -121 -320 -121q-140 0 -236 47q-29 -46 -43 -67q-6 -9 -39 -56q-8 5 -19 13q-13 10 -20 14q4 7 40 59q27 39 42 60q-95 60 -138 158
q-44 100 -44 204zM520 801q-144 0 -235 -93q-92 -94 -92 -251q0 -204 118 -316l408 604q-83 56 -199 56zM874 403q0 204 -118 312l-408 -604q82 -54 203 -54q140 0 232 95q91 94 91 251z" />
    <glyph glyph-name="Otilde.smcp" 
d="M635 1020q-36 0 -89 37t-91 37q-40 0 -93 -64l-34 37q11 18 21 31q15 20 52 50q40 32 74 32q38 0 93 -38t89 -38q43 0 93 63l34 -34q-11 -18 -21 -31q-16 -21 -53 -50q-41 -32 -75 -32zM78 428q0 192 132 314q133 122 325 122q123 0 213 -40q94 -41 142 -106
q52 -69 75 -139q24 -72 24 -151q0 -189 -134 -311q-133 -121 -320 -121q-126 0 -216 40q-95 42 -142 105q-52 69 -75 139q-24 72 -24 148zM520 801q-144 0 -235 -93q-92 -94 -92 -251q0 -67 16 -130q17 -65 54 -128q38 -64 112 -103q73 -39 176 -39q140 0 232 95
q91 94 91 251q0 70 -16 133q-16 64 -54 127q-36 61 -111 100q-73 38 -173 38z" />
    <glyph glyph-name="parenleft.case" horiz-adv-x="534" 
d="M82 545q0 214 106 405q106 192 306 340l14 -14q-147 -119 -221 -311q-74 -193 -74 -420q0 -226 74 -419q73 -191 221 -310l-14 -15q-201 149 -306 339q-106 191 -106 405z" />
    <glyph glyph-name="parenright.case" horiz-adv-x="534" 
d="M451 543q0 -212 -107 -405q-106 -191 -305 -339l-14 15q148 119 221 310t73 419q0 229 -73 420q-74 192 -221 311l14 14q198 -147 305 -340t107 -405z" />
    <glyph glyph-name="rcomma" horiz-adv-x="577" 
d="M262 -281q-49 15 -49 62q0 27 19 46t47 19q30 0 48 -22q17 -21 17 -55q0 -48 -40 -112q-42 -67 -93 -118l-31 29q34 39 56 83q25 49 26 68zM176 170v401q0 125 -39 168l152 41v-102q135 102 237 102q36 0 66 -6q-11 -65 -21 -110q-38 26 -86 26q-42 0 -102 -28t-94 -62
v-430q0 -88 18 -170h-147q16 81 16 170z" />
    <glyph glyph-name="Scircumflex.smcp" horiz-adv-x="706" 
d="M319 59q93 0 146 35t53 103q0 57 -45 101q-46 44 -108 74q-105 50 -127 61q-63 32 -109 85q-45 52 -45 127q0 93 81 157q80 64 214 64q93 0 215 -49l-10 -86q-35 26 -98 46q-68 22 -124 22q-172 0 -178 -119q0 -58 45 -102t111 -72q26 -11 73 -33t58 -27q66 -30 111 -81
t45 -123q0 -107 -87 -176q-88 -70 -237 -70q-76 0 -157 22q-83 23 -83 60q0 15 4 51q1 8 2.5 22.5t2.5 20.5q0 5 0.5 9t1.5 7v2q28 -58 101 -95q72 -36 144 -36zM225 979l-43 31q77 83 158 200h61q66 -106 154 -202l-45 -29l-139 121z" />
    <glyph glyph-name="scomma" horiz-adv-x="757" 
d="M350 -281q-47 15 -47 62q0 25 19 46q18 19 45 19q30 0 47 -20q18 -21 18 -49q0 -50 -40 -117q-42 -70 -93 -121l-31 29q32 33 57 82q23 45 25 69zM383 55q57 0 110 38q52 37 52 97q0 52 -42 90q-41 36 -101 61q-13 5 -36.5 15t-43 18t-37.5 15q-58 23 -102 69
q-42 44 -42 107q0 96 73 155q71 58 192 58q149 0 249 -110l-69 -58q-74 105 -199 105q-51 0 -99 -31q-46 -30 -46 -80q0 -59 64 -101q65 -43 143 -65q79 -23 142 -74q64 -52 64 -131q0 -119 -89 -179q-88 -60 -201 -60q-187 0 -281 145q13 11 38 29t38 29q41 -73 90 -107
q50 -35 133 -35z" />
    <glyph glyph-name="seven.denominator" horiz-adv-x="559" 
d="M442 610l7 -8l-277 -602h-82q147 245 287 551h-176q-72 0 -111 -31q1 8 8 46q7 37 8 48q56 -4 132 -4h204z" />
    <glyph glyph-name="seven.numerator" horiz-adv-x="571" 
d="M442 1120q0 -2 3 -5q4 -4 4 -5l-275 -602h-82q153 260 285 551h-174q-79 0 -113 -31l19 96q55 -4 129 -4h204z" />
    <glyph glyph-name="seven.onum" horiz-adv-x="845" 
d="M737 750q1 -1 5 -9q2 -4 6 -8l-484 -1050h-135q250 410 500 958h-314q-133 0 -196 -51l31 166q111 -6 227 -6h360z" />
    <glyph glyph-name="seven.tnum" horiz-adv-x="1046" 
d="M856 1069l10 -18l-483 -1051h-135q244 398 500 958h-332q-140 0 -199 -49l31 164q99 -4 227 -4h381z" />
    <glyph glyph-name="six.denominator" horiz-adv-x="702" 
d="M532 727l9 -20q-279 -114 -324 -353q79 43 158 43q72 0 129 -51t57 -143q0 -87 -54 -148t-153 -61q-96 0 -160 64q-65 65 -65 186q0 160 113 287q114 128 290 196zM209 266q0 -231 158 -231q53 0 89 40t36 111q0 74 -47 118t-103 44q-80 0 -129 -37q-4 -29 -4 -45z" />
    <glyph glyph-name="six.numerator" horiz-adv-x="681" 
d="M532 1245l9 -20q-279 -118 -324 -355q78 45 160 45q71 0 127 -52q57 -53 57 -144q0 -87 -54 -148t-153 -61q-96 0 -160 64q-65 65 -65 188q0 161 113 288t290 195zM209 784q0 -128 41 -181q40 -52 117 -52q53 0 90 40t37 111t-48 117q-47 45 -104 45q-77 0 -129 -35
q-4 -33 -4 -45z" />
    <glyph glyph-name="six.onum" horiz-adv-x="948" 
d="M799 1278l16 -35q-229 -96 -379 -255q-149 -158 -188 -363q128 75 274 75q125 0 226 -89q100 -88 100 -251q0 -149 -95 -258q-95 -108 -268 -108q-168 0 -280 112q-113 113 -113 328q0 282 197 502q197 219 510 342zM233 473q0 -229 72 -322q73 -94 203 -94q90 0 155 73
q64 71 64 200t-80 207q-78 77 -182 77q-134 0 -227 -65q-5 -58 -5 -76z" />
    <glyph glyph-name="six.tnum" horiz-adv-x="1046" 
d="M862 1278q4 -6 9 -18q2 -5 5 -10.5t3 -6.5q-229 -96 -379 -255t-189 -363q131 75 277 75q124 0 224 -89q99 -89 99 -251q0 -151 -94 -258q-95 -108 -266 -108q-169 0 -282 112t-113 328q0 284 196 502q196 219 510 342zM299 473q0 -228 71 -322t203 -94q90 0 154 73
t64 200q0 129 -80 207q-78 77 -181 77q-137 0 -227 -65q-4 -47 -4 -76z" />
    <glyph glyph-name="sterling.osf" horiz-adv-x="952" 
d="M240 412v55h94q-64 90 -64 170q0 79 62 132q61 52 182 52q93 0 188 -43q-2 -4 -10 -29t-16 -47q-74 68 -178 68q-75 0 -106 -34q-32 -35 -32 -79q0 -15 5 -35q5 -19 17 -41q13 -24 19 -35q5 -10 29 -42q7 -9 13 -17t9.5 -13.5t4.5 -6.5h209q-4 -21 -15 -55h-170
q11 -42 11 -60q0 -112 -189 -262q250 4 391 33l-18 -92q-136 4 -465 4q4 7 9 26q1 5 3.5 14.5t3.5 12.5q166 156 166 248q0 33 -20 76h-133z" />
    <glyph glyph-name="three.denominator" horiz-adv-x="606" 
d="M444 500q0 -50 -38 -85q-40 -37 -84 -53l2 -6q60 -4 104 -43q45 -39 45 -98q0 -103 -117 -186t-247 -111q-2 5 -4 12q-3 8 -3 9q125 40 203 110q80 72 80 162q0 119 -129 119h-35l-4 37q156 30 156 127q0 92 -123 92q-73 0 -139 -51l-19 53q90 41 160 41q93 0 140 -37
q48 -37 52 -92z" />
    <glyph glyph-name="three.numerator" horiz-adv-x="606" 
d="M444 1014q0 -50 -38 -85t-84 -52l2 -3v-4q62 -4 105 -42q44 -38 44 -99q0 -105 -117 -187q-119 -84 -247 -112l-7 21q124 39 203 111q80 72 80 163q0 119 -129 119h-35l-4 37q156 30 156 127q0 92 -123 92q-73 0 -139 -51l-19 53q90 41 160 41q93 0 140 -37
q48 -37 52 -92z" />
    <glyph glyph-name="three.onum" horiz-adv-x="903" 
d="M692 549q0 -87 -60 -147t-132 -93q0 -3 1 -6t1 -6q91 -12 164 -79q71 -65 71 -175q0 -127 -99 -244t-228 -186t-258 -102l-9 24q193 68 329 207t136 293q0 114 -62 164q-63 51 -153 51h-61l-8 47q112 21 186 81t74 161q0 81 -54 132q-53 50 -145 50q-132 0 -242 -100
l-34 88q173 71 278 71q149 0 224 -65q77 -66 81 -166z" />
    <glyph glyph-name="three.tnum" horiz-adv-x="1046" 
d="M786 850q0 -90 -59 -149q-62 -62 -133 -91q0 -3 1 -6t1 -6q91 -12 164 -79q71 -65 71 -175q0 -96 -57 -188q-59 -94 -147 -159q-96 -70 -189 -114q-103 -48 -192 -71l-8 24q191 67 328 207q136 139 136 293q0 114 -62 164q-63 51 -153 51h-61l-8 47q112 22 186 83
q74 60 74 159q0 82 -53 132t-146 50q-131 0 -241 -100l-33 88q148 71 276 71q150 0 225 -65t80 -166z" />
    <glyph glyph-name="two.denominator" horiz-adv-x="690" 
d="M436 467q0 -76 -51 -160t-217 -241h197q74 0 108 28q-1 -10 -8 -49q-7 -40 -8 -47q-82 2 -127 2h-279q0 6 -2 12q316 292 316 445q0 127 -121 127q-81 0 -138 -52q-9 22 -20 56q90 39 160 39q85 0 138 -44q52 -43 52 -116z" />
    <glyph glyph-name="two.numerator" horiz-adv-x="692" 
d="M520 983q0 -76 -51 -160t-217 -241h197q75 0 108 26q-1 -10 -8 -49q-7 -40 -8 -47q-82 2 -127 2h-279q0 8 -2 14q316 292 316 445q0 127 -121 127q-76 0 -138 -51q-3 7 -20 53q84 41 160 41q85 0 138 -44q52 -43 52 -116z" />
    <glyph glyph-name="two.onum" horiz-adv-x="960" 
d="M713 537q0 -127 -95 -231q-94 -103 -305 -202l4 -10h375q160 0 234 56q-4 -31 -17 -87q-13 -57 -14 -67q-99 4 -227 4h-619l-6 20q42 28 126 76q82 46 150 91q50 33 126 94q72 58 104 114q35 61 35 121q0 94 -52 146q-51 51 -147 51q-71 0 -152 -31q-74 -28 -116 -64
q-5 16 -35 91q166 71 305 71q153 0 239 -67q87 -67 87 -176z" />
    <glyph glyph-name="two.tnum" horiz-adv-x="1046" 
d="M809 807q0 -126 -89 -271q-87 -142 -376 -417h326q133 0 196 51l-32 -174q-99 4 -228 4h-450l-6 20q82 73 164 155q73 73 168 181q101 114 154 224q54 111 54 206q0 114 -52 175t-146 61q-126 0 -242 -100l-33 88q149 71 277 71q152 0 233 -74q82 -75 82 -200z" />
    <glyph glyph-name="Uacute.smcp" horiz-adv-x="1030" 
d="M565 977l-39 27l105 198h133q-167 -186 -199 -225zM268 717v-322q0 -185 68 -261q68 -75 207 -75q152 0 216 88t64 267v225q0 120 -24 219h119q-23 -90 -23 -219v-250q0 -393 -373 -393q-366 0 -366 379v342q0 84 -15 141h146q-19 -59 -19 -141z" />
    <glyph glyph-name="Ucircumflex.smcp" horiz-adv-x="1030" 
d="M399 973q-13 6 -25 15q-14 11 -20 13q105 115 160 201h59q74 -115 154 -201q-27 -20 -45 -28l-141 121q-112 -94 -142 -121zM268 717v-322q0 -185 68 -261q68 -75 207 -75q152 0 216 88t64 267v225q0 120 -24 219h119q-23 -90 -23 -219v-250q0 -393 -373 -393
q-366 0 -366 379v342q0 84 -15 141h146q-19 -59 -19 -141z" />
    </font>
</defs>
</svg>
